<?xml version="1.0" encoding="UTF-8"?>
<svg id="Layer_2" data-name="Layer 2" xmlns="http://www.w3.org/2000/svg" viewBox="0 0 600 205.08">
  <defs>
    <style>
      .cls-1, .cls-2 {
        stroke-width: 0px;
      }

      .cls-2 {
        fill: #fff;
      }
    </style>
  </defs>
  <g id="Layer_1-2" data-name="Layer 1">
    <g>
      <g>
        <path class="cls-1" d="m34.89,50.07c-1.46.52-3.13,1.17-5.01,1.96-1.88.78-3.39,1.7-4.54,2.74-1.15.94-2.3,2.4-3.44,4.38-1.15,1.98-2.17,4.09-3.05,6.34-.89,2.24-1.62,4.49-2.19,6.73-.57,2.24-.86,4.09-.86,5.55.21,3.75,1.02,6.91,2.42,9.47,1.41,2.56,3.23,4.72,5.48,6.49,2.24,1.77,4.8,3.29,7.67,4.54,2.87,1.25,5.81,2.45,8.84,3.6,2.29,0,5.03-.34,8.21-1.02,3.18-.68,6.31-1.69,9.39-3.05,3.08-1.35,5.79-3.02,8.14-5.01,2.35-1.98,3.83-4.28,4.46-6.88l-.16-.31c.21-.83.47-1.41.78-1.72.21.1.57.29,1.1.55.52.26.78.5.78.7v.16c.83,1.04,1.8,1.85,2.89,2.43,1.1.57,2.19,1.17,3.29,1.8,1.1.63,2.09,1.41,2.97,2.35.89.94,1.49,2.19,1.8,3.75l-1.41,1.56.16,1.25c-1.67,2.3-3.68,4.17-6.02,5.63-2.35,1.46-4.62,2.97-6.81,4.54-1.04.84-2.01,1.67-2.89,2.5-.89.84-1.9,1.51-3.05,2.03-1.15.52-2.4.91-3.75,1.17-1.36.26-2.66.49-3.91.7-4.38.83-7.9,1.51-10.56,2.03-2.66.52-5.24.78-7.74.78-2.19,0-4.54-.26-7.04-.78-2.5-.52-5.63-1.36-9.39-2.5-2.09-.63-4.22-1.82-6.41-3.6-2.19-1.77-4.22-3.81-6.1-6.1-1.88-2.29-3.44-4.69-4.69-7.2-1.25-2.5-2.03-4.85-2.35-7.04-.21-2.4-.57-4.9-1.1-7.51-.52-2.61-.78-5.16-.78-7.67,0-1.98.21-4.54.63-7.67.42-3.13,1.1-6.31,2.03-9.54.94-3.23,2.16-6.28,3.68-9.15,1.51-2.87,3.42-5.08,5.71-6.65,2.19-1.46,4.35-2.97,6.49-4.54,2.14-1.56,4.46-2.76,6.96-3.6,3.02-.94,6.1-1.67,9.23-2.19,3.13-.52,6.31-.78,9.54-.78,5.63,0,11.11.86,16.43,2.58,5.32,1.72,9.96,4.56,13.92,8.53.83.84,1.82,1.8,2.97,2.89,1.15,1.1,1.72,2.22,1.72,3.36,0,1.04-.5,1.96-1.49,2.74-.99.78-1.8,1.59-2.42,2.43-.52.63-1.04,1.44-1.56,2.43-.52.99-1.07,1.96-1.64,2.89-.57.94-1.2,1.75-1.88,2.43-.68.68-1.38,1.02-2.11,1.02-.84,0-1.83-.44-2.97-1.33-1.15-.88-2.35-1.9-3.6-3.05-1.25-1.15-2.5-2.27-3.75-3.36-1.25-1.1-2.4-1.85-3.44-2.27-3.03-1.15-6.23-1.85-9.62-2.11-3.39-.26-6.7-.39-9.93-.39ZM2.03,82.45l1.72.16v-2.35h-1.88l.16,2.19Zm0-12.99c.52-1.88.94-3.81,1.25-5.79.31-1.98.73-3.91,1.25-5.79-.63,1.88-1.15,3.78-1.56,5.71-.42,1.93-.73,3.89-.94,5.87Zm3.13,19.09c.21.73.36,1.44.47,2.11.1.68.31,1.28.63,1.8l.78-.94c-.52-.42-.81-.88-.86-1.41-.05-.52-.08-1.1-.08-1.72l-.94.16Zm1.56-15.49c0-.1.08-.47.24-1.1.16-.63.34-1.3.55-2.03.21-.73.52-1.67.94-2.82-.42,1.04-.81,2.03-1.17,2.97-.37.94-.55,1.93-.55,2.97Zm1.41,23.78c-.42-.21-.68-.52-.78-.94l.78.94Zm.94-10.01l.16.47v-1.25l-.16.78Zm1.25,12.2c.1.31.36.78.78,1.41l-.31-.94-.47-.47Zm.78-52.88c1.67-1.56,3.52-2.95,5.55-4.15,2.03-1.2,4.09-2.27,6.18-3.21l.47-.78,2.19-1.41c-2.82.94-5.45,2.19-7.9,3.75-2.45,1.56-4.62,3.5-6.49,5.79Zm11.42-.31c-.84.31-1.83.84-2.97,1.56-1.15.73-2.27,1.56-3.36,2.5s-2.06,1.9-2.89,2.89c-.84.99-1.36,1.96-1.56,2.89,1.77-2.09,3.41-3.94,4.93-5.55,1.51-1.62,3.47-3.05,5.87-4.3Zm-9.39,19.24c-.52,1.88-.86,3.86-1.02,5.95-.16,2.09-.23,4.12-.23,6.1.21-2.09.47-4.09.78-6.02.31-1.93.47-3.94.47-6.02Zm7.2,29.57c-1.98-1.98-3.5-4.2-4.54-6.65-1.04-2.45-1.93-4.98-2.66-7.59,0,.21-.03.39-.08.55-.05.16-.08.34-.08.55,0,2.4.78,4.83,2.35,7.28,1.56,2.45,3.23,4.41,5.01,5.87Zm5.79-53.82c-2.09.84-4.12,1.72-6.1,2.66-1.98.94-3.81,2.14-5.48,3.6,1.77-1.25,3.7-2.27,5.79-3.05,2.09-.78,4.22-1.49,6.41-2.11l-.63-1.1Zm1.56,69c-2.19-1.35-4.3-2.68-6.34-3.99-2.03-1.3-4.2-2.53-6.49-3.68.83,1.36,1.77,2.56,2.82,3.6h.78c1.46.94,2.92,1.8,4.38,2.58,1.46.78,3.08,1.28,4.85,1.49Zm-10.48-49.91l-1.25.94c-.21.42-.42.89-.63,1.41-.21.52-.31,1.04-.31,1.56l2.19-3.91Zm.63,36.77c.31.73.65,1.43,1.02,2.11.36.68.86,1.33,1.49,1.96l1.41.47.47-.94-4.38-3.6Zm1.1-42.56l.78-.63-.47.16-.31.47Zm12.36-7.82c-1.88.63-3.65,1.36-5.32,2.19-1.67.84-3.23,1.88-4.69,3.13l.16.31c1.56-1.15,3.18-2.09,4.85-2.82,1.67-.73,3.34-1.67,5.01-2.82Zm-3.44,55.23l1.25.16-1.41-.63.16.47Zm3.44,4.54c.73.31,1.75.55,3.05.7,1.3.16,2.58.23,3.83.23,1.77,0,3.13-.16,4.07-.47-1.88-.1-3.73-.16-5.55-.16s-3.63-.1-5.4-.31Zm17.37-65.71h-2.82c-2.4,0-4.75.08-7.04.23-2.3.16-4.64.34-7.04.55v.31c.73.11,1.43.18,2.11.23.68.05,1.38.08,2.11.08,2.19,0,4.28-.16,6.26-.47,1.98-.31,4.12-.63,6.41-.94Zm-12.99,74.32l.31-.31h-3.6l3.29.31Zm-2.66-76.98c3.44-.63,6.94-.94,10.48-.94h2.19c-1.15-.21-2.27-.36-3.36-.47-1.1-.1-2.22-.16-3.36-.16-1.77,0-3.81.26-6.1.78l.16.78Zm19.4,69.62c-2.61.84-5.22,1.46-7.82,1.88-2.61.42-5.27.99-7.98,1.72.1.21.31.31.63.31,2.5-.21,5.08-.7,7.74-1.49,2.66-.78,5.14-1.59,7.43-2.43Zm.94,2.97c-1.15.31-2.24.68-3.29,1.1-1.04.42-2.09.73-3.13.94,1.15-.21,2.35-.49,3.6-.86,1.25-.36,2.45-.7,3.6-1.02-.42,0-.68-.05-.78-.16Zm-4.69-64.62c-.42-.1-.94-.16-1.56-.16l1.56.16Zm10.01-2.97c-.42,0-.76-.02-1.02-.08-.26-.05-.6-.08-1.02-.08-.84,0-1.7.05-2.58.16-.89.11-1.75.21-2.58.31,3.34.63,6.52,1.54,9.54,2.74,3.02,1.2,5.42,3.42,7.2,6.65,0,.21.1.31.31.31.42,0,.63-.16.63-.47-.42-1.15-.94-2.19-1.56-3.13-.63-.94-1.41-1.77-2.35-2.5-.52,0-1.04-.1-1.56-.31-.52-.21-.84-.57-.94-1.1-.63-.21-1.46-.39-2.5-.55-1.04-.16-1.56-.7-1.56-1.64v-.31Zm-5.16,59.45c1.46-.52,2.89-1.12,4.3-1.8,1.41-.68,2.74-1.49,3.99-2.43-1.46.73-2.84,1.49-4.15,2.27-1.31.78-2.69,1.44-4.15,1.96Zm15.65.47c-2.09,1.25-4.22,2.4-6.41,3.44-2.19,1.04-4.33,2.14-6.41,3.29l1.56.78c.52-.21,1.07-.39,1.64-.55.57-.16,1.12-.34,1.64-.55h-.31c-.31,0-.47-.05-.47-.16,0-.21.26-.42.78-.63.52-.21,1.12-.44,1.8-.7.68-.26,1.35-.49,2.03-.7.68-.21,1.17-.36,1.49-.47l1.41-.78.16-2.03,1.1-.94Zm-9.23-51.47c.21.21.52.42.94.63.42.21.73.37.94.47l-1.88-1.1Zm6.26,5.01l.31-.63c-1.15-.94-2.19-1.62-3.13-2.03l2.82,2.66Zm10.64,34.89l-.16.94c-1.88,1.77-3.78,3.44-5.71,5.01-1.93,1.56-3.94,3.08-6.02,4.54.42-.31,1.35-.96,2.82-1.96,1.46-.99,2.97-2.03,4.54-3.13,1.56-1.1,2.97-2.06,4.22-2.89,1.25-.83,1.93-1.25,2.03-1.25l-1.72-1.25Zm-9.23,2.66l-1.72,1.41h.47l1.25-1.41Zm.31-33.95l1.25-1.72-.47-.63-1.25,2.03.47.31Zm3.44-4.69l.16-1.41c-.11.63-.18.99-.24,1.1-.05.11-.03.21.08.31Zm2.97,34.89c.1,0,.21-.05.31-.16l-.16-.16-.16.31Zm6.57,4.85c-.31-.42-.6-.81-.86-1.17-.26-.36-.6-.7-1.02-1.02l.31,1.72.47.78,1.1-.31Z"/>
        <path class="cls-1" d="m128.61,116.09c-2.19.31-4.22.47-6.1.47-5.63,0-10.64-1.15-15.02-3.45-4.38-2.3-8.06-5.36-11.03-9.17-2.97-3.81-5.22-8.15-6.73-13.01-1.51-4.86-2.27-9.85-2.27-14.97,0-5.43.86-10.76,2.58-15.99,1.72-5.22,4.38-9.9,7.98-14.03,3.6-4.13,8.14-7.47,13.61-10.03,5.48-2.56,11.97-3.84,19.48-3.84,6.57,0,12.25,1.02,17.05,3.06,4.8,2.04,8.79,4.86,11.97,8.46,3.18,3.61,5.53,7.84,7.04,12.7,1.51,4.86,2.27,10.11,2.27,15.75,0,6.27-.99,12.33-2.97,18.18-1.98,5.85-4.96,10.87-8.92,15.05-.94.94-2.5,2.07-4.69,3.37s-4.59,2.56-7.2,3.76c-2.61,1.2-5.24,2.19-7.9,2.98-2.66.78-4.93,1.18-6.81,1.18-.94,0-1.72-.16-2.35-.47Zm-24.09-8.61c-2.5-2.61-4.64-5.34-6.41-8.21-1.77-2.87-3.34-5.97-4.69-9.31h-.16c-.52,0-.89-.1-1.1-.31.83,4.38,2.19,7.85,4.07,10.4,1.88,2.56,4.64,5.03,8.29,7.43Zm-9.7-36.14h-1.1l.16,1.1h.94v-1.1Zm.16,9.07l.31,1.1-.31-3.44v2.35Zm1.25-15.96l-1.1,1.72c.1-.1.29-.36.55-.78.26-.42.44-.73.55-.94Zm-.47-1.41l.47,1.41c.52-1.35.99-2.68,1.41-3.99.42-1.3.88-2.68,1.41-4.15-.52.63-1.02,1.25-1.49,1.88-.47.63-.91,1.31-1.33,2.03l-.47,2.82Zm3.44,22.69c-.11-.42-.16-1.04-.16-1.88s.05-1.46.16-1.88c-.42.94-.63,1.72-.63,2.35,0,.21.02.42.08.63.05.21.23.47.55.78Zm2.19-20.03c-.21.63-.5,1.25-.86,1.88-.37.63-.76,1.2-1.17,1.72.52-.63.96-1.2,1.33-1.72.36-.52.6-1.15.7-1.88Zm.94,27.07c-.21-.63-.44-1.3-.7-2.03-.26-.73-.39-1.51-.39-2.35l-1.41-.47,1.25,3.75,1.25,1.1Zm-2.19-33.95l-.16.16c0,.11.02.18.08.23.05.05.08.13.08.23l.47-.16-.47-1.1v.63Zm2.35,0c-.21.84-.42,1.59-.63,2.27-.21.68-.52,1.33-.94,1.96l1.25.31.94-3.6-.63-.94Zm-.16-5.95c.42-.73.83-1.41,1.25-2.03.42-.63.88-1.2,1.41-1.72l-1.25-.78-1.72,3.29.31,1.25Zm2.82,40.21c-.21-.21-.29-.34-.23-.39.05-.05-.03-.18-.23-.39l-.63.16,1.1,1.25v-.63Zm2.82-49.75c-1.36.84-2.5,1.72-3.44,2.66h.47l2.97-2.66Zm1.88,8.14l-.16-1.41c-.94,1.04-1.77,2.19-2.5,3.44-.73,1.25-1.41,2.45-2.03,3.6.52-.52,1.1-.99,1.72-1.41.63-.42,1.2-.89,1.72-1.41l1.25-2.82Zm-4.38,35.05v-.63c-.11.21-.16.47-.16.78s.05.57.16.78v-.94Zm1.41,2.5c-.52-.31-.99-.83-1.41-1.56.21,1.46.52,2.84.94,4.15.42,1.31.83,2.69,1.25,4.15.1-.52.21-1.1.31-1.72.1-.63.16-1.2.16-1.72v-.47l-1.25-2.82Zm11.42,15.18c-.94-.83-1.9-1.54-2.89-2.11-.99-.57-2.01-1.22-3.05-1.96l.31.78-.63,1.72-2.19.16c-1.46-.83-2.82-1.98-4.07-3.44l1.1,1.88v.78l1.56,1.41.16-.63c1.56.31,3.13.65,4.69,1.02,1.56.37,3.13.65,4.69.86l.31-.47Zm25.5-53.65c-4.69-2.09-9.39-3.14-14.08-3.14-2.71,0-5.48.42-8.29,1.26s-5.37,2.14-7.67,3.92c-2.3,1.78-4.17,4.06-5.63,6.83-1.46,2.77-2.19,6.09-2.19,9.96,0,3.45.6,7.01,1.8,10.67,1.2,3.66,2.84,7.01,4.93,10.04,2.09,3.03,4.56,5.52,7.43,7.45,2.87,1.94,5.97,2.9,9.31,2.9,3.54-.1,6.78-1.15,9.7-3.14,2.92-1.99,5.42-4.47,7.51-7.45,2.09-2.98,3.7-6.28,4.85-9.89,1.15-3.61,1.72-7.19,1.72-10.75,0-2.2-.18-4.08-.55-5.65-.37-1.57-.91-3.06-1.64-4.47-.73-1.41-1.7-2.77-2.89-4.08-1.2-1.31-2.64-2.8-4.3-4.47Zm-34.89,56.94v-.31c-.63-.21-1.1-.42-1.41-.63l1.41.94Zm.78-57.42c.21-.21.36-.39.47-.55.1-.16.26-.29.47-.39l.16-.47-1.1,1.41Zm10.64-8.92c-.84,0-1.64-.02-2.43-.08-.78-.05-1.59-.13-2.42-.23.83.42,1.82.63,2.97.63.94,0,1.56-.1,1.88-.31Zm9.23-3.91c-.52-.52-1.62-.78-3.29-.78-1.46,0-3.03.17-4.69.49-1.67.33-2.77.63-3.29.91h4.54c1.15,0,2.27-.02,3.36-.08,1.1-.05,2.21-.23,3.36-.55Zm.94,71.34c-.84,0-1.67-.02-2.5-.08-.84-.05-1.67-.13-2.5-.23.83.42,1.82.63,2.97.63.94,0,1.62-.1,2.03-.31Zm-2.19-3.29h4.54c1.15,0,2.27-.02,3.36-.08,1.1-.05,2.21-.23,3.36-.55l4.85-3.29-2.19.94-.78-.78c-2.19.52-4.38,1.15-6.57,1.88-2.19.73-4.38,1.36-6.57,1.88Zm7.04-62.27h.47l-.16-.16-.31.16Zm4.69,68.06c-.52.31-1.12.55-1.8.7-.68.16-1.33.29-1.96.39l-.16.63-.63.47c.94,0,1.85-.26,2.74-.78.88-.52,1.64-.99,2.27-1.41h-.47Zm-1.25-71.19l.31-1.48.78-.3c-.31-.2-.68-.42-1.1-.66-.42-.25-.84-.37-1.25-.37l.63,2.52.63.3Zm10.17,64.15c-1.04.63-2.03,1.23-2.97,1.8-.94.57-1.88,1.12-2.82,1.64.83-.21,1.59-.39,2.27-.55.68-.16,1.43-.39,2.27-.7v-.16l1.25-2.03Zm6.1-51.16c-.94-1.46-1.88-2.53-2.82-3.21-.94-.68-2.19-1.38-3.75-2.11,1.04,1.04,2.09,2.01,3.13,2.89,1.04.89,2.19,1.7,3.44,2.43Zm-3.44,47.41c1.15-1.56,2.03-3.02,2.66-4.38.63-1.35,1.12-2.74,1.49-4.15.36-1.41.68-2.84.94-4.3.26-1.46.6-3.08,1.02-4.85-.31.31-.52.86-.63,1.64-.1.78-.23,1.59-.39,2.43-.16.84-.31,1.62-.47,2.35-.16.73-.39,1.25-.7,1.56-1.04,3.13-2.66,6-4.85,8.61l.94,1.1Zm3.75-57.26l-4.07-2.03.16-.47c2.19,1.56,4.17,3.7,5.95,6.41,1.77,2.71,3.6,5.06,5.48,7.04l-7.51-10.95Zm-2.66,12.05c.52.52.94,1.15,1.25,1.88.31.73.63,1.51.94,2.35l1.25-.47c.73,1.36,1.41,2.77,2.03,4.22.63,1.46,1.35,2.82,2.19,4.07-.31-1.77-.65-3.52-1.02-5.24-.37-1.72-.97-3.47-1.8-5.24l-.78.31c-1.15-.42-2.5-1.04-4.07-1.88Zm2.97,16.43c-.11,1.15-.16,2.32-.16,3.52s-.16,2.32-.47,3.36l.31-.16c.21-1.15.31-2.27.31-3.36v-3.36Zm.63,27.38c1.15-.94,1.88-1.72,2.19-2.35.31-.63.73-1.72,1.25-3.29-.63.94-1.23,1.85-1.8,2.74-.57.89-1.12,1.85-1.64,2.89Zm4.38-22.06c.31-1.35.57-2.71.78-4.07.21-1.35.42-2.76.63-4.22-.52.94-.94,1.64-1.25,2.11-.31.47-.52.89-.63,1.25-.11.37-.16.78-.16,1.25v2.27l.63,1.41Zm-.31.94l-.31.16v.63c.21-.31.42-.89.63-1.72l-.31.94Zm3.44-5.95l.63-.16-.63-1.1-.16.63.16.63Zm2.5,6.57c-.52,1.67-1.04,2.92-1.56,3.75,1.04-1.04,1.56-2.29,1.56-3.75Zm0-7.04c-.21.73-.37,1.49-.47,2.27-.11.78-.26,1.54-.47,2.27l1.41.31v-3.91l-.47-.94Z"/>
        <path class="cls-1" d="m236.09,33.64c1.77-1.04,3.31-1.75,4.62-2.11,1.3-.36,2.63-.55,3.99-.55,2.29,0,5.01.52,8.14,1.56.21.63.31,1.77.31,3.44,0,1.56-.08,3.55-.23,5.95-.16,2.4-.31,4.88-.47,7.43-.16,2.56-.31,5.03-.47,7.43-.16,2.4-.23,4.43-.23,6.1,0,.63.05,1.17.16,1.64.1.47.16.86.16,1.17,0,.11-.03.18-.08.23-.05.05-.08.13-.08.23.52,2.4.91,5.03,1.17,7.9.26,2.87.39,5.66.39,8.37,0,1.77-.03,3.47-.08,5.08-.05,1.62-.08,3.26-.08,4.93,0,3.55.13,7.02.39,10.4.26,3.39.65,6.86,1.17,10.4v.47c0,1.25-.42,1.88-1.25,1.88-.63,0-1.15-.37-1.56-1.1v-.16c-2.5.83-5.03,1.22-7.59,1.17-2.56-.05-5.14-.03-7.74.08l-1.72-.78,1.56-1.88c-.31-1.15-.44-2.55-.39-4.22.05-1.67-.03-3.18-.24-4.54-3.03,3.86-6.78,6.62-11.26,8.29-4.49,1.67-9.18,2.5-14.08,2.5-8.87,0-15.78-1.77-20.73-5.32-4.96-3.54-8.66-8.21-11.11-14-2.45-5.79-3.97-12.41-4.54-19.87-.57-7.46-.86-15.04-.86-22.76,0-1.67.02-3.31.08-4.93.05-1.62.08-3.15.08-4.62,0-1.25-.03-2.5-.08-3.75-.05-1.25-.08-2.45-.08-3.6l-1.56-.16v-2.82h.31c.21-.1.47-.16.78-.16s.47-.1.47-.31c-.11,0-.16-.05-.16-.16l2.82-.31.16.47c1.46,0,3.15-.21,5.08-.63,1.93-.42,3.78-.63,5.55-.63,1.35,0,2.76.31,4.22.94,1.46.63,2.19,1.25,2.19,1.88,0,4.49-.21,9.26-.63,14.32-.42,5.06-.63,10.2-.63,15.41,0,3.13.21,6.7.63,10.72.42,4.02,1.23,7.82,2.43,11.42,1.2,3.6,2.89,6.62,5.08,9.07,2.19,2.45,5.11,3.68,8.76,3.68,2.92,0,5.97-1.02,9.15-3.05,3.18-2.03,6.07-4.67,8.68-7.9,2.61-3.23,4.74-6.86,6.41-10.87,1.67-4.01,2.5-8.06,2.5-12.13,0-1.25-.13-2.43-.39-3.52-.26-1.1-.39-2.27-.39-3.52,0-.52.05-1.12.16-1.8.1-.68.16-1.75.16-3.21s-.03-3.13-.08-5.01c-.05-1.88-.16-3.68-.31-5.4-.16-1.72-.34-3.23-.55-4.54-.21-1.3-.42-2.21-.63-2.74,0-.21.02-.47.08-.78.05-.31.08-.57.08-.78.21.11.57.16,1.1.16.63,0,1.04-.05,1.25-.16Zm-58.36,20.5v-7.59c0-.99.05-2.06.16-3.21-.56,1.56-.94,3.05-1.13,4.46-.19,1.41-.28,2.84-.28,4.3v2.35c0,.73.05,1.51.16,2.35l.16-1.72.94-.94Zm-.94,8.14c.1,2.09.21,4.12.31,6.1.1,1.98.26,4.02.47,6.1l.78-.47c-.31-1.98-.6-3.96-.86-5.95-.26-1.98-.5-3.91-.7-5.79Zm1.56-24.25l.47-1.41-.63.94.16.47Zm0,43.34c.21,1.56.44,3.1.7,4.62.26,1.51.65,3.05,1.17,4.62v-.31c0-1.15.42-1.93,1.25-2.35,0-.21-.13-.6-.39-1.17-.26-.57-.57-1.22-.94-1.96-.37-.73-.73-1.41-1.1-2.03-.37-.63-.6-1.1-.7-1.41Zm5.48-41.3c.21-.63.39-1.28.55-1.96.16-.68.34-1.38.55-2.11l-1.88-1.1-3.91.63-.31.78c.63-.42,1.1-.63,1.41-.63.42,0,.78.31,1.1.94.63-.63,1.2-.94,1.72-.94.73,0,1.1.37,1.1,1.1,0,.42-.1.73-.31.94v2.35Zm-3.13,5.63c-.11-.83-.18-1.62-.23-2.35-.05-.73-.08-1.51-.08-2.35-.11,1.15-.16,2.24-.16,3.29v3.13l.47-1.72Zm-.47,8.92c.1,1.77.21,3.52.31,5.24.1,1.72.31,3.47.63,5.24l.31-.63c-.21-1.77-.39-3.62-.55-5.55-.16-1.93-.23-3.78-.23-5.55l-.47,1.25Zm0,16.43c.52,4.17,1.33,8.14,2.43,11.89,1.1,3.75,3.1,7.25,6.02,10.48-1.98-3.23-3.78-6.83-5.4-10.8-1.62-3.96-2.64-7.82-3.05-11.58Zm.31,20.97c.42,1.15.81,2.3,1.17,3.44.36,1.15.81,2.24,1.33,3.29l1.41.94c.1.63.6,1.36,1.49,2.19.89.84,1.85,1.67,2.89,2.5,1.04.84,2.09,1.59,3.13,2.27,1.04.68,1.88,1.17,2.5,1.49,3.96,2.3,8.19,3.44,12.67,3.44,3.54,0,7.09-.77,10.64-2.31-1.98.49-4.22.74-6.73.74-2.82,0-5.69-.31-8.61-.94l-1.25.78c-1.98-.42-4.02-1.22-6.1-2.43-2.09-1.2-4.07-2.63-5.95-4.3-1.88-1.67-3.6-3.47-5.16-5.4-1.56-1.93-2.71-3.83-3.44-5.71Zm2.97-46.62c-.11.11-.16.26-.16.47l.16-.47Zm5.63,43.65c-1.04-2.4-1.72-4.87-2.03-7.43-.31-2.55-.89-5.03-1.72-7.43l-1.72-.78c.52,2.19,1.15,4.36,1.88,6.49.73,2.14,1.51,4.3,2.35,6.49v-.31l1.25,2.97Zm-1.56-42.87c-.21,1.88-.39,3.75-.55,5.63-.16,1.88-.23,3.75-.23,5.63,0,2.09.05,4.15.16,6.18.1,2.03.26,4.09.47,6.18l.94.16c0-3.96-.11-7.93-.31-11.89-.21-3.96-.37-7.93-.47-11.89Zm0-11.42l-.16.47.78-.47h-.63Zm1.56,3.91l.78.63c.1-.42.18-.78.24-1.1.05-.31.08-.68.08-1.1l-.63.31-.47,1.25Zm8.92,64.15c-.42.42-.94.63-1.56.63s-.99-.26-1.1-.78h-1.1l-.31.63,1.1.9c2.92.9,5.68,1.63,8.29,2.18,2.61.55,5.37.83,8.29.83.83,0,1.69-.08,2.58-.23.89-.16,1.75-.23,2.58-.23-.73,0-2.03-.12-3.91-.36-1.88-.24-3.83-.55-5.87-.93-2.03-.38-3.94-.78-5.71-1.21-1.77-.43-2.87-.9-3.29-1.41Zm0-1.56c-.31-.1-.68-.36-1.1-.78.21.21.36.42.47.63.1.21.26.42.47.63l.16-.47Zm1.1-2.5c.63.63,1.41,1.25,2.35,1.88l-2.35-1.88Zm8.76,3.29c.83.52,1.72.78,2.66.78.63,0,1.23-.05,1.8-.16.57-.1,1.17-.26,1.8-.47-.73,0-1.46.03-2.19.08-.73.05-1.41.08-2.03.08-.42,0-.78-.05-1.1-.16-.31-.1-.63-.16-.94-.16Zm9.86-2.66c1.04-.52,2.03-1.04,2.97-1.56.94-.52,1.93-1.04,2.97-1.56l2.82-4.07c-1.46,1.46-3,2.76-4.62,3.91-1.62,1.15-3.31,2.24-5.08,3.29h.94Zm10.48,7.51c-3.34,2.27-6.83,4.03-10.48,5.26.73-.1,1.67-.36,2.82-.77,1.15-.41,2.32-.88,3.52-1.39,1.2-.52,2.32-1.08,3.36-1.7,1.04-.62,1.82-1.19,2.35-1.7l-1.56.31Zm6.57-17.83c-1.46,1.46-3,2.92-4.62,4.38-1.62,1.46-3.05,2.92-4.3,4.38.1,0,.18.03.23.08.05.05.18.08.39.08.73,0,1.49-.23,2.27-.7s1.54-1.02,2.27-1.64c.73-.63,1.41-1.28,2.03-1.96.63-.68,1.1-1.22,1.41-1.64,0-.52.02-1.02.08-1.49.05-.47.13-.96.23-1.49Zm-.16,7.04c-.94,1.25-1.98,2.32-3.13,3.21-1.15.89-2.4,1.75-3.75,2.58,1.46-.52,2.74-1.1,3.83-1.72s2.21-1.51,3.36-2.66l-.31-1.41Zm-1.72,7.04c-.21.11-.37.21-.47.31-.11.1-.26.21-.47.31.52,0,.83-.21.94-.63Zm1.88-23.62c0,.21-.05.37-.16.47l.16-.47Zm.78,8.6l.78-.16v-1.1l-.78,1.25Zm1.41,4.69l2.66,3.91-2.35-1.56-.31-2.35Zm2.35-35.36c-.31,2.71-.63,5.63-.94,8.76-.31,3.13-.47,6.26-.47,9.39,0,1.98.08,3.91.24,5.79.16,1.88.49,3.6,1.02,5.16l.16-29.1Zm-.16,55.82l2.03-.32h-.63l-.78-.8-.63,1.12Zm1.1-74.13l.16-.94c-.11,0-.21.03-.31.08-.11.05-.26.08-.47.08v.31l.63.47Zm2.82-2.35c-.31,2.09-.57,4.2-.78,6.34-.21,2.14-.73,4.15-1.56,6.02l1.1,1.25v22.37c.1-3.23.39-6.47.86-9.7.47-3.23.7-6.52.7-9.86,0-1.56-.08-3.13-.23-4.69s-.23-3.08-.23-4.54c0-1.15.1-2.32.31-3.52.21-1.2.57-2.53,1.1-3.99l-1.25.31Zm0,75.88c-.31-.54-.52-1.1-.63-1.69-.11-.59-.16-1.21-.16-1.85,0-.32.02-.62.08-.88.05-.27.08-.56.08-.89l-.31-.32v4.79c-.11.22-.42.59-.94,1.12l1.88-.27Zm.47-16.9l-.47-1.41c0,.73.16,1.2.47,1.41Zm.94-7.98c.1,1.15.29,2.22.55,3.21.26.99.55,2.06.86,3.21-.21-3.96-.44-7.98-.7-12.05-.26-4.07-.39-8.08-.39-12.05-.21,1.88-.31,3.73-.31,5.55s-.11,3.73-.31,5.71l.31,1.1c-.31.52-.52,1.23-.63,2.11-.11.89-.16,1.59-.16,2.11l.78,1.1Zm3.13,24.09l-.31-.47c-.52-2.5-.84-4.95-.94-7.35l-.47-.47c-.42.94-.63,2.03-.63,3.29,0,.84.08,1.7.23,2.58.16.89.34,1.75.55,2.58l1.56-.16Zm-.16-69.47c-.42,2.5-.7,5.03-.86,7.59-.16,2.56-.23,5.19-.23,7.9,0,7.51.42,15.05,1.25,22.61.83,7.56,1.51,14.89,2.03,21.98v-2.03c0-3.96-.34-7.82-1.02-11.58-.68-3.75-1.02-7.67-1.02-11.73,0-3.65.1-7.3.31-10.95.21-3.65.31-7.3.31-10.95,0-2.09-.05-4.22-.16-6.41-.11-2.19-.31-4.33-.63-6.41Zm1.25-6.57l.63,1.56c.1-.21.21-.44.31-.7.1-.26.26-.49.47-.7l-1.41-.16Zm1.1,71.97c0,.1-.03.18-.08.23-.05.05-.08.13-.08.23,0,.42.16.68.47.78l-.16,2.19c0,.21.05.31.16.31.21,0,.42-.13.63-.39.21-.26.42-.44.63-.55v-4.38l-.78,1.25-.78.31Zm1.1-72.13c-.11.11-.21.16-.31.16l.31-.16Zm-.16,35.83c-.11,1.25-.16,2.5-.16,3.75v3.6c0,3.86.16,7.67.47,11.42.21-.52.31-1.17.31-1.96v-2.58c0-2.4-.08-5.01-.23-7.82-.16-2.82-.29-4.95-.39-6.41Z"/>
        <path class="cls-1" d="m288.81,31.13c.83.11,1.35.5,1.56,1.17.21.68.31,1.44.31,2.27,0,.52-.03,1.04-.08,1.56-.05.52-.08.99-.08,1.41,2.4-2.71,4.59-4.64,6.57-5.79,1.98-1.15,3.91-1.72,5.79-1.72,1.67,0,3.31.39,4.93,1.17,1.62.78,3.23,1.8,4.85,3.05,1.62,1.25,3.26,2.66,4.93,4.22,1.67,1.56,3.39,3.08,5.16,4.54.1,0,.16-.02.16-.08s.05-.08.16-.08c.42,0,.7.18.86.55.16.37.24.76.24,1.17,0,1.25-.29,2.58-.86,3.99-.57,1.41-1.28,2.79-2.11,4.15-.84,1.36-1.75,2.66-2.74,3.91-.99,1.25-1.96,2.35-2.89,3.29l-2.66-.31c-1.15-2.5-2.97-4.72-5.48-6.65-2.5-1.93-5.06-2.89-7.67-2.89-1.78,0-3.42.52-4.93,1.56-1.51,1.04-2.69,2.82-3.52,5.32l-.94,1.1v20.97c0,5.32.02,10.56.08,15.72.05,5.16.23,10.4.55,15.72.21-.1.52-.16.94-.16.83,0,1.25.52,1.25,1.56,0,.31-.05.57-.16.78l-1.72,1.41v.31c0,1.04-.57,1.56-1.72,1.56-.42,0-.73-.13-.94-.39-.21-.26-.68-.39-1.41-.39-1.56,0-3.29.23-5.16.7-1.88.47-3.7.7-5.48.7-.63,0-1.1-.08-1.41-.23-.31-.16-.84-.23-1.56-.23l-.31.16c-.11,0-.47-.03-1.1-.08-.63-.05-1.31-.16-2.03-.31-.73-.16-1.41-.37-2.03-.63-.63-.26-.94-.55-.94-.86,0-.42.47-.83,1.41-1.25,0-4.38.13-8.71.39-12.99.26-4.28.49-8.61.7-12.99l-.47-.94c0-8.86-.29-17.7-.86-26.52-.57-8.81-1.02-17.65-1.33-26.52-1.25-.31-1.88-.68-1.88-1.1,0-.31.47-.65,1.41-1.02.94-.36,2.14-.65,3.6-.86,1.46-.21,3.08-.39,4.85-.55,1.77-.16,3.49-.23,5.16-.23,2.19,0,4.12.13,5.79.39,1.67.26,2.61.7,2.82,1.33Zm-16.58,81.98v-.94l.63-.47v-4.69l-1.1-.47v6.41l.47.16Zm1.56-77.6v1.1c.1-.1.21-.16.31-.16s.18.03.24.08c.05.05.13.08.23.08v3.91c0,.63.1.94.31.94s.39-.31.55-.94.34-.94.55-.94c.1.11.16.21.16.31.1-.73.26-1.41.47-2.03.21-.63.36-1.25.47-1.88h-2.19v-.31l-1.1-.16Zm1.1.47l3.91.63h-4.22l.31-.63Zm-.16,22.53v-2.58c0-.88-.05-1.75-.16-2.58v3.91c0,.42.05.84.16,1.25Zm2.66,2.03c-.11.84-.16,1.7-.16,2.58v4.46c0,.63.05,1.31.16,2.03v-9.07Zm.47,45.37v3.91h.47l-.47-3.91Zm.78,7.04l-.63-.16v.47l.63-.31Zm2.03-15.8c-.31.84-.47,1.83-.47,2.97s.08,2.3.23,3.44c.16,1.15.34,2.14.55,2.97.52-2.71.86-5.48,1.02-8.29.16-2.82.24-5.63.24-8.45,0-5.95-.24-11.94-.7-17.99-.47-6.05-.7-12.1-.7-18.15v-5.08c0-2.03.1-3.99.31-5.87.21-1.88.57-3.47,1.1-4.77.52-1.3,1.35-1.96,2.5-1.96.63,0,.94.37.94,1.1,0,.42-.05.73-.16.94l-.16.16,1.25.47-.78-4.22c-1.77.94-3.44,1.46-5.01,1.56,0,10.12-.11,20.16-.31,30.12-.21,9.96-.31,20-.31,30.12l.47.94Zm3.91,13.92c-.31-1.04-.47-2.24-.47-3.6,0-.21.02-.42.08-.63.05-.21.08-.42.08-.63-.21.52-.37,1.12-.47,1.8-.11.68-.21,1.38-.31,2.11l1.1.94Zm-.47-64.93c-.11,1.56-.18,3.16-.24,4.77-.05,1.62-.08,3.26-.08,4.93,0,6.78.21,13.51.63,20.18.42,6.68.63,13.46.63,20.34v3.6c.31-2.71.52-5.4.63-8.06.1-2.66.16-5.34.16-8.06,0-6.26-.23-12.54-.7-18.85-.47-6.31-.81-12.59-1.02-18.85Zm.78,65.24v.47c0,.63-.26.99-.78,1.1l1.25-.31-.47-1.25Zm2.66-5.16c0,.52.02,1.07.08,1.64.05.57.13,1.12.23,1.64l-.31-3.29Zm11.89-67.12c-1.98.21-3.57.78-4.77,1.72-1.2.94-2.01,2.45-2.42,4.54l2.97-2.97c-.11-.1-.16-.31-.16-.63,0-.63.52-.94,1.56-.94h.78l2.03-1.72Zm-2.19,6.1c.21,0,.39.03.55.08.16.05.34.08.55.08l-.78-.63-.31.47Zm12.2-9.07c-.84-.52-1.78-.96-2.82-1.33-1.04-.36-2.09-.55-3.13-.55-1.46,0-2.82.42-4.07,1.25h1.41c1.46,0,2.89.08,4.3.23,1.41.16,2.84.29,4.3.39Zm-7.67,4.85c2.09.42,4.22,1.15,6.41,2.19-.73-.52-1.41-1.07-2.03-1.64-.63-.57-1.15-1.28-1.56-2.11-.94.21-1.88.73-2.82,1.56Zm9.23,8.76c-.94-1.04-1.62-1.82-2.03-2.35-.42-.52-.81-.91-1.17-1.17-.37-.26-.89-.47-1.56-.63-.68-.16-1.7-.39-3.05-.7l7.82,4.85Zm0-4.85c.31.42.65.78,1.02,1.1.36.31.7.63,1.02.94-.21-.42-.5-.78-.86-1.1-.37-.31-.76-.63-1.17-.94Zm7.82-.16c-2.19-1.98-4.28-4.07-6.26-6.26l-1.41.78c1.04,1.25,2.16,2.35,3.36,3.29,1.2.94,2.63,1.67,4.3,2.19Zm-1.72,2.66c.1.31.21.63.31.94.1.31.16.63.16.94,0,.73-.31,1.31-.94,1.72l.16,1.25c0,.21-.11.42-.31.63-.11.21-.16.37-.16.47l.31.16c.83-1.15,1.62-2.37,2.35-3.68.73-1.3,1.35-2.68,1.88-4.15h-.63c-.31,1.25-.99,1.88-2.03,1.88-.42,0-.78-.05-1.1-.16Z"/>
        <path class="cls-1" d="m390.51,40.99c-.42.73-1.04,1.77-1.88,3.13-.84,1.36-1.75,2.71-2.74,4.07-.99,1.36-2.06,2.56-3.21,3.6-1.15,1.04-2.3,1.56-3.44,1.56-.52,0-.99-.16-1.41-.47-2.09-1.35-4.59-2.55-7.51-3.6-2.92-1.04-5.84-1.56-8.76-1.56-1.56,0-3.1.23-4.62.7-1.51.47-2.87,1.1-4.07,1.88-1.2.78-2.17,1.67-2.89,2.66-.73.99-1.1,1.96-1.1,2.89,0,1.56,1.07,2.92,3.21,4.07,2.14,1.15,4.85,2.3,8.14,3.44,3.29,1.15,6.81,2.35,10.56,3.6s7.27,2.82,10.56,4.69c3.29,1.88,6,4.17,8.14,6.88,2.14,2.71,3.21,6,3.21,9.86,0,1.77-.23,3.68-.7,5.71-.47,2.03-1.12,4.02-1.96,5.95-.84,1.93-1.88,3.7-3.13,5.32-1.25,1.62-2.66,2.84-4.22,3.68-3.86,2.09-8.82,3.7-14.86,4.85-6.05,1.15-12.2,1.72-18.46,1.72-1.88,0-4.07-.08-6.57-.23-2.5-.16-4.88-.42-7.12-.78-2.24-.36-4.12-.81-5.63-1.33-1.51-.52-2.27-1.15-2.27-1.88,0-.31.05-.57.16-.78.83-2.92,1.59-5.81,2.27-8.68.68-2.87,1.02-5.81,1.02-8.84.31-.73.78-1.1,1.41-1.1.42,0,.78.08,1.1.23s.63.29.94.39l1.1,1.56.94.63c2.92,1.25,5.68,2.17,8.29,2.74,2.61.57,5.11.86,7.51.86,5.21,0,9.31-1.12,12.28-3.36,2.97-2.24,4.46-4.72,4.46-7.43,0-2.19-1.07-4.3-3.21-6.34-2.14-2.03-5.71-3.62-10.72-4.77-4.9-1.04-9.13-2.43-12.67-4.15-3.55-1.72-6.44-3.65-8.68-5.79-2.24-2.14-3.91-4.43-5.01-6.88-1.1-2.45-1.64-4.87-1.64-7.28,0-2.92.73-5.76,2.19-8.53,1.46-2.76,3.57-5.16,6.34-7.2,2.76-2.03,6.13-3.68,10.09-4.93,3.96-1.25,8.45-1.88,13.46-1.88,2.82,0,5.5.31,8.06.94,2.55.63,5.08,1.38,7.59,2.27,2.5.89,4.98,1.85,7.43,2.89,2.45,1.04,4.98,1.98,7.59,2.82l.47,2.19Zm-59.14,68.84c.52,0,1.04.03,1.56.08.52.05,1.04.13,1.56.23l.47-1.1c-.31-.1-.89-.18-1.72-.23-.84-.05-1.36-.18-1.56-.39l-.31,1.41Zm1.1-4.22c.83,0,1.51.05,2.03.16l-1.72-.94-.31.78Zm3.13-56.95l-2.82-.47,2.03.47.47,1.72.31-1.72Zm-2.35,13.14c.21.42.47.78.78,1.1.31.31.63.63.94.94l-.78-1.25-.94-.78Zm.16,39.9c1.98.42,3.65.86,5.01,1.33,1.35.47,3.23.7,5.63.7-.52-.42-1.12-.83-1.8-1.25-.68-.42-1.28-.83-1.8-1.25-.31,0-.81-.02-1.49-.08-.68-.05-1.41-.1-2.19-.16-.78-.05-1.49-.1-2.11-.16-.63-.05-1.04-.18-1.25-.39v1.25Zm.31-3.91h1.88l-1.72-1.25-.16,1.25Zm5.48-36.3c-.73-.52-1.38-1.15-1.96-1.88-.57-.73-1.12-1.51-1.64-2.35,0,1.46.39,2.48,1.17,3.05.78.57,1.59.97,2.42,1.17Zm.94-12.99c-1.25.52-2.24,1.36-2.97,2.5-.73,1.15-1.1,2.4-1.1,3.75,0,1.56.57,2.92,1.72,4.07-.31-1.04-.47-1.93-.47-2.66,0-.83.18-1.49.55-1.96.36-.47.73-.91,1.1-1.33.36-.42.73-.88,1.1-1.41.36-.52.55-1.2.55-2.03l-.47-.94Zm26.75-14.55c-3.34-.94-6.88-1.41-10.64-1.41-6.36,0-12.26,1.31-17.68,3.91l.47.78c2.19-.83,4.62-1.51,7.28-2.03,2.66-.52,5.29-.78,7.9-.78,2.09,0,3.91.16,5.48.47,1.25-.21,2.48-.36,3.68-.47,1.2-.1,2.37-.26,3.52-.47Zm-26.44,10.8c.21-.31.31-.78.31-1.41v-1.41c0-.63.36-1.15,1.1-1.56l-.47-.78c-.84.21-1.25.73-1.25,1.56v.94c0,.73-.16,1.31-.47,1.72l.78.94Zm.94,21.43l1.25.31-1.88-.94.63.63Zm5.16,42.09c.42.1.81.16,1.17.16h.86c1.04,0,1.82-.05,2.35-.16l.94-1.41,1.41-.47c-.73.11-1.31.21-1.72.31-.42.11-.89.16-1.41.16-.73,0-1.31-.1-1.72-.31-.63.21-1.25.31-1.88.31h-4.22c.63.21,1.3.39,2.03.55.73.16,1.46.44,2.19.86Zm-2.35-56.79c.63-.73,1.25-1.46,1.88-2.19.63-.73,1.3-1.46,2.03-2.19-.84.31-1.62.68-2.35,1.1-.73.42-1.36.94-1.88,1.56l.31,1.72Zm1.56-6.57c-.11,0-.21.03-.31.08-.11.05-.21.08-.31.08.1-.1.31-.16.63-.16Zm9.7,26.13c-1.67-.52-3.34-1.17-5.01-1.96-1.67-.78-3.34-1.28-5.01-1.49,1.56.73,3.21,1.36,4.93,1.88,1.72.52,3.41,1.04,5.08,1.56Zm2.03,30.67c-.73,0-1.43.03-2.11.08-.68.05-1.28.08-1.8.08-1.15,0-2.3-.02-3.44-.08-1.15-.05-2.3-.13-3.44-.23l2.35,1.72c1.46-.21,2.87-.44,4.22-.7,1.35-.26,2.76-.55,4.22-.86Zm-10.17-49.13c.1-.1.16-.18.16-.23s.05-.13.16-.23c-.11.1-.16.18-.16.23s-.05.13-.16.23Zm3.13,12.52c.21.11.36.21.47.31.1.11.26.21.47.31l-.94-.63Zm16.74,43.34c-2.61.94-5.27,1.7-7.98,2.27-2.71.57-5.42.91-8.14,1.02.52.1,1.3.16,2.35.16,2.4,0,4.77-.34,7.12-1.02,2.35-.68,4.56-1.49,6.65-2.43Zm-4.22-35.67c-1.04-.31-1.98-.7-2.82-1.17-.84-.47-1.72-.86-2.66-1.17l-1.88.78,3.75,1.72c.1-.1.68-.16,1.72-.16h1.88Zm-5.48-29.73c.21,0,.36-.02.47-.08.1-.05.26-.08.47-.08l.31-.16-1.25.31Zm1.41,64.15c3.96-.83,7.77-1.93,11.42-3.29,3.65-1.35,7.3-2.92,10.95-4.69-.31-.1-1.12-.34-2.42-.7-1.31-.36-1.96-.76-1.96-1.17,0-.21.34-.49,1.02-.86.68-.36,1.12-.81,1.33-1.33-.21.42-.5.73-.86.94-.37.21-.76.42-1.17.63-.52.42-.86.81-1.02,1.17-.16.37-.29.73-.39,1.1-.11.37-.26.7-.47,1.02-.21.31-.68.52-1.41.63-2.4,1.67-4.83,2.92-7.28,3.75-2.45.84-5.03,1.77-7.74,2.82Zm1.56-64.77c1.15.42,2.35.68,3.6.78,1.25.11,2.45.42,3.6.94l.16.16v-.63c-.84-.52-1.72-.86-2.66-1.02-.94-.16-1.88-.23-2.82-.23h-1.88Zm8.45-2.19l-5.16-1.56-.16.94c.94.11,1.82.26,2.66.47.83.21,1.72.47,2.66.78v-.63Zm2.35-5.01c.1.21.16.47.16.78,0,.52-.29.86-.86,1.02-.57.16-1.12.23-1.64.23,1.15.42,2.29.76,3.44,1.02,1.15.26,2.29.5,3.44.7v-1.72c-.94-.1-1.83-.18-2.66-.23-.84-.05-1.46-.65-1.88-1.8Zm-.47,48.5c1.04,1.88,1.56,3.7,1.56,5.48,0,1.25-.16,2.24-.47,2.97.52-.83.94-1.62,1.25-2.35.31-.73.47-1.51.47-2.35,0-1.46-.94-2.71-2.82-3.75Zm11.73,20.34c-3.44,1.88-6.94,3.7-10.48,5.48,1.88-.73,3.68-1.49,5.4-2.27,1.72-.78,3.42-1.85,5.09-3.21Zm-8.76-28.01h-1.41c.83.21,1.35.42,1.56.63l-.16-.63Zm-.94-2.97l1.72.78.78-.47-2.5-.94v.63Zm.94-30.35c1.04.52,2.06,1.04,3.05,1.56.99.52,2.06.99,3.21,1.41-.84-.73-1.8-1.33-2.89-1.8s-2.22-.86-3.36-1.17Zm3.6,49.91c.52-.52.89-1.3,1.1-2.35h-1.25c-.52,1.36-1.04,2.5-1.56,3.44l.31-.47,1.41-.63Zm2.03-5.16c.31-.73.47-1.41.47-2.03,0-.94-.37-1.64-1.1-2.11-.73-.47-1.62-1.07-2.66-1.8.42.52.76,1.02,1.02,1.49.26.47.55.97.86,1.49h.47c-.11.11-.16.21-.16.31v.31c0,.11.05.16.16.16h.16v-.63l.78,1.25v1.56Zm3.44-11.89l-5.79-1.41.31.63c.63.11,1.46.23,2.5.39,1.04.16,1.82.5,2.35,1.02l.63-.63Zm-2.97,1.41c-.94-.31-1.88-.47-2.82-.47.31.52.76.94,1.33,1.25.57.31,1.17.57,1.8.78l-.31-1.56Zm-1.25,7.67l-.16.16v-.31c0-.1.02-.18.08-.23s.08-.13.08-.23v.63Zm2.66-35.05c-.52-.1-.99-.26-1.41-.47-.42-.21-.84-.42-1.25-.63.73.73,1.51,1.31,2.35,1.72l1.1-.94-.78.31Zm1.25-.63c.42-.21.65-.44.7-.7.05-.26.24-.55.55-.86l-1.1-.16c-.42,1.15-1.04,1.72-1.88,1.72-.11,0-.18-.02-.23-.08-.05-.05-.13-.08-.24-.08l2.19.16Zm-2.03-6.88c.73.52,1.64,1.17,2.74,1.96,1.1.78,1.64,1.38,1.64,1.8v.31l1.41-1.41-.78-.78c-.42-.94-1.04-1.62-1.88-2.03-.84-.42-1.72-.73-2.66-.94l-.47,1.1Zm3.91,39.43h.31c.83,0,1.41.31,1.72.94l1.56-.16c-.52-.73-.91-1.59-1.17-2.58-.26-.99-.76-1.85-1.49-2.58l-.63.63-.31,3.75Zm2.19,4.07c-.21,2.82-.68,5.53-1.41,8.14.52-.83,1.02-1.69,1.49-2.58.47-.88.7-1.85.7-2.89,0-.73-.26-1.62-.78-2.66Zm.31-44.59c-.21,0-.34-.02-.39-.08-.05-.05-.18-.08-.39-.08l.47.47.31-.31Z"/>
        <path class="cls-1" d="m424.3,33.64c.73,1.04,1.22,2.19,1.49,3.44.26,1.25.39,2.61.39,4.07,0,3.34-.08,6.31-.24,8.92-.16,2.61-.23,5.37-.23,8.29,0,6.88.13,13.79.39,20.73.26,6.94.6,13.85,1.02,20.73.52-.1,1.1-.18,1.72-.23.63-.05,1.2-.08,1.72-.08,1.04,0,2.14.16,3.29.47l1.72-1.1,1.56.63c.52,2.09.91,4.25,1.17,6.49.26,2.24.7,4.41,1.33,6.49l-.63,1.25c-.94.21-2.58.47-4.93.78-2.35.31-4.95.6-7.8.86-2.85.26-5.75.49-8.7.7-2.95.21-5.56.31-7.83.31-3.44,0-5.58-.26-6.41-.78h-.31c-.63-.31-1.2-1.02-1.72-2.11-.52-1.1-.97-2.35-1.33-3.75-.37-1.41-.63-2.84-.78-4.3-.16-1.46-.23-2.71-.23-3.75,0-.73.05-1.25.16-1.56l1.56-.78.94.47c1.46-.73,2.89-1.1,4.3-1.1s2.84-.26,4.3-.78c-.21-1.77-.39-3.57-.54-5.4-.16-1.82-.23-3.73-.23-5.71v-1.1c0-.42.05-.88.16-1.41l-.78-1.88c0-2.82.1-5.74.31-8.76.21-3.02.31-6.05.31-9.07,0-3.23-.34-6.1-1.02-8.6-.68-2.5-1.02-5.01-1.02-7.51,0-.73.05-1.3.16-1.72l-1.56.63-.63.31-1.25-.78-1.1-.63h-1.25c-.42-1.46-.65-3-.7-4.62-.05-1.62-.13-3.26-.23-4.93l.31-.47-.31-1.88h-.31c-.73,0-1.1-.57-1.1-1.72,0-.42.28-.76.86-1.02.57-.26,1.27-.44,2.1-.55.83-.1,1.74-.16,2.72-.16h12.05c1.24,0,2.31-.05,3.19-.16.88-.1,1.99-.16,3.34-.16s2.03.52,2.03,1.56c0,.84-.47,1.31-1.41,1.41Zm-22.69-12.83c-.73-.73-1.1-1.56-1.1-2.5,0-1.04.44-2.09,1.32-3.13.88-1.04,1.99-1.96,3.34-2.74,1.35-.78,2.85-1.41,4.51-1.88,1.66-.47,3.32-.7,4.97-.7,2.18,0,4.35.6,6.53,1.8,2.18,1.2,3.27,3.26,3.27,6.18,0,1.36-.47,2.58-1.4,3.68-.93,1.1-2.1,2.01-3.5,2.74-1.4.73-2.95,1.28-4.66,1.64-1.71.37-3.34.55-4.9.55-2.28,0-4.25-.39-5.9-1.17-1.66-.78-2.49-2.11-2.49-3.99v-.47Zm4.54,91.84l-.78-.63-.47-.94.94-2.19-1.88.16-.31-2.97c.94,0,1.62-.05,2.03-.16l-.16-.78h-2.35c0,1.25.05,2.56.16,3.91.1,1.36.42,2.61.94,3.75l1.88-.16Zm2.19-74.16h-4.85v.31c.83-.1,1.64-.13,2.43-.08.78.05,1.59-.02,2.42-.23Zm-3.91,4.54c.63-.21,1.28-.31,1.96-.31s1.38-.05,2.11-.16l-5.01-.63v.16l.94.94Zm-.31-19.87c1.35,1.04,3.49,1.56,6.41,1.56,1.35,0,2.76-.16,4.22-.47,1.46-.31,2.79-.76,3.99-1.33,1.2-.57,2.16-1.28,2.89-2.11.73-.83,1.1-1.82,1.1-2.97v-.78l-1.56,1.41.31.63-.16,1.41c-.94.94-2.45,1.67-4.54,2.19-2.09.52-4.12.78-6.1.78-1.46,0-2.77-.1-3.91-.31-1.15-.21-2.03-.42-2.66-.63v.63Zm14.24,91.53l-4.69-1.1-3.44,1.25,8.14-.16Zm-6.88-96.85l-.78.47.78.31.16-.16-.16-.63Zm3.75,82.76l-3.6-.47h2.97v.47h.63Zm-.16-8.45v-4.54c0-2.61-.13-5.24-.39-7.9-.26-2.66-.6-5.19-1.02-7.59-.11.21-.16.99-.16,2.35,0,1.25.06,2.77.17,4.54.12,1.77.26,3.52.43,5.24.17,1.72.35,3.31.52,4.77.17,1.46.32,2.5.43,3.13Zm-.78-40.05v1.41c0,2.09.18,4.28.55,6.57.36,2.3.6,4.38.7,6.26,0-2.4.05-4.82.16-7.28.1-2.45.16-4.87.16-7.28l-1.56.31Zm3.75-18.31l2.12-.16c.2.52.43,1.1.68,1.72.25.63.48,1.2.68,1.72l1.36,1.41c.63,5.74.96,11.5,1.02,17.29.05,5.79.08,11.55.08,17.29h-1.1c.21,2.71.36,5.5.47,8.37.1,2.87.42,5.66.94,8.37,0-1.25.02-3.36.08-6.34.05-2.97.08-6.44.08-10.4s-.05-7.95-.15-12.28c-.1-4.33-.25-8.32-.46-11.97-.21-3.65-.54-6.75-.99-9.31-.46-2.55-1.04-4.09-1.76-4.62l.15-1.41-3.21.31Zm.16,71.19l.16.47c.73,0,1.62.11,2.66.31l-.31-.94-.16-.94h-2.19l-.16,1.1Zm2.03-59.14c-.21-1.15-.39-2.29-.55-3.44-.16-1.15-.34-2.29-.55-3.44v.78c0,.84.05,1.7.16,2.58.1.89.16,1.75.16,2.58l-.16,1.25.94-.31Zm.63,41.46c-.38-3.65-.62-7.3-.71-10.95-.1-3.65-.38-7.3-.85-10.95.19,3.65.35,7.33.5,11.03.14,3.7.5,7.33,1.07,10.87Zm1.41,10.48c0,1.36-.31,2.56-.94,3.6l1.25-.31-.31-3.29Zm1.41,9.54v.16c0,.11.05.16.16.16h.16l-.31,2.19c.94-.1,1.88-.16,2.82-.16h2.82c-.31-.1-.63-.29-.94-.55-.31-.26-.57-.49-.78-.7l.31-1.1h-4.22Zm12.52,4.54c-.63.21-1.31.34-2.03.39-.73.05-1.46.13-2.19.23l-1.72,1.41c.94-.31,2.14-.68,3.6-1.1,1.46-.42,2.71-.63,3.75-.63l-.47-1.1-.94.78Z"/>
        <path class="cls-1" d="m439.01,39.74c.21-.31.52-.7.94-1.17.42-.47.84-.81,1.25-1.02,3.13.11,6.23.21,9.31.31,3.08.1,6.13.16,9.15.16,0-2.92.13-5.63.39-8.14.26-2.5.68-4.9,1.25-7.2.57-2.29,1.35-4.59,2.35-6.88.99-2.29,2.27-4.69,3.83-7.2.52-.94,1.46-1.9,2.82-2.89,1.35-.99,2.84-1.93,4.46-2.82,1.62-.89,3.31-1.59,5.08-2.11,1.77-.52,3.39-.78,4.85-.78,1.04,0,1.98.16,2.82.47h.31c.83,0,2.48.44,4.93,1.33,2.45.89,5.01,1.9,7.67,3.05,2.66,1.15,5.06,2.3,7.2,3.44,2.14,1.15,3.36,2.03,3.68,2.66-.94,2.92-1.72,5.53-2.35,7.82-.63,2.3-.94,4.9-.94,7.82v1.41c0,.42.05.89.16,1.41-.42.42-.84.84-1.25,1.25s-.89.63-1.41.63c-.31,0-1.23-.55-2.74-1.64-1.51-1.1-3.34-2.27-5.48-3.52-2.14-1.25-4.41-2.43-6.81-3.52-2.4-1.1-4.59-1.64-6.57-1.64-2.19,0-3.75.84-4.69,2.5-.21.31-.47,1.17-.78,2.58-.31,1.41-.63,2.95-.94,4.62-.31,1.67-.57,3.26-.78,4.77-.21,1.51-.31,2.53-.31,3.05,2.09,0,4.15.05,6.18.16,2.03.11,4.15.16,6.34.16,2.4,0,4.85-.16,7.35-.47l.78.94v-.47l2.82-.31c.42,1.36.63,2.82.63,4.38,0,1.25-.08,2.45-.23,3.6-.16,1.15-.29,2.4-.39,3.75.52,1.46.91,2.95,1.17,4.46.26,1.51.39,3.1.39,4.77l-.78,1.41h-1.25c-1.25,0-3.13-.02-5.63-.08-2.5-.05-5.01-.08-7.51-.08s-4.72-.02-6.65-.08c-1.93-.05-2.95-.08-3.05-.08l3.13,52.26c.63.31.94.73.94,1.25,0,.94-.52,1.51-1.56,1.72l-1.56-.63-1.56,1.25c-.42.1-1.17.21-2.27.31-1.1.1-2.27.18-3.52.23-1.25.05-2.53.1-3.83.16-1.31.05-2.42.08-3.36.08-2.19,0-3.29-.57-3.29-1.72,0-.42.21-.78.63-1.1-.21-.31-.37-1.72-.47-4.22-.11-2.5-.24-5.58-.39-9.23-.16-3.65-.29-7.64-.39-11.97-.11-4.33-.21-8.42-.31-12.28-.11-3.86-.18-7.28-.24-10.25-.05-2.97-.08-4.93-.08-5.87h-15.02l-.31.94-2.97-.16-.16-.78c-.83-.21-1.25-.73-1.25-1.56,0-1.04.42-1.56,1.25-1.56h.31c-.21-.63-.31-1.04-.31-1.25,0-.83.11-1.62.31-2.35.21-.73.31-1.51.31-2.35,0-.21-.02-.36-.08-.47-.05-.1-.08-.26-.08-.47,0-.1.05-.16.16-.16-.21-1.77-.49-3.54-.86-5.32-.36-1.77-.6-3.54-.7-5.32Zm3.44,4.07c.21,0,.44-.02.7-.08.26-.05.49-.08.7-.08v-.78h-1.56l.16.94Zm2.66,4.69h1.25c1.98,0,3.99-.13,6.02-.39,2.03-.26,4.09-.55,6.18-.86h-1.56c-1.88,0-3.78-.08-5.71-.23-1.93-.16-3.83-.23-5.71-.23l-.47,1.72Zm3.75-5.01c.21.11.68.16,1.41.16,1.35,0,2.84-.13,4.46-.39,1.62-.26,3.05-.44,4.3-.55v-.63c-1.88,0-3.78.08-5.71.23-1.93.16-3.83.29-5.71.39l1.25.78Zm2.82,11.42c.52.11,1.07.16,1.64.16h3.29c.57,0,1.17-.05,1.8-.16v-.31l-6.73.31Zm10.33-.16c-.11-.1-.31-.16-.63-.16v.16h.63Zm1.25,35.2c-.52-4.9-.84-9.78-.94-14.63-.11-4.85-.16-9.78-.16-14.78h-.31c.19,5.01.26,9.93.21,14.78-.05,4.85.35,9.73,1.2,14.63Zm1.41-54.92c.21-1.77.36-3.68.47-5.71.1-2.03.36-3.83.78-5.4-.88,2.3-1.57,4.3-2.07,6.02-.5,1.72-.75,3.73-.75,6.02,0,.73.1,1.36.31,1.88l1.25-2.82Zm-1.1,7.04l.31.94.16-.16.16-.78h-.63Zm2.97,69.78v-8.45c-.11-.83-.13-1.77-.08-2.82.05-1.04-.03-1.98-.23-2.82l-.78.16.47.94c0,.63.08,1.7.23,3.21.16,1.51.23,3,.23,4.46,0,1.15-.11,2.19-.31,3.13-.21.94-.68,1.41-1.41,1.41v.78h1.88Zm.47-63.68l.31.78c-.31,0-.47.16-.47.47h1.1l-.16-2.66h-.31l.16.16-.63,1.25Zm1.1,6.1v-1.88h-1.25l.16.94v.94h1.1Zm-1.1,11.89v2.97c.21-.52.39-.99.55-1.41.16-.42.23-.89.23-1.41l-.78-.16Zm.94-8.76l-.78-.16v.16h.78Zm1.1,18.31c-.21,1.25-.31,2.53-.31,3.83v3.83c0,3.97.16,7.88.47,11.73l.78.16v-19.71l-.94.16Zm4.54-56.95c-1.46,2.19-2.66,4.59-3.6,7.2l.47-.16c2.19-2.71,4.59-4.85,7.2-6.41-.52-.1-1.25-.16-2.19-.16s-1.56-.16-1.88-.47Zm-2.19,12.83c1.23-2.4,2.82-4.48,4.76-6.26l-2,.63-2.92,3.91.16,1.72Zm0,11.26c0-.1.05-.21.16-.31l-.16.31Zm4.69-32.23l-.16-.16-.31-.16c-.31,0-.81.52-1.49,1.56-.68,1.04-1.12,1.72-1.33,2.03l3.29-3.29Zm-1.72,60.08c0,2.09.05,4.22.15,6.41.1,2.19.25,4.33.44,6.41l-.59-12.83Zm1.49-24.56h3.56c1.21,0,2.4-.05,3.56-.16l-7.12.16Zm3.19,3.75c.21-.31.58-.57,1.11-.78h-4.3v.78h3.19Zm-2.95,6.41c.31.11.83.16,1.56.16.55,0,1.02-.02,1.41-.08.39-.05.86-.13,1.41-.23v-.63h-4.54l.16.78Zm0,56.01h.63l-.16-.78-.47.78Zm6.1-107.95l-1.1.63c.52,0,1.1-.21,1.72-.63h-.63Zm0,16.43c.42-.1.83-.16,1.25-.16h1.1l-1.56-.47-.78.63Zm2.97-10.17c.94-.21,1.9-.31,2.89-.31h2.74c-1.46-.31-2.87-.47-4.22-.47h-.94l-.47.78Zm10.01,14.08c-1.25-.1-2.01-.57-2.27-1.41-.26-.83-.52-1.67-.78-2.5-.26-.83-.78-1.62-1.56-2.35-.78-.73-2.32-1.1-4.62-1.1.94,0,1.77.31,2.5.94.73.63,1.46,1.38,2.19,2.27.73.89,1.46,1.72,2.19,2.5.73.78,1.51,1.33,2.35,1.64Zm-6.41-6.57l2.97.78c-1.04-.52-2.03-.78-2.97-.78Zm8.29,36.14c-.52,0-.99.05-1.41.16-.42.11-.84.16-1.25.16l-1.41.78h-4.22c1.35.31,2.87.47,4.54.47.73,0,1.46-.02,2.19-.08.73-.05,1.25-.55,1.56-1.49Zm-7.67-2.5c.94,0,1.88-.02,2.82-.08.94-.05,1.82-.13,2.66-.23l-5.48-.94v1.25Zm8.92-34.11c-1.25-.73-2.5-1.3-3.75-1.72-1.25-.42-2.61-.78-4.07-1.1,1.35.52,2.66.99,3.91,1.41,1.25.42,2.55.89,3.91,1.41Zm-2.35,30.82l-.31-1.1-1.25-.16v.31c0,.31-.16.45-.47.39-.31-.05-.63-.02-.94.08l2.97.47Zm7.98-30.2c-.21-.52-.39-1.02-.55-1.49-.16-.47-.39-.91-.7-1.33l-3.29-.31c.73.52,1.49,1.02,2.27,1.49.78.47,1.54,1.02,2.27,1.64Zm-1.1,6.26l.63-1.1-.47-.16c-.31.11-.73.16-1.25.16h-1.25l2.35,1.1Zm1.72,2.82l.63.31.16-1.88c-.11,0-.26.11-.47.31l-.31,1.25Zm.78-7.51l.94,1.56.63-2.5-1.56.94Zm1.72-2.82h-.47l.31,1.41.16-1.41Z"/>
        <path class="cls-1" d="m526.62,153.33c-.21,0-.39.02-.55.08-.16.05-9.54.08-9.75.08-.84,0-1.25-.26-1.25-.78,0-.84.18-1.8.55-2.89.36-1.1.55-2.22.55-3.36,0-1.77-.16-3.57-.47-5.4-.31-1.83-.47-3.36-.47-4.62,0-.84.42-1.36,1.25-1.56-.52-.31-.86-.78-1.02-1.41s-.23-1.2-.23-1.72c0-.63-.03-1.17-.08-1.64-.05-.47.29-.7,1.02-.7.83,0,10.98.16,12.02.47,1.04.31,2.09.47,3.13.47,1.77,0,3.62-.29,5.55-.86,1.93-.57,3.88-.86,5.87-.86,1.35-3.23,2.74-6.41,4.15-9.54,1.41-3.13,2.84-6.31,4.3-9.54l-1.1-1.41-.31-1.72c-3.75-6.26-7.17-12.8-10.25-19.64-3.08-6.83-6.65-13.32-10.72-19.48-1.56-2.4-2.89-4.93-3.99-7.59-1.1-2.66-2.19-5.29-3.29-7.9-1.1-2.61-2.32-5.16-3.68-7.67-1.36-2.5-3.13-4.8-5.32-6.88.21-.21.31-.47.31-.78,0-.42-.11-.89-.31-1.41-.21-.52-.37-.99-.47-1.41l.16-1.88c.1-.1,1.04-.16,2.82-.16,1.35,0,3,.03,4.93.08,1.93.05,3.81.16,5.63.31,1.82.16,3.42.31,4.77.47,1.35.16,2.14.29,2.35.39,5.63,7.51,10.61,15.62,14.94,24.33,4.33,8.71,8.58,17.19,12.75,25.42,2.09-8.45,4.72-16.74,7.9-24.88,3.18-8.14,6.28-16.32,9.31-24.56.21-.1.68-.31,1.41-.63.73-.31,1.35-.47,1.88-.47.31,0,.47.11.47.31,1.98-.21,3.94-.36,5.87-.47,1.93-.1,3.94-.16,6.02-.16h3.75l1.41,1.1c1.04,0,1.56.52,1.56,1.56,0,.11-.03.21-.08.31-.05.11-.08.21-.08.31v1.56c-.84.94-1.59,2.27-2.27,3.99-.68,1.72-1.28,3.52-1.8,5.4-.52,1.88-1.04,3.75-1.56,5.63-.52,1.88-1.1,3.44-1.72,4.69-1.15,2.4-2.37,4.85-3.68,7.35-1.3,2.5-2.48,4.96-3.52,7.35-1.36,3.34-2.5,6.88-3.44,10.64-.94,3.75-2.14,7.35-3.6,10.8-1.25,3.34-2.53,6.65-3.83,9.94-1.31,3.29-2.53,6.6-3.68,9.93-.11,0-.16-.02-.16-.08s-.05-.08-.16-.08c-.21,0-.31.16-.31.47,0,.11.05.16.16.16-1.46,2.92-2.74,5.95-3.83,9.07-1.1,3.13-2.17,6.28-3.21,9.47-1.04,3.18-2.17,6.28-3.36,9.31-1.2,3.02-2.64,5.95-4.3,8.76l-.47,2.97-1.72-.16-1.41.47-.78-.31-2.03.16-1.1.63c-.52,0-1.43.02-2.74.08-1.31.05-2.77.1-4.38.16-1.62.05-3.29.1-5.01.16-1.72.05-3.26.08-4.62.08h-3.13c-.84,0-1.36-.11-1.56-.31Zm-12.36-119.38l-.16.16,1.25.47,2.66,3.91c-.63-1.35-1.1-2.87-1.41-4.54h-2.35Zm5.79,1.88v-1.56h-.47l.47,1.56Zm2.19,4.22c3.75,7.51,7.74,14.92,11.97,22.22,4.22,7.3,8.84,14.29,13.85,20.97-3.55-5.95-6.96-12.13-10.25-18.54-3.29-6.41-6.96-12.49-11.03-18.23-.84-1.04-1.64-2.09-2.42-3.13-.78-1.04-1.49-2.14-2.11-3.29Zm.63-5.16c.31,1.15.83,2.3,1.56,3.44.73,1.15,1.46,2.24,2.19,3.29-.21-.31-.44-.76-.7-1.33-.26-.57-.5-1.2-.7-1.88-.21-.68-.42-1.33-.63-1.96-.21-.63-.31-1.1-.31-1.41l-1.41-.16Zm3.29,99.98c1.25.31,2.66.47,4.22.47s3.21-.16,4.93-.47,3.15-.73,4.3-1.25l.47-.78c-.52-.11-.99-.18-1.41-.23-.42-.05-.84-.08-1.25-.08-1.78,0-3.5.23-5.16.7-1.67.47-3.39.76-5.16.86l-.94.78Zm.63-74.63c1.04,1.88,2.11,3.73,3.21,5.55,1.1,1.83,2.21,3.68,3.36,5.55-1.15-1.88-2.24-3.75-3.29-5.63-1.04-1.88-2.14-3.7-3.29-5.48Zm1.25,90.27l-.16.63-.31.94,1.72.31.31-.94h-.31l-1.25-.94Zm.16-1.56v-.31.31Zm.16-3.29c.83,0,1.67.05,2.5.16.83.1,1.67.21,2.5.31l1.1-1.41c-.94,0-1.85.02-2.74.08-.89.05-1.8.13-2.74.23l-.63-.31v.94Zm.16-3.44c.42-.21,1.04-.34,1.88-.39.83-.05,1.51-.13,2.03-.23-.52-.11-1.02-.16-1.49-.16h-1.49l-.63-.47-.31,1.25Zm3.75-106.08c.63,1.88,1.43,3.89,2.42,6.02.99,2.14,2.09,4.22,3.29,6.26,1.2,2.03,2.48,3.99,3.83,5.87,1.35,1.88,2.66,3.6,3.91,5.16-.52-.94-1.36-2.61-2.5-5.01-1.15-2.4-2.37-4.87-3.68-7.43-1.31-2.55-2.64-4.9-3.99-7.04-1.36-2.14-2.45-3.42-3.29-3.83Zm10.95,114.68c.42-.11.83-.18,1.25-.23.42-.05.83-.18,1.25-.39l-.31-.94c-1.88.21-3.7.44-5.48.7-1.77.26-3.6.55-5.48.86l-.78,1.25c1.15,0,2.53-.23,4.15-.7,1.62-.47,3.05-.7,4.3-.7.52,0,.88.05,1.1.16Zm-8.76-12.52c.52.21.99.36,1.41.47.42.1.89.16,1.41.16l.78-1.72-3.6,1.1Zm4.69-64.77l-4.22-5.48,3.13,5.95,1.1-.47Zm-1.41,73.06h.94c1.46,0,2.63-.13,3.52-.39.88-.26,1.62-.65,2.19-1.17.57-.52,1.07-1.15,1.49-1.88.42-.73.88-1.51,1.41-2.35l-2.82,2.82c-.84.42-1.85.65-3.05.7-1.2.05-2.32.13-3.36.23l-.31,2.03Zm1.88-65.71l1.1.16.63.47-2.5-2.5.78,1.88Zm2.97,60.39l.16-.16-.16.16Zm8.92-41.93c-1.46-2.19-2.84-4.41-4.15-6.65-1.31-2.24-2.84-4.3-4.62-6.18.94,2.09,2.19,4.33,3.75,6.73,1.56,2.4,3.23,4.43,5.01,6.1Zm1.25-23.16c-1.56-2.19-2.97-4.43-4.22-6.73-1.25-2.29-2.76-4.48-4.54-6.57,2.61,4.07,5.08,8.19,7.43,12.36,2.35,4.17,4.98,8.14,7.9,11.89h.16c0-.1-.03-.18-.08-.23-.05-.05-.08-.13-.08-.23l-1.41-2.82c-.84-1.46-1.56-3.1-2.19-4.93-.63-1.82-1.41-3.42-2.35-4.77l-.63,2.03Zm-2.97,51.79c-.63.94-1.2,1.82-1.72,2.66-.52.83-1.04,1.72-1.56,2.66l3.29-5.32Zm-2.19-40.05c1.46,1.88,2.74,3.86,3.83,5.95,1.1,2.09,2.32,4.12,3.68,6.1,0-.63-.26-1.49-.78-2.58-.52-1.1-1.17-2.21-1.96-3.36-.78-1.15-1.59-2.27-2.42-3.36-.84-1.1-1.62-2.01-2.35-2.74Zm1.72,41.3v-.16c-.11,0-.16.02-.16.08s.05.08.16.08Zm1.1,16.9c-.11.1-.16.18-.16.23s-.05.13-.16.23c.1,0,.21.05.31.16v-.63Zm4.22-25.97c-.52.63-.94,1.25-1.25,1.88-.31.63-.63,1.3-.94,2.03l2.19-3.91Zm.16-5.16c0-.42-.21-.63-.63-.63l-1.25,2.66,1.88-2.03Zm-1.72-41.46c0,.21.1.42.31.63,0-.21-.11-.42-.31-.63Zm2.19,67.9c-.52.94-.99,1.85-1.41,2.74-.42.89-.63,1.9-.63,3.05.63-.84,1.15-1.67,1.56-2.5.42-.84.88-1.67,1.41-2.5l-.94-.78Zm-.31-5.48l-1.1,2.5,1.88-2.66-.78.16Zm.31-42.71c.31.42.6.84.86,1.25.26.42.49.89.7,1.41l1.72-5.79-.78-.31-1.1-1.41,1.25,1.88c.21.63.31.99.31,1.1,0,.73-.52,1.1-1.56,1.1-.52,0-.89-.1-1.1-.31l-.31,1.1Zm2.35,38.8c-.21,0-.42.21-.63.63l-.31,1.1.94-1.72Zm-.31-29.26c.52-.63.96-1.49,1.33-2.58.36-1.1.55-2.06.55-2.89-.31.94-.6,1.88-.86,2.82-.26.94-.6,1.83-1.02,2.66Zm4.69,11.73l-.63,1.25,1.25-1.56-.63.31Zm.94-.78l1.1-1.41-1.1.16v1.25Zm1.1-33.64c2.82-7.4,5.45-14.78,7.9-22.14,2.45-7.35,4.98-14.79,7.59-22.29h-.31c-1.04,2.3-2.3,5.45-3.75,9.47-1.46,4.02-2.95,8.21-4.46,12.59-1.51,4.38-2.89,8.61-4.15,12.67-1.25,4.07-2.19,7.3-2.82,9.7Zm2.35,29.1h-.47c-.63,0-.99-.26-1.1-.78l-.63,1.25,2.19-.47Zm10.8-43.49c-1.78,4.38-3.55,8.76-5.32,13.14-1.77,4.38-3.39,8.87-4.85,13.46,2.09-4.38,3.94-8.76,5.55-13.14,1.62-4.38,3.15-8.86,4.62-13.46Zm-9.23,39.9c-.11.31-.16.73-.16,1.25l.63-1.25-.16-.31-.31.31Zm2.03-3.91c.42-1.46.81-2.95,1.17-4.46.36-1.51.7-3.05,1.02-4.62l-3.44,7.04,1.25,2.03Zm6.41-43.34c-.84,1.98-1.64,3.99-2.43,6.02s-1.43,4.09-1.96,6.18c1.98-4.9,3.91-9.75,5.79-14.55,1.88-4.8,3.7-9.7,5.48-14.71-1.46,2.4-2.61,4.98-3.44,7.74-.84,2.77-1.77,5.45-2.82,8.06l.16-.63c0,.1-.13.42-.39.94-.26.52-.39.84-.39.94Zm-1.25,36.45c1.46-2.71,2.63-5.61,3.52-8.68.88-3.08,1.59-6.13,2.11-9.15l-1.25,2.5.63-1.56c-1.15,2.71-2.09,5.48-2.82,8.29-.73,2.82-1.46,5.69-2.19,8.61Zm1.72-37.39c-.11.1-.18.23-.23.39-.05.16-.13.29-.23.39l.47-.78Zm5.79-21.9c-.21.52-.39,1.07-.55,1.64-.16.57-.34,1.12-.55,1.64.73-1.35,1.62-2.55,2.66-3.6l-1.56.31Zm11.26.16c-1.78,2.61-3.26,5.55-4.46,8.84-1.2,3.29-2.42,6.44-3.68,9.47,1.15-1.88,2.14-4.12,2.97-6.73.83-2.61,1.93-4.69,3.29-6.26l2.35-6.1h-.31l-.16.78Zm-4.54-.78c-.52,1.15-.97,2.32-1.33,3.52-.37,1.2-.7,2.37-1.02,3.52.52-1.15,1.1-2.32,1.72-3.52.63-1.2,1.3-2.37,2.03-3.52h-1.41Zm1.88,16.43c-.63,2.19-1.46,4.07-2.5,5.63.63-.94,1.15-1.82,1.56-2.66.42-.83.73-1.82.94-2.97Z"/>
      </g>
      <g>
        <path class="cls-1" d="m269.81,169.13l25.15,14.73-41.18,20.16,16.03-34.89Zm2.29-2.1l124.23-31.77-65.19,66.52-59.05-34.75Zm-26.87-16.7l141.36-16.2-118.18,30.84-17.33,36.81-5.86-51.45Zm-40.6-12.61l166.32-4.56-126.46,14.92-39.87-10.36Z"/>
        <path class="cls-2" d="m365.41,133.55l-120.9,14.26-38.11-9.9,159.01-4.36m17.7,1.22l-114.65,29.92-.23.06-.1.21-16.9,35.91-5.73-50.32,137.6-15.77m12.42.95l-64.42,65.74-58.36-34.35,122.78-31.4m-125.61,33.76l24.51,14.36-40.13,19.64,15.62-34m106.58-36.74l-173.64,4.76,41.62,10.81,132.02-15.58h0Zm13.59.72l-145.13,16.63,5.99,52.57,17.65-37.5,121.49-31.7h0Zm7.05,1.32l-125.69,32.14,59.74,35.16,65.95-67.3h0Zm-127.44,33.98l-16.44,35.78,42.23-20.67-25.79-15.11h0Z"/>
      </g>
    </g>
  </g>
</svg>