<?xml version="1.0" encoding="UTF-8"?>
<svg id="Layer_2" data-name="Layer 2" xmlns="http://www.w3.org/2000/svg" viewBox="0 0 144 47.36">
  <defs>
    <style>
      .cls-1, .cls-2 {
        stroke-width: 0px;
      }

      .cls-2 {
        fill: #fff;
      }
    </style>
  </defs>
  <g id="Layer_1-2" data-name="Layer 1">
    <g>
      <g>
        <path class="cls-1" d="m8.37,12.02c-.35.13-.75.28-1.2.47-.45.19-.81.41-1.09.66-.28.23-.55.58-.83,1.05-.28.48-.52.98-.73,1.52-.21.54-.39,1.08-.53,1.61-.14.54-.21.98-.21,1.33.05.9.24,1.66.58,2.27.34.61.78,1.13,1.31,1.56.54.43,1.15.79,1.84,1.09.69.3,1.4.59,2.12.86.55,0,1.21-.08,1.97-.24.76-.16,1.51-.41,2.25-.73.74-.33,1.39-.73,1.95-1.2.56-.48.92-1.03,1.07-1.65l-.04-.08c.05-.2.11-.34.19-.41.05.03.14.07.26.13.12.06.19.12.19.17v.04c.2.25.43.44.69.58.26.14.53.28.79.43.26.15.5.34.71.56.21.23.36.53.43.9l-.34.38.04.3c-.4.55-.88,1-1.45,1.35-.56.35-1.11.71-1.63,1.09-.25.2-.48.4-.69.6-.21.2-.46.36-.73.49-.28.13-.58.22-.9.28-.33.06-.64.12-.94.17-1.05.2-1.9.36-2.53.49-.64.12-1.26.19-1.86.19-.53,0-1.09-.06-1.69-.19-.6-.13-1.35-.33-2.25-.6-.5-.15-1.01-.44-1.54-.86-.53-.43-1.01-.91-1.46-1.46-.45-.55-.83-1.13-1.13-1.73s-.49-1.16-.56-1.69c-.05-.58-.14-1.18-.26-1.8-.13-.63-.19-1.24-.19-1.84,0-.48.05-1.09.15-1.84.1-.75.26-1.51.49-2.29.23-.78.52-1.51.88-2.2.36-.69.82-1.22,1.37-1.6.53-.35,1.04-.71,1.56-1.09.51-.38,1.07-.66,1.67-.86.73-.23,1.46-.4,2.22-.53.75-.12,1.51-.19,2.29-.19,1.35,0,2.67.21,3.94.62,1.28.41,2.39,1.1,3.34,2.05.2.2.44.43.71.69.28.26.41.53.41.81,0,.25-.12.47-.36.66-.24.19-.43.38-.58.58-.13.15-.25.34-.38.58-.13.24-.26.47-.39.69-.14.23-.29.42-.45.58-.16.16-.33.24-.51.24-.2,0-.44-.11-.71-.32-.28-.21-.56-.46-.86-.73-.3-.28-.6-.54-.9-.81-.3-.26-.58-.44-.83-.54-.73-.28-1.5-.44-2.31-.51-.81-.06-1.61-.09-2.38-.09ZM.49,19.79l.41.04v-.56h-.45l.04.53Zm0-3.12c.12-.45.23-.91.3-1.39.08-.48.17-.94.3-1.39-.15.45-.28.91-.38,1.37-.1.46-.18.93-.23,1.41Zm.75,4.58c.05.18.09.34.11.51.02.16.08.31.15.43l.19-.23c-.13-.1-.19-.21-.21-.34-.01-.12-.02-.26-.02-.41l-.23.04Zm.38-3.72s.02-.11.06-.26c.04-.15.08-.31.13-.49.05-.17.12-.4.23-.68-.1.25-.19.49-.28.71-.09.23-.13.46-.13.71Zm.34,5.71c-.1-.05-.16-.12-.19-.23l.19.23Zm.23-2.4l.04.11v-.3l-.04.19Zm.3,2.93c.02.08.09.19.19.34l-.08-.23-.11-.11Zm.19-12.69c.4-.38.84-.71,1.33-1,.49-.29.98-.54,1.48-.77l.11-.19.53-.34c-.68.23-1.31.53-1.9.9-.59.38-1.11.84-1.56,1.39Zm2.74-.08c-.2.08-.44.2-.71.38-.28.18-.54.38-.81.6s-.49.46-.69.69c-.2.24-.33.47-.38.69.43-.5.82-.94,1.18-1.33.36-.39.83-.73,1.41-1.03Zm-2.25,4.62c-.13.45-.21.93-.24,1.43-.04.5-.06.99-.06,1.46.05-.5.11-.98.19-1.45.08-.46.11-.94.11-1.45Zm1.73,7.1c-.48-.48-.84-1.01-1.09-1.6-.25-.59-.46-1.2-.64-1.82,0,.05,0,.09-.02.13-.01.04-.02.08-.02.13,0,.58.19,1.16.56,1.75.38.59.78,1.06,1.2,1.41Zm1.39-12.92c-.5.2-.99.41-1.46.64-.48.23-.91.51-1.31.86.43-.3.89-.54,1.39-.73.5-.19,1.01-.36,1.54-.51l-.15-.26Zm.38,16.56c-.53-.33-1.03-.64-1.52-.96-.49-.31-1.01-.61-1.56-.88.2.33.43.61.68.86h.19c.35.23.7.43,1.05.62.35.19.74.31,1.16.36Zm-2.52-11.98l-.3.23c-.05.1-.1.21-.15.34-.05.13-.08.25-.08.38l.53-.94Zm.15,8.82c.08.18.16.34.24.51.09.16.21.32.36.47l.34.11.11-.23-1.05-.86Zm.26-10.21l.19-.15-.11.04-.08.11Zm2.97-1.88c-.45.15-.88.33-1.28.53-.4.2-.78.45-1.13.75l.04.08c.38-.28.76-.5,1.16-.68.4-.17.8-.4,1.2-.68Zm-.83,13.25l.3.04-.34-.15.04.11Zm.83,1.09c.17.08.42.13.73.17.31.04.62.06.92.06.43,0,.75-.04.98-.11-.45-.02-.9-.04-1.33-.04s-.87-.02-1.3-.08Zm4.17-15.77h-.68c-.58,0-1.14.02-1.69.06-.55.04-1.11.08-1.69.13v.08c.17.03.34.04.51.06.16.01.33.02.51.02.53,0,1.03-.04,1.5-.11.48-.08.99-.15,1.54-.23Zm-3.12,17.84l.08-.08h-.86l.79.08Zm-.64-18.47c.83-.15,1.66-.23,2.52-.23h.53c-.28-.05-.54-.09-.81-.11-.26-.02-.53-.04-.81-.04-.43,0-.91.06-1.46.19l.04.19Zm4.66,16.71c-.63.2-1.25.35-1.88.45-.63.1-1.26.24-1.91.41.02.05.08.08.15.08.6-.05,1.22-.17,1.86-.36.64-.19,1.23-.38,1.78-.58Zm.23.71c-.28.08-.54.16-.79.26-.25.1-.5.18-.75.23.28-.05.56-.12.86-.21.3-.09.59-.17.86-.24-.1,0-.16-.01-.19-.04Zm-1.13-15.51c-.1-.02-.23-.04-.38-.04l.38.04Zm2.4-.71c-.1,0-.18,0-.24-.02-.06-.01-.14-.02-.24-.02-.2,0-.41.01-.62.04-.21.03-.42.05-.62.08.8.15,1.56.37,2.29.66.73.29,1.3.82,1.73,1.6,0,.05.02.08.08.08.1,0,.15-.04.15-.11-.1-.28-.23-.53-.38-.75-.15-.23-.34-.43-.56-.6-.13,0-.25-.02-.38-.08-.13-.05-.2-.14-.23-.26-.15-.05-.35-.09-.6-.13-.25-.04-.38-.17-.38-.39v-.08Zm-1.24,14.27c.35-.12.69-.27,1.03-.43.34-.16.66-.36.96-.58-.35.18-.68.36-1,.54-.31.19-.64.34-1,.47Zm3.75.11c-.5.3-1.01.58-1.54.83-.53.25-1.04.51-1.54.79l.38.19c.12-.05.26-.09.39-.13.14-.04.27-.08.39-.13h-.08c-.08,0-.11-.01-.11-.04,0-.05.06-.1.19-.15.12-.05.27-.11.43-.17.16-.06.33-.12.49-.17.16-.05.28-.09.36-.11l.34-.19.04-.49.26-.23Zm-2.22-12.35c.05.05.12.1.23.15.1.05.17.09.23.11l-.45-.26Zm1.5,1.2l.08-.15c-.28-.23-.53-.39-.75-.49l.68.64Zm2.55,8.37l-.04.23c-.45.43-.91.83-1.37,1.2-.46.38-.95.74-1.45,1.09.1-.08.33-.23.68-.47.35-.24.71-.49,1.09-.75.38-.26.71-.49,1.01-.69.3-.2.46-.3.49-.3l-.41-.3Zm-2.22.64l-.41.34h.11l.3-.34Zm.08-8.15l.3-.41-.11-.15-.3.49.11.08Zm.83-1.13l.04-.34c-.03.15-.04.24-.06.26-.01.03,0,.05.02.08Zm.71,8.37s.05-.01.08-.04l-.04-.04-.04.08Zm1.58,1.16c-.08-.1-.14-.19-.21-.28-.06-.09-.14-.17-.24-.24l.08.41.11.19.26-.08Z"/>
        <path class="cls-1" d="m30.87,27.86c-.53.08-1.01.11-1.46.11-1.35,0-2.55-.28-3.6-.83-1.05-.55-1.93-1.29-2.65-2.2s-1.25-1.96-1.61-3.12c-.36-1.17-.54-2.36-.54-3.59,0-1.3.21-2.58.62-3.84.41-1.25,1.05-2.38,1.91-3.37.86-.99,1.95-1.79,3.27-2.41,1.31-.61,2.87-.92,4.67-.92,1.58,0,2.94.24,4.09.73,1.15.49,2.11,1.17,2.87,2.03.76.87,1.33,1.88,1.69,3.05.36,1.17.54,2.43.54,3.78,0,1.5-.24,2.96-.71,4.36-.48,1.4-1.19,2.61-2.14,3.61-.23.23-.6.5-1.13.81s-1.1.61-1.73.9c-.63.29-1.26.53-1.9.71-.64.19-1.18.28-1.63.28-.23,0-.41-.04-.56-.11Zm-5.78-2.07c-.6-.63-1.11-1.28-1.54-1.97-.43-.69-.8-1.43-1.13-2.23h-.04c-.13,0-.21-.02-.26-.08.2,1.05.53,1.88.98,2.5.45.61,1.11,1.21,1.99,1.78Zm-2.33-8.67h-.26l.04.26h.23v-.26Zm.04,2.18l.08.26-.08-.83v.56Zm.3-3.83l-.26.41s.07-.09.13-.19c.06-.1.11-.17.13-.23Zm-.11-.34l.11.34c.12-.33.24-.64.34-.96.1-.31.21-.64.34-1-.13.15-.24.3-.36.45-.11.15-.22.31-.32.49l-.11.68Zm.83,5.44c-.03-.1-.04-.25-.04-.45s.01-.35.04-.45c-.1.23-.15.41-.15.56,0,.05,0,.1.02.15.01.05.06.11.13.19Zm.53-4.81c-.05.15-.12.3-.21.45-.09.15-.18.29-.28.41.12-.15.23-.29.32-.41.09-.12.14-.28.17-.45Zm.23,6.5c-.05-.15-.11-.31-.17-.49-.06-.17-.09-.36-.09-.56l-.34-.11.3.9.3.26Zm-.53-8.15l-.04.04s0,.04.02.06c.01.01.02.03.02.06l.11-.04-.11-.26v.15Zm.56,0c-.05.2-.1.38-.15.54-.05.16-.13.32-.23.47l.3.08.23-.86-.15-.23Zm-.04-1.43c.1-.17.2-.34.3-.49.1-.15.21-.29.34-.41l-.3-.19-.41.79.08.3Zm.68,9.65c-.05-.05-.07-.08-.06-.09.01-.01,0-.04-.06-.09l-.15.04.26.3v-.15Zm.68-11.94c-.33.2-.6.41-.83.64h.11l.71-.64Zm.45,1.95l-.04-.34c-.23.25-.43.53-.6.83-.18.3-.34.59-.49.86.12-.12.26-.24.41-.34.15-.1.29-.21.41-.34l.3-.68Zm-1.05,8.41v-.15c-.03.05-.04.11-.04.19s.01.14.04.19v-.23Zm.34.6c-.13-.08-.24-.2-.34-.38.05.35.12.68.23,1,.1.31.2.64.3,1,.02-.12.05-.26.08-.41.02-.15.04-.29.04-.41v-.11l-.3-.68Zm2.74,3.64c-.23-.2-.46-.37-.69-.51-.24-.14-.48-.29-.73-.47l.08.19-.15.41-.53.04c-.35-.2-.68-.48-.98-.83l.26.45v.19l.38.34.04-.15c.38.08.75.16,1.13.24.38.09.75.16,1.13.21l.08-.11Zm6.12-12.88c-1.13-.5-2.25-.75-3.38-.75-.65,0-1.31.1-1.99.3s-1.29.51-1.84.94c-.55.43-1,.97-1.35,1.64-.35.67-.53,1.46-.53,2.39,0,.83.14,1.68.43,2.56.29.88.68,1.68,1.18,2.41.5.73,1.09,1.32,1.78,1.79.69.46,1.43.7,2.23.7.85-.02,1.63-.28,2.33-.75.7-.48,1.3-1.07,1.8-1.79.5-.72.89-1.51,1.16-2.37.28-.87.41-1.73.41-2.58,0-.53-.04-.98-.13-1.36-.09-.38-.22-.73-.39-1.07-.18-.34-.41-.67-.69-.98-.29-.31-.63-.67-1.03-1.07Zm-8.37,13.67v-.08c-.15-.05-.26-.1-.34-.15l.34.23Zm.19-13.78s.09-.09.11-.13c.02-.04.06-.07.11-.09l.04-.11-.26.34Zm2.55-2.14c-.2,0-.39,0-.58-.02-.19-.01-.38-.03-.58-.06.2.1.44.15.71.15.23,0,.38-.02.45-.08Zm2.22-.94c-.13-.12-.39-.19-.79-.19-.35,0-.73.04-1.13.12-.4.08-.66.15-.79.22h1.09c.28,0,.54,0,.81-.02.26-.01.53-.06.81-.13Zm.23,17.12c-.2,0-.4,0-.6-.02-.2-.01-.4-.03-.6-.06.2.1.44.15.71.15.23,0,.39-.02.49-.08Zm-.53-.79h1.09c.28,0,.54,0,.81-.02.26-.01.53-.06.81-.13l1.16-.79-.53.23-.19-.19c-.53.13-1.05.28-1.58.45-.53.18-1.05.33-1.58.45Zm1.69-14.94h.11l-.04-.04-.08.04Zm1.13,16.33c-.13.08-.27.13-.43.17-.16.04-.32.07-.47.09l-.04.15-.15.11c.23,0,.44-.06.66-.19.21-.12.39-.24.54-.34h-.11Zm-.3-17.08l.08-.36.19-.07c-.08-.05-.16-.1-.26-.16-.1-.06-.2-.09-.3-.09l.15.6.15.07Zm2.44,15.4c-.25.15-.49.29-.71.43-.23.14-.45.27-.68.39.2-.05.38-.09.54-.13.16-.04.34-.09.54-.17v-.04l.3-.49Zm1.46-12.28c-.23-.35-.45-.61-.68-.77-.23-.16-.53-.33-.9-.51.25.25.5.48.75.69.25.21.53.41.83.58Zm-.83,11.38c.28-.38.49-.73.64-1.05.15-.33.27-.66.36-1,.09-.34.16-.68.23-1.03.06-.35.14-.74.24-1.16-.08.08-.13.21-.15.39-.03.19-.06.38-.09.58-.04.2-.08.39-.11.56-.04.18-.09.3-.17.38-.25.75-.64,1.44-1.16,2.07l.23.26Zm.9-13.74l-.98-.49.04-.11c.53.38,1,.89,1.43,1.54.43.65.86,1.21,1.31,1.69l-1.8-2.63Zm-.64,2.89c.12.13.23.28.3.45.08.18.15.36.23.56l.3-.11c.17.33.34.66.49,1.01.15.35.32.68.53.98-.08-.43-.16-.84-.24-1.26-.09-.41-.23-.83-.43-1.26l-.19.08c-.28-.1-.6-.25-.98-.45Zm.71,3.94c-.03.28-.04.56-.04.84s-.04.56-.11.81l.08-.04c.05-.28.08-.54.08-.81v-.81Zm.15,6.57c.28-.23.45-.41.53-.56.08-.15.17-.41.3-.79-.15.23-.29.44-.43.66-.14.21-.27.44-.39.69Zm1.05-5.29c.08-.33.14-.65.19-.98.05-.33.1-.66.15-1.01-.13.23-.23.39-.3.51-.08.11-.13.21-.15.3-.03.09-.04.19-.04.3v.54l.15.34Zm-.08.23l-.08.04v.15c.05-.08.1-.21.15-.41l-.08.23Zm.83-1.43l.15-.04-.15-.26-.04.15.04.15Zm.6,1.58c-.13.4-.25.7-.38.9.25-.25.38-.55.38-.9Zm0-1.69c-.05.18-.09.36-.11.54-.03.19-.06.37-.11.54l.34.08v-.94l-.11-.23Z"/>
        <path class="cls-1" d="m56.66,8.07c.43-.25.79-.42,1.11-.51.31-.09.63-.13.96-.13.55,0,1.2.13,1.95.38.05.15.08.43.08.83,0,.38-.02.85-.06,1.43-.04.58-.08,1.17-.11,1.78-.04.61-.08,1.21-.11,1.78-.04.58-.06,1.06-.06,1.46,0,.15.01.28.04.39.02.11.04.21.04.28,0,.03,0,.04-.02.06-.01.01-.02.03-.02.06.12.58.22,1.21.28,1.9.06.69.09,1.36.09,2.01,0,.43,0,.83-.02,1.22-.01.39-.02.78-.02,1.18,0,.85.03,1.68.09,2.5.06.81.16,1.65.28,2.5v.11c0,.3-.1.45-.3.45-.15,0-.28-.09-.38-.26v-.04c-.6.2-1.21.29-1.82.28-.61-.01-1.23,0-1.86.02l-.41-.19.38-.45c-.08-.28-.11-.61-.09-1.01.01-.4,0-.76-.06-1.09-.73.93-1.63,1.59-2.7,1.99-1.08.4-2.2.6-3.38.6-2.13,0-3.79-.43-4.98-1.28-1.19-.85-2.08-1.97-2.67-3.36-.59-1.39-.95-2.98-1.09-4.77-.14-1.79-.21-3.61-.21-5.46,0-.4,0-.79.02-1.18.01-.39.02-.76.02-1.11,0-.3,0-.6-.02-.9-.01-.3-.02-.59-.02-.86l-.38-.04v-.68h.08c.05-.02.11-.04.19-.04s.11-.02.11-.08c-.03,0-.04-.01-.04-.04l.68-.08.04.11c.35,0,.76-.05,1.22-.15.46-.1.91-.15,1.33-.15.33,0,.66.08,1.01.23.35.15.53.3.53.45,0,1.08-.05,2.22-.15,3.44-.1,1.21-.15,2.45-.15,3.7,0,.75.05,1.61.15,2.57.1.96.29,1.88.58,2.74.29.86.69,1.59,1.22,2.18.53.59,1.23.88,2.1.88.7,0,1.43-.24,2.2-.73.76-.49,1.46-1.12,2.08-1.9.63-.78,1.14-1.65,1.54-2.61.4-.96.6-1.93.6-2.91,0-.3-.03-.58-.09-.84-.06-.26-.09-.54-.09-.84,0-.12.01-.27.04-.43.02-.16.04-.42.04-.77s0-.75-.02-1.2c-.01-.45-.04-.88-.08-1.3-.04-.41-.08-.78-.13-1.09-.05-.31-.1-.53-.15-.66,0-.05,0-.11.02-.19.01-.08.02-.14.02-.19.05.03.14.04.26.04.15,0,.25-.01.3-.04Zm-14.01,4.92v-1.82c0-.24.01-.49.04-.77-.14.38-.23.73-.27,1.07-.05.34-.07.68-.07,1.03v.56c0,.18.01.36.04.56l.04-.41.23-.23Zm-.23,1.95c.02.5.05.99.08,1.46.02.48.06.96.11,1.46l.19-.11c-.08-.48-.14-.95-.21-1.43-.06-.48-.12-.94-.17-1.39Zm.38-5.82l.11-.34-.15.23.04.11Zm0,10.4c.05.38.11.75.17,1.11.06.36.16.73.28,1.11v-.08c0-.28.1-.46.3-.56,0-.05-.03-.14-.09-.28-.06-.14-.14-.29-.23-.47-.09-.17-.18-.34-.26-.49-.09-.15-.14-.26-.17-.34Zm1.31-9.91c.05-.15.09-.31.13-.47.04-.16.08-.33.13-.51l-.45-.26-.94.15-.08.19c.15-.1.26-.15.34-.15.1,0,.19.08.26.23.15-.15.29-.23.41-.23.17,0,.26.09.26.26,0,.1-.03.18-.08.23v.56Zm-.75,1.35c-.03-.2-.04-.39-.06-.56-.01-.17-.02-.36-.02-.56-.03.28-.04.54-.04.79v.75l.11-.41Zm-.11,2.14c.02.43.05.84.08,1.26.02.41.08.83.15,1.26l.08-.15c-.05-.43-.09-.87-.13-1.33-.04-.46-.06-.91-.06-1.33l-.11.3Zm0,3.94c.12,1,.32,1.95.58,2.85.26.9.74,1.74,1.45,2.52-.48-.78-.91-1.64-1.3-2.59-.39-.95-.63-1.88-.73-2.78Zm.08,5.03c.1.28.19.55.28.83.09.28.19.54.32.79l.34.23c.02.15.14.33.36.53.21.2.44.4.69.6.25.2.5.38.75.54.25.16.45.28.6.36.95.55,1.96.83,3.04.83.85,0,1.7-.18,2.55-.55-.48.12-1.01.18-1.61.18-.68,0-1.36-.08-2.07-.23l-.3.19c-.48-.1-.96-.29-1.46-.58-.5-.29-.98-.63-1.43-1.03-.45-.4-.86-.83-1.24-1.3-.38-.46-.65-.92-.83-1.37Zm.71-11.19s-.04.06-.04.11l.04-.11Zm1.35,10.48c-.25-.58-.41-1.17-.49-1.78-.08-.61-.21-1.21-.41-1.78l-.41-.19c.12.53.28,1.05.45,1.56.17.51.36,1.03.56,1.56v-.08l.3.71Zm-.38-10.29c-.05.45-.09.9-.13,1.35-.04.45-.06.9-.06,1.35,0,.5.01,1,.04,1.48.02.49.06.98.11,1.48l.23.04c0-.95-.03-1.9-.08-2.85-.05-.95-.09-1.9-.11-2.85Zm0-2.74l-.04.11.19-.11h-.15Zm.38.94l.19.15c.02-.1.04-.19.06-.26.01-.08.02-.16.02-.26l-.15.08-.11.3Zm2.14,15.4c-.1.1-.23.15-.38.15s-.24-.06-.26-.19h-.26l-.08.15.26.22c.7.22,1.36.39,1.99.52.63.13,1.29.2,1.99.2.2,0,.41-.02.62-.06.21-.04.42-.06.62-.06-.18,0-.49-.03-.94-.09-.45-.06-.92-.13-1.41-.22-.49-.09-.95-.19-1.37-.29-.43-.1-.69-.22-.79-.34Zm0-.38c-.08-.02-.16-.09-.26-.19.05.05.09.1.11.15.02.05.06.1.11.15l.04-.11Zm.26-.6c.15.15.34.3.56.45l-.56-.45Zm2.1.79c.2.13.41.19.64.19.15,0,.29-.01.43-.04.14-.02.28-.06.43-.11-.18,0-.35,0-.53.02-.18.01-.34.02-.49.02-.1,0-.19-.01-.26-.04-.08-.02-.15-.04-.23-.04Zm2.37-.64c.25-.12.49-.25.71-.38.23-.12.46-.25.71-.38l.68-.98c-.35.35-.72.66-1.11.94-.39.28-.79.54-1.22.79h.23Zm2.52,1.8c-.8.55-1.64.97-2.52,1.26.17-.02.4-.09.68-.19.28-.1.56-.21.84-.33.29-.12.56-.26.81-.41.25-.15.44-.28.56-.41l-.38.07Zm1.58-4.28c-.35.35-.72.7-1.11,1.05-.39.35-.73.7-1.03,1.05.02,0,.04,0,.06.02.01.01.04.02.09.02.17,0,.36-.06.54-.17s.37-.24.54-.39c.17-.15.34-.31.49-.47.15-.16.26-.29.34-.39,0-.12,0-.24.02-.36.01-.11.03-.23.06-.36Zm-.04,1.69c-.23.3-.48.56-.75.77-.28.21-.58.42-.9.62.35-.12.66-.26.92-.41s.53-.36.81-.64l-.08-.34Zm-.41,1.69c-.05.03-.09.05-.11.08-.03.03-.06.05-.11.08.12,0,.2-.05.23-.15Zm.45-5.67c0,.05-.01.09-.04.11l.04-.11Zm.19,2.07l.19-.04v-.26l-.19.3Zm.34,1.13l.64.94-.56-.38-.08-.56Zm.56-8.49c-.08.65-.15,1.35-.23,2.1-.08.75-.11,1.5-.11,2.25,0,.48.02.94.06,1.39.04.45.12.86.24,1.24l.04-6.98Zm-.04,13.4l.49-.08h-.15l-.19-.19-.15.27Zm.26-17.79l.04-.23s-.05,0-.08.02c-.03.01-.06.02-.11.02v.08l.15.11Zm.68-.56c-.08.5-.14,1.01-.19,1.52-.05.51-.18,1-.38,1.45l.26.3v5.37c.02-.78.09-1.55.21-2.33.11-.78.17-1.56.17-2.37,0-.38-.02-.75-.06-1.13s-.06-.74-.06-1.09c0-.28.02-.56.08-.84.05-.29.14-.61.26-.96l-.3.08Zm0,18.21c-.08-.13-.13-.26-.15-.41-.03-.14-.04-.29-.04-.44,0-.08,0-.15.02-.21.01-.06.02-.13.02-.21l-.08-.08v1.15c-.03.05-.1.14-.23.27l.45-.07Zm.11-4.06l-.11-.34c0,.18.04.29.11.34Zm.23-1.91c.02.28.07.53.13.77.06.24.13.49.21.77-.05-.95-.11-1.92-.17-2.89-.06-.98-.09-1.94-.09-2.89-.05.45-.08.9-.08,1.33s-.03.9-.08,1.37l.08.26c-.08.13-.13.29-.15.51-.03.21-.04.38-.04.51l.19.26Zm.75,5.78l-.08-.11c-.13-.6-.2-1.19-.23-1.76l-.11-.11c-.1.23-.15.49-.15.79,0,.2.02.41.06.62.04.21.08.42.13.62l.38-.04Zm-.04-16.67c-.1.6-.17,1.21-.21,1.82-.04.61-.06,1.25-.06,1.9,0,1.8.1,3.61.3,5.43.2,1.82.36,3.57.49,5.28v-.49c0-.95-.08-1.88-.24-2.78-.16-.9-.24-1.84-.24-2.82,0-.88.02-1.75.08-2.63.05-.88.08-1.75.08-2.63,0-.5-.01-1.01-.04-1.54-.03-.53-.08-1.04-.15-1.54Zm.3-1.58l.15.38s.05-.11.08-.17c.02-.06.06-.12.11-.17l-.34-.04Zm.26,17.27s0,.04-.02.06c-.01.01-.02.03-.02.06,0,.1.04.16.11.19l-.04.53c0,.05.01.08.04.08.05,0,.1-.03.15-.09.05-.06.1-.11.15-.13v-1.05l-.19.3-.19.08Zm.26-17.31s-.05.04-.08.04l.08-.04Zm-.04,8.6c-.03.3-.04.6-.04.9v.86c0,.93.04,1.84.11,2.74.05-.12.08-.28.08-.47v-.62c0-.58-.02-1.2-.06-1.88-.04-.68-.07-1.19-.09-1.54Z"/>
        <path class="cls-1" d="m69.32,7.47c.2.03.33.12.38.28.05.16.08.34.08.54,0,.13,0,.25-.02.38-.01.13-.02.24-.02.34.58-.65,1.1-1.11,1.58-1.39.48-.28.94-.41,1.39-.41.4,0,.79.09,1.18.28.39.19.78.43,1.16.73.39.3.78.64,1.18,1.01.4.38.81.74,1.24,1.09.02,0,.04,0,.04-.02s.01-.02.04-.02c.1,0,.17.04.21.13.04.09.06.18.06.28,0,.3-.07.62-.21.96-.14.34-.31.67-.51,1-.2.33-.42.64-.66.94-.24.3-.47.56-.69.79l-.64-.08c-.28-.6-.71-1.13-1.31-1.6-.6-.46-1.21-.69-1.84-.69-.43,0-.82.13-1.18.38-.36.25-.64.68-.84,1.28l-.23.26v5.03c0,1.28,0,2.53.02,3.77.01,1.24.06,2.5.13,3.77.05-.02.12-.04.23-.04.2,0,.3.13.3.38,0,.08-.01.14-.04.19l-.41.34v.08c0,.25-.14.38-.41.38-.1,0-.18-.03-.23-.09-.05-.06-.16-.09-.34-.09-.38,0-.79.06-1.24.17-.45.11-.89.17-1.31.17-.15,0-.26-.02-.34-.06-.08-.04-.2-.06-.38-.06l-.08.04s-.11,0-.26-.02c-.15-.01-.31-.04-.49-.08-.18-.04-.34-.09-.49-.15-.15-.06-.23-.13-.23-.21,0-.1.11-.2.34-.3,0-1.05.03-2.09.09-3.12.06-1.03.12-2.07.17-3.12l-.11-.23c0-2.13-.07-4.25-.21-6.36-.14-2.12-.24-4.24-.32-6.36-.3-.08-.45-.16-.45-.26,0-.08.11-.16.34-.24.23-.09.51-.16.86-.21.35-.05.74-.09,1.16-.13.43-.04.84-.06,1.24-.06.53,0,.99.03,1.39.09.4.06.63.17.68.32Zm-3.98,19.68v-.23l.15-.11v-1.13l-.26-.11v1.54l.11.04Zm.38-18.62v.26s.05-.04.08-.04.04,0,.06.02c.01.01.03.02.06.02v.94c0,.15.02.23.08.23s.09-.08.13-.23.08-.23.13-.23c.02.03.04.05.04.08.02-.17.06-.34.11-.49.05-.15.09-.3.11-.45h-.53v-.08l-.26-.04Zm.26.11l.94.15h-1.01l.08-.15Zm-.04,5.41v-.62c0-.21-.01-.42-.04-.62v.94c0,.1.01.2.04.3Zm.64.49c-.03.2-.04.41-.04.62v1.07c0,.15.01.31.04.49v-2.18Zm.11,10.89v.94h.11l-.11-.94Zm.19,1.69l-.15-.04v.11l.15-.08Zm.49-3.79c-.08.2-.11.44-.11.71s.02.55.06.83c.04.28.08.51.13.71.12-.65.21-1.31.24-1.99.04-.68.06-1.35.06-2.03,0-1.43-.06-2.87-.17-4.32-.11-1.45-.17-2.9-.17-4.36v-1.22c0-.49.02-.96.08-1.41.05-.45.14-.83.26-1.15.12-.31.32-.47.6-.47.15,0,.23.09.23.26,0,.1-.01.18-.04.23l-.04.04.3.11-.19-1.01c-.43.23-.83.35-1.2.38,0,2.43-.03,4.84-.08,7.23-.05,2.39-.08,4.8-.08,7.23l.11.23Zm.94,3.34c-.08-.25-.11-.54-.11-.86,0-.05,0-.1.02-.15.01-.05.02-.1.02-.15-.05.13-.09.27-.11.43-.03.16-.05.33-.08.51l.26.23Zm-.11-15.58c-.03.38-.04.76-.06,1.15-.01.39-.02.78-.02,1.18,0,1.63.05,3.24.15,4.84.1,1.6.15,3.23.15,4.88v.86c.08-.65.12-1.3.15-1.93.02-.64.04-1.28.04-1.93,0-1.5-.06-3.01-.17-4.52-.11-1.51-.19-3.02-.24-4.52Zm.19,15.66v.11c0,.15-.06.24-.19.26l.3-.08-.11-.3Zm.64-1.24c0,.13,0,.26.02.39.01.14.03.27.06.39l-.08-.79Zm2.85-16.11c-.48.05-.86.19-1.15.41-.29.23-.48.59-.58,1.09l.71-.71s-.04-.08-.04-.15c0-.15.12-.23.38-.23h.19l.49-.41Zm-.53,1.46s.09,0,.13.02c.04.01.08.02.13.02l-.19-.15-.08.11Zm2.93-2.18c-.2-.12-.43-.23-.68-.32-.25-.09-.5-.13-.75-.13-.35,0-.68.1-.98.3h.34c.35,0,.69.02,1.03.06.34.04.68.07,1.03.09Zm-1.84,1.16c.5.1,1.01.28,1.54.53-.18-.12-.34-.26-.49-.39-.15-.14-.28-.31-.38-.51-.23.05-.45.18-.68.38Zm2.22,2.1c-.23-.25-.39-.44-.49-.56-.1-.12-.19-.22-.28-.28-.09-.06-.21-.11-.38-.15-.16-.04-.41-.09-.73-.17l1.88,1.16Zm0-1.16c.08.1.16.19.24.26.09.08.17.15.24.23-.05-.1-.12-.19-.21-.26-.09-.08-.18-.15-.28-.23Zm1.88-.04c-.53-.48-1.03-.98-1.5-1.5l-.34.19c.25.3.52.56.81.79.29.23.63.4,1.03.53Zm-.41.64c.02.08.05.15.08.23.02.08.04.15.04.23,0,.18-.08.31-.23.41l.04.3c0,.05-.03.1-.08.15-.03.05-.04.09-.04.11l.08.04c.2-.28.39-.57.56-.88.17-.31.33-.64.45-1h-.15c-.08.3-.24.45-.49.45-.1,0-.19-.01-.26-.04Z"/>
        <path class="cls-1" d="m93.72,9.84c-.1.18-.25.43-.45.75-.2.33-.42.65-.66.98-.24.33-.49.61-.77.86-.28.25-.55.38-.83.38-.13,0-.24-.04-.34-.11-.5-.33-1.1-.61-1.8-.86-.7-.25-1.4-.38-2.1-.38-.38,0-.75.06-1.11.17-.36.11-.69.26-.98.45-.29.19-.52.4-.69.64-.18.24-.26.47-.26.69,0,.38.26.7.77.98.51.28,1.16.55,1.95.83.79.28,1.63.56,2.53.86s1.75.68,2.53,1.13c.79.45,1.44,1,1.95,1.65.51.65.77,1.44.77,2.37,0,.43-.06.88-.17,1.37-.11.49-.27.96-.47,1.43-.2.46-.45.89-.75,1.28-.3.39-.64.68-1.01.88-.93.5-2.12.89-3.57,1.16-1.45.28-2.93.41-4.43.41-.45,0-.98-.02-1.58-.06s-1.17-.1-1.71-.19c-.54-.09-.99-.19-1.35-.32-.36-.12-.54-.28-.54-.45,0-.08.01-.14.04-.19.2-.7.38-1.4.54-2.08.16-.69.24-1.4.24-2.12.08-.17.19-.26.34-.26.1,0,.19.02.26.06s.15.07.23.09l.26.38.23.15c.7.3,1.36.52,1.99.66.63.14,1.23.21,1.8.21,1.25,0,2.23-.27,2.95-.81.71-.54,1.07-1.13,1.07-1.78,0-.53-.26-1.03-.77-1.52-.51-.49-1.37-.87-2.57-1.15-1.18-.25-2.19-.58-3.04-1-.85-.41-1.55-.88-2.08-1.39-.54-.51-.94-1.06-1.2-1.65-.26-.59-.39-1.17-.39-1.75,0-.7.17-1.38.53-2.05.35-.66.86-1.24,1.52-1.73.66-.49,1.47-.88,2.42-1.18.95-.3,2.03-.45,3.23-.45.68,0,1.32.08,1.93.23.61.15,1.22.33,1.82.54.6.21,1.2.44,1.78.69.59.25,1.2.48,1.82.68l.11.53Zm-14.19,16.52c.12,0,.25,0,.38.02.12.01.25.03.38.06l.11-.26c-.08-.02-.21-.04-.41-.06-.2-.01-.33-.04-.38-.09l-.08.34Zm.26-1.01c.2,0,.36.01.49.04l-.41-.23-.08.19Zm.75-13.67l-.68-.11.49.11.11.41.08-.41Zm-.56,3.15c.05.1.11.19.19.26.08.08.15.15.23.23l-.19-.3-.23-.19Zm.04,9.58c.48.1.88.21,1.2.32.32.11.78.17,1.35.17-.13-.1-.27-.2-.43-.3-.16-.1-.31-.2-.43-.3-.08,0-.19,0-.36-.02-.16-.01-.34-.02-.53-.04-.19-.01-.36-.02-.51-.04-.15-.01-.25-.04-.3-.09v.3Zm.08-.94h.45l-.41-.3-.04.3Zm1.31-8.71c-.18-.12-.33-.28-.47-.45-.14-.17-.27-.36-.39-.56,0,.35.09.59.28.73.19.14.38.23.58.28Zm.23-3.12c-.3.13-.54.33-.71.6-.18.28-.26.58-.26.9,0,.38.14.7.41.98-.08-.25-.11-.46-.11-.64,0-.2.04-.36.13-.47.09-.11.17-.22.26-.32.09-.1.17-.21.26-.34.09-.12.13-.29.13-.49l-.11-.23Zm6.42-3.49c-.8-.23-1.65-.34-2.55-.34-1.53,0-2.94.31-4.24.94l.11.19c.53-.2,1.11-.36,1.75-.49.64-.12,1.27-.19,1.9-.19.5,0,.94.04,1.31.11.3-.05.59-.09.88-.11.29-.02.57-.06.84-.11Zm-6.35,2.59c.05-.08.08-.19.08-.34v-.34c0-.15.09-.28.26-.38l-.11-.19c-.2.05-.3.18-.3.38v.23c0,.18-.04.31-.11.41l.19.23Zm.23,5.14l.3.08-.45-.23.15.15Zm1.24,10.1c.1.03.19.04.28.04h.21c.25,0,.44-.01.56-.04l.23-.34.34-.11c-.18.03-.31.05-.41.08-.1.03-.21.04-.34.04-.18,0-.31-.02-.41-.08-.15.05-.3.08-.45.08h-1.01c.15.05.31.09.49.13.17.04.35.11.53.21Zm-.56-13.63c.15-.17.3-.35.45-.53.15-.17.31-.35.49-.53-.2.08-.39.16-.56.26-.18.1-.33.23-.45.38l.08.41Zm.38-1.58s-.05,0-.08.02c-.03.01-.05.02-.08.02.02-.02.08-.04.15-.04Zm2.33,6.27c-.4-.12-.8-.28-1.2-.47-.4-.19-.8-.31-1.2-.36.38.18.77.33,1.18.45.41.13.82.25,1.22.38Zm.49,7.36c-.18,0-.34,0-.51.02-.16.01-.31.02-.43.02-.28,0-.55,0-.83-.02-.28-.01-.55-.03-.83-.06l.56.41c.35-.05.69-.11,1.01-.17.33-.06.66-.13,1.01-.21Zm-2.44-11.79s.04-.04.04-.06.01-.03.04-.06c-.03.03-.04.04-.04.06s-.01.03-.04.06Zm.75,3s.09.05.11.08c.02.03.06.05.11.08l-.23-.15Zm4.02,10.4c-.63.23-1.26.41-1.91.54-.65.14-1.3.22-1.95.24.12.03.31.04.56.04.58,0,1.15-.08,1.71-.24.56-.16,1.09-.36,1.6-.58Zm-1.01-8.56c-.25-.08-.48-.17-.68-.28-.2-.11-.41-.21-.64-.28l-.45.19.9.41s.16-.04.41-.04h.45Zm-1.31-7.13s.09,0,.11-.02c.02-.01.06-.02.11-.02l.08-.04-.3.08Zm.34,15.4c.95-.2,1.86-.46,2.74-.79.88-.33,1.75-.7,2.63-1.13-.08-.02-.27-.08-.58-.17-.31-.09-.47-.18-.47-.28,0-.05.08-.12.24-.21.16-.09.27-.19.32-.32-.05.1-.12.18-.21.23-.09.05-.18.1-.28.15-.13.1-.21.19-.24.28-.04.09-.07.18-.09.26-.03.09-.06.17-.11.24-.05.08-.16.13-.34.15-.58.4-1.16.7-1.75.9-.59.2-1.21.43-1.86.68Zm.38-15.55c.28.1.56.16.86.19.3.03.59.1.86.23l.04.04v-.15c-.2-.12-.41-.21-.64-.24-.23-.04-.45-.06-.68-.06h-.45Zm2.03-.53l-1.24-.38-.04.23c.23.03.44.06.64.11.2.05.41.11.64.19v-.15Zm.56-1.2c.02.05.04.11.04.19,0,.13-.07.21-.21.24-.14.04-.27.06-.39.06.28.1.55.18.83.24.28.06.55.12.83.17v-.41c-.23-.02-.44-.04-.64-.06-.2-.01-.35-.16-.45-.43Zm-.11,11.64c.25.45.38.89.38,1.31,0,.3-.04.54-.11.71.12-.2.23-.39.3-.56.08-.17.11-.36.11-.56,0-.35-.23-.65-.68-.9Zm2.82,4.88c-.83.45-1.67.89-2.52,1.31.45-.17.88-.36,1.3-.54.41-.19.82-.44,1.22-.77Zm-2.1-6.72h-.34c.2.05.33.1.38.15l-.04-.15Zm-.23-.71l.41.19.19-.11-.6-.23v.15Zm.23-7.28c.25.13.49.25.73.38.24.13.49.24.77.34-.2-.17-.43-.32-.69-.43s-.53-.21-.81-.28Zm.86,11.98c.12-.12.21-.31.26-.56h-.3c-.13.33-.25.6-.38.83l.08-.11.34-.15Zm.49-1.24c.08-.17.11-.34.11-.49,0-.23-.09-.39-.26-.51-.18-.11-.39-.26-.64-.43.1.13.18.24.24.36.06.11.13.23.21.36h.11s-.04.05-.04.08v.08s.01.04.04.04h.04v-.15l.19.3v.38Zm.83-2.85l-1.39-.34.08.15c.15.03.35.06.6.09.25.04.44.12.56.24l.15-.15Zm-.71.34c-.23-.08-.45-.11-.68-.11.08.13.18.23.32.3.14.08.28.14.43.19l-.08-.38Zm-.3,1.84l-.04.04v-.08s0-.04.02-.06.02-.03.02-.06v.15Zm.64-8.41c-.13-.02-.24-.06-.34-.11-.1-.05-.2-.1-.3-.15.17.18.36.31.56.41l.26-.23-.19.08Zm.3-.15c.1-.05.16-.11.17-.17.01-.06.06-.13.13-.21l-.26-.04c-.1.28-.25.41-.45.41-.03,0-.04,0-.06-.02-.01-.01-.03-.02-.06-.02l.53.04Zm-.49-1.65c.17.13.39.28.66.47.26.19.39.33.39.43v.08l.34-.34-.19-.19c-.1-.23-.25-.39-.45-.49-.2-.1-.41-.17-.64-.23l-.11.26Zm.94,9.46h.08c.2,0,.34.08.41.23l.38-.04c-.13-.17-.22-.38-.28-.62-.06-.24-.18-.44-.36-.62l-.15.15-.08.9Zm.53.98c-.05.68-.16,1.33-.34,1.95.12-.2.24-.41.36-.62.11-.21.17-.44.17-.69,0-.17-.06-.39-.19-.64Zm.08-10.7c-.05,0-.08,0-.09-.02-.01-.01-.04-.02-.09-.02l.11.11.08-.08Z"/>
        <path class="cls-1" d="m101.83,8.07c.17.25.29.53.36.83.06.3.09.63.09.98,0,.8-.02,1.51-.06,2.14-.04.63-.06,1.29-.06,1.99,0,1.65.03,3.31.09,4.98.06,1.67.14,3.32.24,4.98.12-.02.26-.04.41-.06.15-.01.29-.02.41-.02.25,0,.51.04.79.11l.41-.26.38.15c.12.5.22,1.02.28,1.56.06.54.17,1.06.32,1.56l-.15.3c-.23.05-.62.11-1.18.19-.56.08-1.19.14-1.87.21-.68.06-1.38.12-2.09.17-.71.05-1.33.08-1.88.08-.83,0-1.34-.06-1.54-.19h-.08c-.15-.08-.29-.24-.41-.51-.13-.26-.23-.56-.32-.9-.09-.34-.15-.68-.19-1.03-.04-.35-.06-.65-.06-.9,0-.17.01-.3.04-.38l.38-.19.23.11c.35-.17.69-.26,1.03-.26s.68-.06,1.03-.19c-.05-.43-.09-.86-.13-1.3-.04-.44-.06-.89-.06-1.37v-.26c0-.1.01-.21.04-.34l-.19-.45c0-.68.02-1.38.08-2.1.05-.73.08-1.45.08-2.18,0-.78-.08-1.46-.24-2.07-.16-.6-.24-1.2-.24-1.8,0-.17.01-.31.04-.41l-.38.15-.15.08-.3-.19-.26-.15h-.3c-.1-.35-.16-.72-.17-1.11-.01-.39-.03-.78-.06-1.18l.08-.11-.08-.45h-.08c-.18,0-.26-.14-.26-.41,0-.1.07-.18.21-.24.14-.06.3-.11.5-.13.2-.02.42-.04.65-.04h2.89c.3,0,.55-.01.77-.04.21-.02.48-.04.8-.04s.49.13.49.38c0,.2-.11.31-.34.34Zm-5.44-3.08c-.18-.17-.26-.38-.26-.6,0-.25.11-.5.32-.75.21-.25.48-.47.8-.66.32-.19.68-.34,1.08-.45.4-.11.8-.17,1.19-.17.52,0,1.04.14,1.57.43.52.29.78.78.78,1.48,0,.33-.11.62-.34.88-.22.26-.5.48-.84.66-.34.18-.71.31-1.12.39-.41.09-.8.13-1.18.13-.55,0-1.02-.09-1.42-.28-.4-.19-.6-.51-.6-.96v-.11Zm1.09,22.04l-.19-.15-.11-.23.23-.53-.45.04-.08-.71c.23,0,.39-.01.49-.04l-.04-.19h-.56c0,.3.01.61.04.94.02.33.1.63.23.9l.45-.04Zm.53-17.8h-1.16v.08c.2-.02.39-.03.58-.02.19.01.38,0,.58-.06Zm-.94,1.09c.15-.05.31-.08.47-.08s.33-.01.51-.04l-1.2-.15v.04l.23.23Zm-.08-4.77c.33.25.84.38,1.54.38.32,0,.66-.04,1.01-.11.35-.08.67-.18.96-.32.29-.14.52-.31.69-.51.17-.2.26-.44.26-.71v-.19l-.38.34.08.15-.04.34c-.23.23-.59.4-1.09.53-.5.13-.99.19-1.46.19-.35,0-.66-.02-.94-.08-.28-.05-.49-.1-.64-.15v.15Zm3.42,21.97l-1.13-.26-.83.3,1.95-.04Zm-1.65-23.24l-.19.11.19.08.04-.04-.04-.15Zm.9,19.86l-.86-.11h.71v.11h.15Zm-.04-2.03v-1.09c0-.63-.03-1.26-.09-1.9-.06-.64-.14-1.24-.24-1.82-.03.05-.04.24-.04.56,0,.3.01.66.04,1.09.03.43.06.84.1,1.26.04.41.08.8.12,1.15.04.35.08.6.1.75Zm-.19-9.61v.34c0,.5.04,1.03.13,1.58.09.55.14,1.05.17,1.5,0-.58.01-1.16.04-1.75.02-.59.04-1.17.04-1.75l-.38.08Zm.9-4.39l.51-.04c.05.13.1.26.16.41.06.15.11.29.16.41l.33.34c.15,1.38.23,2.76.24,4.15.01,1.39.02,2.77.02,4.15h-.26c.05.65.09,1.32.11,2.01.02.69.1,1.36.23,2.01,0-.3,0-.81.02-1.52.01-.71.02-1.55.02-2.5s-.01-1.91-.04-2.95c-.02-1.04-.06-2-.11-2.87-.05-.88-.13-1.62-.24-2.23-.11-.61-.25-.98-.42-1.11l.04-.34-.77.08Zm.04,17.08l.04.11c.17,0,.39.03.64.08l-.08-.23-.04-.23h-.53l-.04.26Zm.49-14.19c-.05-.28-.09-.55-.13-.83-.04-.28-.08-.55-.13-.83v.19c0,.2.01.41.04.62.02.21.04.42.04.62l-.04.3.23-.08Zm.15,9.95c-.09-.88-.15-1.75-.17-2.63-.02-.88-.09-1.75-.2-2.63.05.88.08,1.76.12,2.65.03.89.12,1.76.26,2.61Zm.34,2.52c0,.33-.08.61-.23.86l.3-.08-.08-.79Zm.34,2.29v.04s.01.04.04.04h.04l-.08.53c.23-.02.45-.04.68-.04h.68c-.08-.02-.15-.07-.23-.13-.08-.06-.14-.12-.19-.17l.08-.26h-1.01Zm3,1.09c-.15.05-.31.08-.49.09-.18.01-.35.03-.53.06l-.41.34c.23-.08.51-.16.86-.26.35-.1.65-.15.9-.15l-.11-.26-.23.19Z"/>
        <path class="cls-1" d="m105.36,9.54c.05-.08.13-.17.23-.28.1-.11.2-.19.3-.24.75.03,1.5.05,2.23.08.74.03,1.47.04,2.2.04,0-.7.03-1.35.09-1.95.06-.6.16-1.18.3-1.73.14-.55.33-1.1.56-1.65.24-.55.54-1.13.92-1.73.12-.23.35-.46.68-.69.33-.24.68-.46,1.07-.68.39-.21.79-.38,1.22-.51.43-.12.81-.19,1.16-.19.25,0,.48.04.68.11h.08c.2,0,.59.11,1.18.32.59.21,1.2.46,1.84.73.64.28,1.21.55,1.73.83.51.28.81.49.88.64-.23.7-.41,1.33-.56,1.88-.15.55-.23,1.18-.23,1.88v.34c0,.1.01.21.04.34-.1.1-.2.2-.3.3s-.21.15-.34.15c-.08,0-.29-.13-.66-.39-.36-.26-.8-.54-1.31-.84-.51-.3-1.06-.58-1.63-.84-.58-.26-1.1-.39-1.58-.39-.53,0-.9.2-1.13.6-.05.08-.11.28-.19.62-.08.34-.15.71-.23,1.11-.08.4-.14.78-.19,1.15-.05.36-.08.61-.08.73.5,0,1,.01,1.48.04.49.03,1,.04,1.52.04.58,0,1.16-.04,1.76-.11l.19.23v-.11l.68-.08c.1.33.15.68.15,1.05,0,.3-.02.59-.06.86-.04.28-.07.58-.09.9.12.35.22.71.28,1.07.06.36.09.75.09,1.15l-.19.34h-.3c-.3,0-.75,0-1.35-.02-.6-.01-1.2-.02-1.8-.02s-1.13,0-1.6-.02c-.46-.01-.71-.02-.73-.02l.75,12.54c.15.08.23.18.23.3,0,.23-.13.36-.38.41l-.38-.15-.38.3c-.1.02-.28.05-.54.08-.26.02-.54.04-.84.06-.3.01-.61.02-.92.04-.31.01-.58.02-.81.02-.53,0-.79-.14-.79-.41,0-.1.05-.19.15-.26-.05-.08-.09-.41-.11-1.01-.03-.6-.06-1.34-.09-2.22-.04-.88-.07-1.83-.09-2.87-.03-1.04-.05-2.02-.08-2.95-.03-.93-.04-1.75-.06-2.46-.01-.71-.02-1.18-.02-1.41h-3.6l-.08.23-.71-.04-.04-.19c-.2-.05-.3-.17-.3-.38,0-.25.1-.38.3-.38h.08c-.05-.15-.08-.25-.08-.3,0-.2.03-.39.08-.56.05-.17.08-.36.08-.56,0-.05,0-.09-.02-.11-.01-.02-.02-.06-.02-.11,0-.02.01-.04.04-.04-.05-.43-.12-.85-.21-1.28-.09-.43-.14-.85-.17-1.28Zm.83.98s.11,0,.17-.02c.06-.01.12-.02.17-.02v-.19h-.38l.04.23Zm.64,1.13h.3c.48,0,.96-.03,1.45-.09.49-.06.98-.13,1.48-.21h-.38c-.45,0-.91-.02-1.37-.06-.46-.04-.92-.06-1.37-.06l-.11.41Zm.9-1.2s.16.04.34.04c.33,0,.68-.03,1.07-.09.39-.06.73-.11,1.03-.13v-.15c-.45,0-.91.02-1.37.06-.46.04-.92.07-1.37.09l.3.19Zm.68,2.74c.12.03.26.04.39.04h.79c.14,0,.28-.01.43-.04v-.08l-1.61.08Zm2.48-.04s-.08-.04-.15-.04v.04h.15Zm.3,8.45c-.13-1.18-.2-2.35-.23-3.51-.03-1.16-.04-2.35-.04-3.55h-.08c.04,1.2.06,2.38.05,3.55-.01,1.16.08,2.33.29,3.51Zm.34-13.18c.05-.43.09-.88.11-1.37.02-.49.09-.92.19-1.3-.21.55-.38,1.03-.5,1.45-.12.41-.18.9-.18,1.45,0,.18.02.33.08.45l.3-.68Zm-.26,1.69l.08.23.04-.04.04-.19h-.15Zm.71,16.75v-2.03c-.03-.2-.03-.43-.02-.68.01-.25,0-.48-.06-.68l-.19.04.11.23c0,.15.02.41.06.77.04.36.06.72.06,1.07,0,.28-.03.53-.08.75-.05.23-.16.34-.34.34v.19h.45Zm.11-15.28l.08.19c-.08,0-.11.04-.11.11h.26l-.04-.64h-.08l.04.04-.15.3Zm.26,1.46v-.45h-.3l.04.23v.23h.26Zm-.26,2.85v.71c.05-.12.09-.24.13-.34.04-.1.06-.21.06-.34l-.19-.04Zm.23-2.1l-.19-.04v.04h.19Zm.26,4.39c-.05.3-.08.61-.08.92v.92c0,.95.04,1.89.11,2.82l.19.04v-4.73l-.23.04Zm1.09-13.67c-.35.53-.64,1.1-.86,1.73l.11-.04c.53-.65,1.1-1.16,1.73-1.54-.13-.02-.3-.04-.53-.04s-.38-.04-.45-.11Zm-.53,3.08c.29-.58.68-1.08,1.14-1.5l-.48.15-.7.94.04.41Zm0,2.7s.01-.05.04-.08l-.04.08Zm1.13-7.74l-.04-.04-.08-.04c-.08,0-.19.13-.36.38-.16.25-.27.41-.32.49l.79-.79Zm-.41,14.42c0,.5.01,1.01.04,1.54.02.53.06,1.04.11,1.54l-.14-3.08Zm.36-5.9h.85c.29,0,.58-.01.85-.04l-1.71.04Zm.76.9c.05-.08.14-.14.27-.19h-1.03v.19h.76Zm-.71,1.54c.08.03.2.04.38.04.13,0,.25,0,.34-.02.09-.01.21-.03.34-.06v-.15h-1.09l.04.19Zm0,13.44h.15l-.04-.19-.11.19Zm1.46-25.91l-.26.15c.12,0,.26-.05.41-.15h-.15Zm0,3.94c.1-.02.2-.04.3-.04h.26l-.38-.11-.19.15Zm.71-2.44c.23-.05.46-.08.69-.08h.66c-.35-.08-.69-.11-1.01-.11h-.23l-.11.19Zm2.4,3.38c-.3-.02-.48-.14-.54-.34-.06-.2-.13-.4-.19-.6-.06-.2-.19-.39-.38-.56-.19-.17-.56-.26-1.11-.26.23,0,.43.08.6.23.17.15.35.33.53.54.17.21.35.41.53.6.17.19.36.32.56.39Zm-1.54-1.58l.71.19c-.25-.12-.49-.19-.71-.19Zm1.99,8.67c-.13,0-.24.01-.34.04-.1.03-.2.04-.3.04l-.34.19h-1.01c.33.08.69.11,1.09.11.17,0,.35,0,.53-.02.17-.01.3-.13.38-.36Zm-1.84-.6c.23,0,.45,0,.68-.02.23-.01.44-.03.64-.06l-1.31-.23v.3Zm2.14-8.19c-.3-.17-.6-.31-.9-.41-.3-.1-.63-.19-.98-.26.33.13.64.24.94.34.3.1.61.21.94.34Zm-.56,7.4l-.08-.26-.3-.04v.08c0,.08-.04.11-.11.09-.08-.01-.15,0-.23.02l.71.11Zm1.91-7.25c-.05-.12-.09-.24-.13-.36-.04-.11-.09-.22-.17-.32l-.79-.08c.17.13.36.24.54.36.19.11.37.24.54.39Zm-.26,1.5l.15-.26-.11-.04c-.08.03-.18.04-.3.04h-.3l.56.26Zm.41.68l.15.08.04-.45s-.06.03-.11.08l-.08.3Zm.19-1.8l.23.38.15-.6-.38.23Zm.41-.68h-.11l.08.34.04-.34Z"/>
        <path class="cls-1" d="m126.39,36.8c-.05,0-.09,0-.13.02-.04.01-2.29.02-2.34.02-.2,0-.3-.06-.3-.19,0-.2.04-.43.13-.69.09-.26.13-.53.13-.81,0-.43-.04-.86-.11-1.3-.08-.44-.11-.81-.11-1.11,0-.2.1-.33.3-.38-.13-.08-.21-.19-.24-.34s-.06-.29-.06-.41c0-.15,0-.28-.02-.39-.01-.11.07-.17.24-.17.2,0,2.63.04,2.88.11.25.08.5.11.75.11.43,0,.87-.07,1.33-.21.46-.14.93-.21,1.41-.21.33-.78.66-1.54,1-2.29.34-.75.68-1.51,1.03-2.29l-.26-.34-.08-.41c-.9-1.5-1.72-3.07-2.46-4.71-.74-1.64-1.6-3.2-2.57-4.67-.38-.58-.69-1.18-.96-1.82-.26-.64-.53-1.27-.79-1.9-.26-.63-.56-1.24-.88-1.84-.33-.6-.75-1.15-1.28-1.65.05-.05.08-.11.08-.19,0-.1-.03-.21-.08-.34-.05-.12-.09-.24-.11-.34l.04-.45s.25-.04.68-.04c.33,0,.72,0,1.18.02.46.01.91.04,1.35.08.44.04.82.08,1.15.11.32.04.51.07.56.09,1.35,1.8,2.55,3.75,3.59,5.84,1.04,2.09,2.06,4.12,3.06,6.1.5-2.03,1.13-4.02,1.9-5.97.76-1.95,1.51-3.92,2.23-5.9.05-.02.16-.08.34-.15.17-.08.33-.11.45-.11.08,0,.11.03.11.08.48-.05.94-.09,1.41-.11.46-.02.94-.04,1.45-.04h.9l.34.26c.25,0,.38.13.38.38,0,.03,0,.05-.02.08-.01.03-.02.05-.02.08v.38c-.2.23-.38.54-.54.96-.16.41-.31.84-.43,1.3-.13.45-.25.9-.38,1.35-.13.45-.26.83-.41,1.13-.28.58-.57,1.16-.88,1.76-.31.6-.59,1.19-.84,1.76-.33.8-.6,1.65-.83,2.55s-.51,1.76-.86,2.59c-.3.8-.61,1.6-.92,2.38-.31.79-.61,1.58-.88,2.38-.03,0-.04,0-.04-.02s-.01-.02-.04-.02c-.05,0-.08.04-.08.11,0,.03.01.04.04.04-.35.7-.66,1.43-.92,2.18-.26.75-.52,1.51-.77,2.27-.25.76-.52,1.51-.81,2.23-.29.73-.63,1.43-1.03,2.1l-.11.71-.41-.04-.34.11-.19-.08-.49.04-.26.15c-.13,0-.34,0-.66.02-.31.01-.66.02-1.05.04-.39.01-.79.02-1.2.04-.41.01-.78.02-1.11.02h-.75c-.2,0-.33-.03-.38-.08Zm-2.97-28.65l-.04.04.3.11.64.94c-.15-.33-.26-.69-.34-1.09h-.56Zm1.39.45v-.38h-.11l.11.38Zm.53,1.01c.9,1.8,1.86,3.58,2.87,5.33,1.01,1.75,2.12,3.43,3.32,5.03-.85-1.43-1.67-2.91-2.46-4.45-.79-1.54-1.67-3-2.65-4.37-.2-.25-.39-.5-.58-.75-.19-.25-.36-.51-.51-.79Zm.15-1.24c.08.28.2.55.38.83.17.28.35.54.53.79-.05-.08-.11-.18-.17-.32-.06-.14-.12-.29-.17-.45-.05-.16-.1-.32-.15-.47-.05-.15-.08-.26-.08-.34l-.34-.04Zm.79,23.99c.3.08.64.11,1.01.11s.77-.04,1.18-.11.76-.18,1.03-.3l.11-.19c-.13-.03-.24-.04-.34-.06-.1-.01-.2-.02-.3-.02-.43,0-.84.06-1.24.17-.4.11-.81.18-1.24.21l-.23.19Zm.15-17.91c.25.45.51.9.77,1.33.26.44.53.88.81,1.33-.28-.45-.54-.9-.79-1.35-.25-.45-.51-.89-.79-1.31Zm.3,21.67l-.04.15-.08.23.41.08.08-.23h-.08l-.3-.23Zm.04-.38v-.08.08Zm.04-.79c.2,0,.4.01.6.04.2.02.4.05.6.08l.26-.34c-.23,0-.44,0-.66.02-.21.01-.43.03-.66.06l-.15-.08v.23Zm.04-.83c.1-.05.25-.08.45-.09.2-.01.36-.03.49-.06-.13-.03-.24-.04-.36-.04h-.36l-.15-.11-.08.3Zm.9-25.46c.15.45.34.93.58,1.45.24.51.5,1.01.79,1.5.29.49.59.96.92,1.41.33.45.64.86.94,1.24-.13-.23-.33-.63-.6-1.2-.28-.58-.57-1.17-.88-1.78-.31-.61-.63-1.18-.96-1.69-.33-.51-.59-.82-.79-.92Zm2.63,27.52c.1-.03.2-.04.3-.06.1-.01.2-.04.3-.09l-.08-.23c-.45.05-.89.11-1.31.17-.43.06-.86.13-1.31.21l-.19.3c.28,0,.61-.06,1-.17.39-.11.73-.17,1.03-.17.12,0,.21.01.26.04Zm-2.1-3c.12.05.24.09.34.11.1.02.21.04.34.04l.19-.41-.86.26Zm1.13-15.55l-1.01-1.31.75,1.43.26-.11Zm-.34,17.54h.23c.35,0,.63-.03.84-.09.21-.06.39-.16.53-.28.14-.13.26-.28.36-.45.1-.18.21-.36.34-.56l-.68.68c-.2.1-.44.16-.73.17-.29.01-.56.03-.81.06l-.08.49Zm.45-15.77l.26.04.15.11-.6-.6.19.45Zm.71,14.49l.04-.04-.04.04Zm2.14-10.06c-.35-.53-.68-1.06-1-1.6-.31-.54-.68-1.03-1.11-1.48.23.5.53,1.04.9,1.61.38.58.78,1.06,1.2,1.46Zm.3-5.56c-.38-.53-.71-1.06-1.01-1.61-.3-.55-.66-1.08-1.09-1.58.63.98,1.22,1.97,1.78,2.97.56,1,1.2,1.95,1.9,2.85h.04s0-.04-.02-.06c-.01-.01-.02-.03-.02-.06l-.34-.68c-.2-.35-.38-.74-.53-1.18-.15-.44-.34-.82-.56-1.15l-.15.49Zm-.71,12.43c-.15.23-.29.44-.41.64-.13.2-.25.41-.38.64l.79-1.28Zm-.53-9.61c.35.45.66.93.92,1.43.26.5.56.99.88,1.46,0-.15-.06-.36-.19-.62-.13-.26-.28-.53-.47-.81-.19-.28-.38-.54-.58-.81-.2-.26-.39-.48-.56-.66Zm.41,9.91v-.04s-.04,0-.04.02.01.02.04.02Zm.26,4.06s-.04.04-.04.06-.01.03-.04.06c.02,0,.05.01.08.04v-.15Zm1.01-6.23c-.13.15-.23.3-.3.45-.08.15-.15.31-.23.49l.53-.94Zm.04-1.24c0-.1-.05-.15-.15-.15l-.3.64.45-.49Zm-.41-9.95c0,.05.02.1.08.15,0-.05-.03-.1-.08-.15Zm.53,16.3c-.13.23-.24.44-.34.66-.1.21-.15.46-.15.73.15-.2.28-.4.38-.6.1-.2.21-.4.34-.6l-.23-.19Zm-.08-1.31l-.26.6.45-.64-.19.04Zm.08-10.25c.08.1.14.2.21.3.06.1.12.21.17.34l.41-1.39-.19-.08-.26-.34.3.45c.05.15.08.24.08.26,0,.18-.13.26-.38.26-.13,0-.21-.02-.26-.08l-.08.26Zm.56,9.31c-.05,0-.1.05-.15.15l-.08.26.23-.41Zm-.08-7.02c.12-.15.23-.36.32-.62.09-.26.13-.49.13-.69-.08.23-.14.45-.21.68-.06.23-.14.44-.24.64Zm1.13,2.82l-.15.3.3-.38-.15.08Zm.23-.19l.26-.34-.26.04v.3Zm.26-8.07c.68-1.78,1.31-3.55,1.9-5.31.59-1.76,1.2-3.55,1.82-5.35h-.08c-.25.55-.55,1.31-.9,2.27-.35.96-.71,1.97-1.07,3.02-.36,1.05-.69,2.07-1,3.04s-.53,1.75-.68,2.33Zm.56,6.98h-.11c-.15,0-.24-.06-.26-.19l-.15.3.53-.11Zm2.59-10.44c-.43,1.05-.85,2.1-1.28,3.15-.43,1.05-.81,2.13-1.16,3.23.5-1.05.94-2.1,1.33-3.15.39-1.05.76-2.13,1.11-3.23Zm-2.22,9.58c-.03.08-.04.18-.04.3l.15-.3-.04-.08-.08.08Zm.49-.94c.1-.35.19-.71.28-1.07.09-.36.17-.73.24-1.11l-.83,1.69.3.49Zm1.54-10.4c-.2.48-.39.96-.58,1.45s-.34.98-.47,1.48c.48-1.18.94-2.34,1.39-3.49.45-1.15.89-2.33,1.31-3.53-.35.58-.63,1.2-.83,1.86-.2.66-.43,1.31-.68,1.93l.04-.15s-.03.1-.09.23c-.06.13-.09.2-.09.23Zm-.3,8.75c.35-.65.63-1.35.84-2.08.21-.74.38-1.47.51-2.2l-.3.6.15-.38c-.28.65-.5,1.31-.68,1.99-.18.68-.35,1.36-.53,2.07Zm.41-8.97s-.04.06-.06.09c-.01.04-.03.07-.06.09l.11-.19Zm1.39-5.26c-.05.13-.09.26-.13.39-.04.14-.08.27-.13.39.17-.33.39-.61.64-.86l-.38.08Zm2.7.04c-.43.63-.78,1.33-1.07,2.12-.29.79-.58,1.55-.88,2.27.28-.45.51-.99.71-1.61.2-.63.46-1.13.79-1.5l.56-1.46h-.08l-.04.19Zm-1.09-.19c-.13.28-.23.56-.32.84-.09.29-.17.57-.24.84.12-.28.26-.56.41-.84.15-.29.31-.57.49-.84h-.34Zm.45,3.94c-.15.53-.35.98-.6,1.35.15-.23.28-.44.38-.64.1-.2.17-.44.23-.71Z"/>
      </g>
      <g>
        <path class="cls-1" d="m64.78,38.68l5.87,3.44-9.61,4.7,3.74-8.14Zm.69-.57l29.44-7.53-15.45,15.76-13.99-8.23Zm-6.54-3.97l32.95-3.78-27.5,7.18-4.07,8.66-1.37-12.05Zm-9.36-3.03l38.01-1.04-28.9,3.41-9.11-2.37Z"/>
        <path class="cls-2" d="m84.82,30.26l-26.12,3.08-8.24-2.14,34.36-.94m5.32.42l-25.74,6.72-.11.03-.05.11-3.86,8.2-1.31-11.49,31.07-3.56m4.37.13l-15.06,15.37-13.65-8.03,28.71-7.34m-29.67,8.05l5.55,3.25-9.09,4.45,3.54-7.7m25.52-9l-41.67,1.14,9.99,2.59,31.68-3.74h0Zm3.26.17l-34.83,3.99,1.44,12.62,4.24-9,29.16-7.61h0Zm1.69.32l-30.16,7.71,14.34,8.44,15.83-16.15h0Zm-30.59,8.16l-3.94,8.59,10.13-4.96-6.19-3.63h0Z"/>
      </g>
    </g>
  </g>
</svg>