<?xml version="1.0" encoding="UTF-8"?>
<svg id="Layer_2" data-name="Layer 2" xmlns="http://www.w3.org/2000/svg" viewBox="0 0 74.4 34.31">
  <defs>
    <style>
      .cls-1 {
        fill: #1a1a1a;
        stroke-width: 0px;
      }
    </style>
  </defs>
  <g id="Layer_1-2" data-name="Layer 1">
    <path class="cls-1" d="m8.85,10.79c-.08.33-.27.62-.56.87s-.64.46-1.02.63c-.39.17-.78.3-1.18.38-.4.09-.74.13-1.03.13-.38-.14-.75-.29-1.11-.45s-.68-.35-.96-.57c-.28-.22-.51-.49-.69-.82-.18-.32-.28-.72-.3-1.19,0-.18.04-.42.11-.7.07-.28.16-.56.27-.85.11-.28.24-.55.38-.8s.29-.43.43-.55c.14-.13.33-.25.57-.34.24-.1.45-.18.63-.25.41,0,.82.02,1.25.05.43.03.83.12,1.21.27.13.05.28.15.43.28.16.14.31.28.47.42.16.14.31.27.45.38.14.11.27.17.37.17.09,0,.18-.04.27-.13.08-.09.16-.19.24-.3.07-.12.14-.24.21-.36s.13-.23.2-.3c.08-.1.18-.21.3-.3.12-.1.19-.21.19-.34,0-.14-.07-.29-.22-.42-.14-.14-.27-.26-.37-.36-.5-.5-1.08-.85-1.75-1.07s-1.36-.32-2.06-.32c-.41,0-.81.03-1.2.1-.39.07-.78.16-1.16.28-.31.1-.61.26-.87.45-.27.2-.54.39-.82.57-.29.2-.53.48-.72.84s-.34.74-.46,1.15c-.12.41-.2.81-.26,1.2s-.08.71-.08.96c0,.31.03.64.1.96.07.33.11.64.14.94.04.28.14.57.29.88.16.31.35.62.59.9.24.29.49.54.77.77.27.22.54.37.81.45.47.14.86.25,1.18.31.31.07.61.1.88.1.31,0,.64-.03.97-.1.33-.07.78-.15,1.33-.26.16-.03.32-.06.49-.09s.33-.08.47-.15c.14-.07.27-.15.38-.26.11-.1.23-.21.36-.31.28-.2.56-.39.86-.57.1-.06.19-.14.29-.22-.33-.62-.52-1.3-.59-2.01m-2.53-5.48c.11-.01.22-.02.32-.02.05,0,.1,0,.13,0,.03,0,.08,0,.13,0v.04c0,.12.06.19.2.21.13.02.24.04.31.07.01.07.05.11.12.14.07.03.13.04.2.04.12.09.22.2.29.31.08.12.14.25.2.39,0,.04-.03.06-.08.06-.03,0-.04-.01-.04-.04-.22-.41-.52-.68-.9-.84-.38-.15-.78-.27-1.2-.34.1-.01.21-.03.32-.04Zm-4,7.23l-.06.12-.18-.06c-.08-.08-.14-.16-.19-.25-.05-.08-.09-.17-.13-.27l.55.45Zm.51-6.43c-.21.09-.41.21-.61.35l-.02-.04c.18-.16.38-.29.59-.39s.43-.2.67-.28c-.21.14-.42.26-.63.35Zm-.02-1.04l.08.14c-.28.08-.54.17-.81.27-.26.1-.5.23-.73.38.21-.18.44-.33.69-.45.25-.12.5-.23.77-.33Zm-1.07-.06c.31-.2.64-.35.99-.47l-.27.18-.06.1c-.26.12-.52.25-.78.4-.26.15-.49.32-.7.52.24-.29.51-.53.82-.73Zm-.54,1.56c.1-.12.23-.25.36-.36.14-.12.28-.22.42-.31.14-.09.27-.16.37-.2-.3.16-.55.34-.74.54-.19.2-.4.44-.62.7.03-.12.09-.24.2-.36Zm-.03,3.54s0-.04,0-.07c.09.33.2.65.33.95.13.31.32.59.57.84-.22-.18-.43-.43-.63-.74-.2-.31-.29-.61-.29-.91,0-.03,0-.05.01-.07Zm1.23,3.44c-.18-.1-.37-.21-.55-.32h-.1c-.13-.13-.25-.28-.35-.45.29.14.56.3.82.46.26.16.52.33.8.5-.22-.03-.43-.09-.61-.19Zm2.78.18c-.33.1-.66.16-.97.19-.04,0-.07-.01-.08-.04.34-.09.68-.16,1-.22.33-.05.66-.13.98-.24-.29.1-.6.21-.93.3Zm2.9-.78l-.02.26-.18.1s-.1.03-.19.06c-.09.03-.17.06-.26.09-.09.03-.16.06-.23.09-.07.03-.1.05-.1.08,0,.01.02.02.06.02h.04c-.07.03-.13.05-.21.07-.07.02-.14.04-.21.07l-.2-.1c.26-.14.53-.28.81-.41.27-.13.54-.28.81-.43l-.14.12Z"/>
    <polygon class="cls-1" points=".26 10.36 .47 10.38 .47 10.09 .24 10.09 .26 10.36"/>
    <path class="cls-1" d="m.26,8.73c.07-.24.12-.48.16-.73.04-.25.09-.49.16-.73-.08.24-.14.48-.2.72-.05.24-.09.49-.12.74Z"/>
    <path class="cls-1" d="m.65,11.13c.03.09.05.18.06.27.01.09.04.16.08.23l.1-.12c-.07-.05-.1-.11-.11-.18,0-.07,0-.14,0-.22l-.12.02Z"/>
    <path class="cls-1" d="m.85,9.18s0-.06.03-.14c.02-.08.04-.16.07-.26.03-.09.07-.21.12-.35-.05.13-.1.26-.15.37-.05.12-.07.24-.07.37Z"/>
    <path class="cls-1" d="m1.02,12.17c-.05-.03-.09-.07-.1-.12l.1.12Z"/>
    <polygon class="cls-1" points="1.14 10.91 1.16 10.97 1.16 10.81 1.14 10.91"/>
    <path class="cls-1" d="m1.3,12.45s.05.1.1.18l-.04-.12-.06-.06Z"/>
    <path class="cls-1" d="m1.65,8.18c-.07.24-.11.49-.13.75-.02.26-.03.52-.03.77.03-.26.06-.51.1-.76.04-.24.06-.49.06-.76Z"/>
    <path class="cls-1" d="m2.16,7.53l-.16.12c-.03.05-.05.11-.08.18-.03.07-.04.13-.04.2l.28-.49Z"/>
    <polygon class="cls-1" points="2.38 6.8 2.48 6.72 2.42 6.74 2.38 6.8"/>
    <polygon class="cls-1" points="3.5 12.76 3.66 12.78 3.48 12.7 3.5 12.76"/>
    <path class="cls-1" d="m3.93,13.33c.09.04.22.07.38.09.16.02.32.03.48.03.22,0,.39-.02.51-.06-.24-.01-.47-.02-.7-.02s-.46-.01-.68-.04Z"/>
    <path class="cls-1" d="m6.11,5.07h-.35c-.3,0-.6,0-.88.03-.29.02-.58.04-.88.07v.04c.09.01.18.02.27.03.09,0,.17,0,.27,0,.28,0,.54-.02.79-.06.25-.04.52-.08.81-.12Z"/>
    <polygon class="cls-1" points="4.48 14.41 4.52 14.37 4.07 14.37 4.48 14.41"/>
    <path class="cls-1" d="m4.15,4.74c.43-.08.87-.12,1.32-.12h.28c-.14-.03-.29-.05-.42-.06-.14-.01-.28-.02-.42-.02-.22,0-.48.03-.77.1l.02.1Z"/>
    <path class="cls-1" d="m6.7,13.86c-.14.04-.28.09-.41.14-.13.05-.26.09-.39.12.14-.03.29-.06.45-.11.16-.05.31-.09.45-.13-.05,0-.09,0-.1-.02Z"/>
    <path class="cls-1" d="m6.11,5.74c-.05-.01-.12-.02-.2-.02l.2.02Z"/>
    <path class="cls-1" d="m6.72,12.84c.18-.07.36-.14.54-.23.18-.09.34-.19.5-.3-.18.09-.36.19-.52.29-.16.1-.34.18-.52.25Z"/>
    <path class="cls-1" d="m7.53,6.43s.07.05.12.08c.05.03.09.05.12.06l-.24-.14Z"/>
    <path class="cls-1" d="m8.32,7.06l.04-.08c-.14-.12-.28-.2-.39-.26l.35.33Z"/>
    <polygon class="cls-1" points="8.49 11.78 8.28 11.95 8.34 11.95 8.49 11.78"/>
    <polygon class="cls-1" points="8.53 7.51 8.69 7.29 8.63 7.22 8.47 7.47 8.53 7.51"/>
    <path class="cls-1" d="m8.97,6.92l.02-.18c-.01.08-.02.12-.03.14,0,.01,0,.03,0,.04Z"/>
    <path class="cls-1" d="m15.16,14.59c-.28.04-.53.06-.77.06-.71,0-1.34-.14-1.89-.43-.55-.29-1.01-.67-1.39-1.15s-.66-1.02-.85-1.63c-.19-.61-.29-1.24-.29-1.88,0-.68.11-1.35.32-2.01.22-.66.55-1.24,1-1.76.45-.52,1.02-.94,1.71-1.26.69-.32,1.5-.48,2.45-.48.83,0,1.54.13,2.14.38.6.26,1.1.61,1.5,1.06.4.45.69.98.88,1.6.19.61.29,1.27.29,1.98,0,.79-.12,1.55-.37,2.28-.25.74-.62,1.37-1.12,1.89-.12.12-.31.26-.59.42s-.58.32-.9.47c-.33.15-.66.28-.99.37-.33.1-.62.15-.86.15-.12,0-.22-.02-.29-.06Zm-3.03-1.08c-.31-.33-.58-.67-.81-1.03-.22-.36-.42-.75-.59-1.17h-.02c-.07,0-.11-.01-.14-.04.1.55.28.99.51,1.31.24.32.58.63,1.04.93Zm-1.22-4.54h-.14l.02.14h.12v-.14Zm.02,1.14l.04.14-.04-.43v.29Zm.16-2.01l-.14.22s.04-.05.07-.1c.03-.05.06-.09.07-.12Zm-.06-.18l.06.18c.07-.17.12-.34.18-.5.05-.16.11-.34.18-.52-.07.08-.13.16-.19.24-.06.08-.11.16-.17.26l-.06.35Zm.43,2.85c-.01-.05-.02-.13-.02-.24s0-.18.02-.24c-.05.12-.08.22-.08.29,0,.03,0,.05,0,.08,0,.03.03.06.07.1Zm.28-2.52c-.03.08-.06.16-.11.24-.05.08-.1.15-.15.22.07-.08.12-.15.17-.22.05-.07.08-.14.09-.24Zm.12,3.4c-.03-.08-.06-.16-.09-.26-.03-.09-.05-.19-.05-.29l-.18-.06.16.47.16.14Zm-.28-4.27l-.02.02s0,.02,0,.03c0,0,0,.02,0,.03l.06-.02-.06-.14v.08Zm.29,0c-.03.11-.05.2-.08.29-.03.09-.07.17-.12.25l.16.04.12-.45-.08-.12Zm-.02-.75c.05-.09.1-.18.16-.26.05-.08.11-.15.18-.22l-.16-.1-.22.41.04.16Zm.35,5.05s-.04-.04-.03-.05c0,0,0-.02-.03-.05l-.08.02.14.16v-.08Zm.35-6.25c-.17.11-.31.22-.43.33h.06l.37-.33Zm.24,1.02l-.02-.18c-.12.13-.22.28-.31.43-.09.16-.18.31-.26.45.07-.07.14-.12.22-.18.08-.05.15-.11.22-.18l.16-.35Zm-.55,4.4v-.08s-.02.06-.02.1,0,.07.02.1v-.12Zm.18.31c-.07-.04-.12-.1-.18-.2.03.18.07.36.12.52.05.16.1.34.16.52.01-.07.03-.14.04-.22.01-.08.02-.15.02-.22v-.06l-.16-.35Zm1.44,1.91c-.12-.1-.24-.19-.36-.27-.12-.07-.25-.15-.38-.25l.04.1-.08.22-.28.02c-.18-.1-.35-.25-.51-.43l.14.24v.1l.2.18.02-.08c.2.04.39.08.59.13.2.05.39.08.59.11l.04-.06Zm3.2-6.74c-.59-.26-1.18-.39-1.77-.39-.34,0-.69.05-1.04.16s-.68.27-.96.49c-.29.22-.52.51-.71.86-.18.35-.28.77-.28,1.25,0,.43.08.88.23,1.34.15.46.36.88.62,1.26.26.38.57.69.93.94.36.24.75.36,1.17.36.45-.01.85-.14,1.22-.39.37-.25.68-.56.94-.94.26-.37.47-.79.61-1.24.14-.45.22-.9.22-1.35,0-.28-.02-.51-.07-.71-.05-.2-.11-.38-.21-.56-.09-.18-.21-.35-.36-.51-.15-.16-.33-.35-.54-.56Zm-4.38,7.16v-.04c-.08-.03-.14-.05-.18-.08l.18.12Zm.1-7.22s.05-.05.06-.07c.01-.02.03-.04.06-.05l.02-.06-.14.18Zm1.34-1.12c-.11,0-.21,0-.3,0-.1,0-.2-.02-.3-.03.1.05.23.08.37.08.12,0,.2-.01.24-.04Zm1.16-.49c-.07-.07-.2-.1-.41-.1-.18,0-.38.02-.59.06-.21.04-.35.08-.41.11h.57c.14,0,.29,0,.42,0,.14,0,.28-.03.42-.07Zm.12,8.97c-.11,0-.21,0-.31,0-.11,0-.21-.02-.31-.03.1.05.23.08.37.08.12,0,.2-.01.26-.04Zm-.28-.41h.57c.14,0,.29,0,.42,0,.14,0,.28-.03.42-.07l.61-.41-.28.12-.1-.1c-.28.07-.55.14-.83.24-.28.09-.55.17-.83.24Zm.88-7.82h.06l-.02-.02-.04.02Zm.59,8.55c-.07.04-.14.07-.23.09-.09.02-.17.04-.25.05l-.02.08-.08.06c.12,0,.23-.03.34-.1.11-.07.21-.12.29-.18h-.06Zm-.16-8.95l.04-.19.1-.04s-.09-.05-.14-.08c-.05-.03-.11-.05-.16-.05l.08.32.08.04Zm1.28,8.06c-.13.08-.26.15-.37.23-.12.07-.24.14-.35.21.1-.03.2-.05.29-.07.09-.02.18-.05.29-.09v-.02l.16-.26Zm.77-6.43c-.12-.18-.24-.32-.35-.4-.12-.09-.28-.17-.47-.27.13.13.26.25.39.36.13.11.28.21.43.3Zm-.43,5.96c.14-.2.26-.38.33-.55.08-.17.14-.34.19-.52.05-.18.09-.36.12-.54.03-.18.08-.39.13-.61-.04.04-.07.11-.08.21-.01.1-.03.2-.05.3-.02.11-.04.2-.06.29-.02.09-.05.16-.09.2-.13.39-.33.75-.61,1.08l.12.14Zm.47-7.2l-.51-.26.02-.06c.28.2.52.47.75.81.22.34.45.64.69.88l-.94-1.38Zm-.33,1.51c.07.07.12.14.16.24.04.09.08.19.12.29l.16-.06c.09.17.18.35.26.53.08.18.17.35.28.51-.04-.22-.08-.44-.13-.66-.05-.22-.12-.44-.23-.66l-.1.04c-.14-.05-.31-.13-.51-.24Zm.37,2.06c-.01.14-.02.29-.02.44s-.02.29-.06.42l.04-.02c.03-.14.04-.29.04-.42v-.42Zm.08,3.44c.14-.12.24-.22.28-.29.04-.08.09-.22.16-.41-.08.12-.15.23-.23.34-.07.11-.14.23-.21.36Zm.55-2.77c.04-.17.07-.34.1-.51.03-.17.05-.35.08-.53-.07.12-.12.21-.16.27-.04.06-.07.11-.08.16-.01.05-.02.1-.02.16v.29l.08.18Zm-.04.12l-.04.02v.08s.05-.11.08-.22l-.04.12Zm.43-.75l.08-.02-.08-.14-.02.08.02.08Zm.31.83c-.07.21-.13.37-.2.47.13-.13.2-.29.2-.47Zm0-.88c-.03.09-.05.19-.06.29-.01.1-.03.19-.06.29l.18.04v-.49l-.06-.12Z"/>
    <path class="cls-1" d="m28.67,4.23c.22-.13.42-.22.58-.27.16-.05.33-.07.5-.07.29,0,.63.07,1.02.2.03.08.04.22.04.43,0,.2,0,.45-.03.75-.02.3-.04.61-.06.93-.02.32-.04.63-.06.93-.02.3-.03.56-.03.77,0,.08,0,.15.02.21.01.06.02.11.02.15,0,.01,0,.02,0,.03,0,0,0,.02,0,.03.07.3.11.63.15.99.03.36.05.71.05,1.05,0,.22,0,.44,0,.64,0,.2,0,.41,0,.62,0,.45.02.88.05,1.31.03.43.08.86.15,1.31v.06c0,.16-.05.24-.16.24-.08,0-.14-.05-.2-.14v-.02c-.31.1-.63.15-.95.15-.32,0-.65,0-.97,0l-.22-.1.2-.24c-.04-.14-.06-.32-.05-.53,0-.21,0-.4-.03-.57-.38.49-.85.83-1.42,1.04-.56.21-1.15.31-1.77.31-1.11,0-1.98-.22-2.6-.67-.62-.45-1.09-1.03-1.4-1.76-.31-.73-.5-1.56-.57-2.5-.07-.94-.11-1.89-.11-2.86,0-.21,0-.42,0-.62,0-.2,0-.4,0-.58,0-.16,0-.31,0-.47,0-.16,0-.31,0-.45l-.2-.02v-.35h.04s.06-.02.1-.02.06-.01.06-.04c-.01,0-.02,0-.02-.02l.35-.04.02.06c.18,0,.4-.03.64-.08.24-.05.47-.08.7-.08.17,0,.35.04.53.12.18.08.28.16.28.24,0,.56-.03,1.16-.08,1.8-.05.64-.08,1.28-.08,1.94,0,.39.03.84.08,1.35.05.5.15.98.3,1.44.15.45.36.83.64,1.14.28.31.64.46,1.1.46.37,0,.75-.13,1.15-.38.4-.26.76-.59,1.09-.99.33-.41.6-.86.81-1.37.21-.5.31-1.01.31-1.52,0-.16-.02-.3-.05-.44-.03-.14-.05-.29-.05-.44,0-.07,0-.14.02-.23.01-.09.02-.22.02-.4s0-.39,0-.63c0-.24-.02-.46-.04-.68-.02-.22-.04-.41-.07-.57-.03-.16-.05-.28-.08-.34,0-.03,0-.06,0-.1,0-.04,0-.07,0-.1.03.01.07.02.14.02.08,0,.13,0,.16-.02Zm-7.33,2.58v-.95c0-.12,0-.26.02-.4-.07.2-.12.38-.14.56-.02.18-.04.36-.04.54v.29c0,.09,0,.19.02.29l.02-.22.12-.12Zm-.12,1.02c.01.26.03.52.04.77.01.25.03.5.06.77l.1-.06c-.04-.25-.08-.5-.11-.75-.03-.25-.06-.49-.09-.73Zm.2-3.05l.06-.18-.08.12.02.06Zm0,5.45c.03.2.06.39.09.58.03.19.08.38.15.58v-.04c0-.14.05-.24.16-.29,0-.03-.02-.08-.05-.15-.03-.07-.07-.15-.12-.25-.05-.09-.09-.18-.14-.26-.05-.08-.08-.14-.09-.18Zm.69-5.19c.03-.08.05-.16.07-.25.02-.09.04-.17.07-.27l-.24-.14-.49.08-.04.1c.08-.05.14-.08.18-.08.05,0,.1.04.14.12.08-.08.15-.12.22-.12.09,0,.14.05.14.14,0,.05-.01.09-.04.12v.29Zm-.39.71c-.01-.1-.02-.2-.03-.29,0-.09,0-.19,0-.29-.01.14-.02.28-.02.41v.39l.06-.22Zm-.06,1.12c.01.22.03.44.04.66.01.22.04.44.08.66l.04-.08c-.03-.22-.05-.46-.07-.7-.02-.24-.03-.47-.03-.7l-.06.16Zm0,2.06c.07.52.17,1.02.3,1.49.14.47.39.91.76,1.32-.25-.41-.48-.86-.68-1.36-.2-.5-.33-.98-.38-1.45Zm.04,2.63c.05.14.1.29.15.43.05.14.1.28.17.41l.18.12c.01.08.08.17.19.28.11.11.23.21.36.31.13.11.26.2.39.29.13.09.24.15.31.19.5.29,1.03.43,1.59.43.45,0,.89-.1,1.34-.29-.25.06-.53.09-.85.09-.35,0-.71-.04-1.08-.12l-.16.1c-.25-.05-.5-.15-.77-.3-.26-.15-.51-.33-.75-.54-.24-.21-.45-.44-.65-.68-.2-.24-.34-.48-.43-.72Zm.37-5.86s-.02.03-.02.06l.02-.06Zm.71,5.49c-.13-.3-.22-.61-.26-.93-.04-.32-.11-.63-.22-.93l-.22-.1c.07.28.14.55.24.82.09.27.19.54.29.82v-.04l.16.37Zm-.2-5.39c-.03.24-.05.47-.07.71-.02.24-.03.47-.03.71,0,.26,0,.52.02.78.01.26.03.51.06.78l.12.02c0-.5-.01-1-.04-1.49-.03-.5-.05-1-.06-1.49Zm0-1.44l-.02.06.1-.06h-.08Zm.2.49l.1.08c.01-.05.02-.1.03-.14,0-.04,0-.09,0-.14l-.08.04-.06.16Zm1.12,8.06c-.05.05-.12.08-.2.08s-.12-.03-.14-.1h-.14l-.04.08.14.11c.37.11.71.2,1.04.27.33.07.67.1,1.04.1.1,0,.21,0,.32-.03.11-.02.22-.03.32-.03-.09,0-.26-.01-.49-.04-.24-.03-.48-.07-.74-.12-.26-.05-.49-.1-.72-.15-.22-.05-.36-.11-.41-.18Zm0-.2s-.09-.05-.14-.1c.03.03.05.05.06.08.01.03.03.05.06.08l.02-.06Zm.14-.31c.08.08.18.16.29.24l-.29-.24Zm1.1.41c.1.07.22.1.33.1.08,0,.15,0,.23-.02.07-.01.15-.03.23-.06-.09,0-.18,0-.28,0-.09,0-.18,0-.26,0-.05,0-.1,0-.14-.02-.04-.01-.08-.02-.12-.02Zm1.24-.33c.13-.07.26-.13.37-.2.12-.07.24-.13.37-.2l.35-.51c-.18.18-.38.35-.58.49-.2.14-.42.28-.64.41h.12Zm1.32.94c-.42.29-.86.51-1.32.66.09-.01.21-.05.35-.1.14-.05.29-.11.44-.18.15-.06.29-.14.42-.21.13-.08.23-.15.29-.21l-.2.04Zm.83-2.24c-.18.18-.38.37-.58.55-.2.18-.38.37-.54.55.01,0,.02,0,.03,0,0,0,.02,0,.05,0,.09,0,.19-.03.29-.09s.19-.13.29-.21c.09-.08.18-.16.26-.25.08-.09.14-.15.18-.21,0-.07,0-.13,0-.19,0-.06.02-.12.03-.19Zm-.02.88c-.12.16-.25.29-.39.4-.14.11-.3.22-.47.32.18-.07.34-.14.48-.22s.28-.19.42-.33l-.04-.18Zm-.22.88s-.05.03-.06.04c-.01.01-.03.03-.06.04.07,0,.1-.03.12-.08Zm.24-2.97s0,.05-.02.06l.02-.06Zm.1,1.08l.1-.02v-.14l-.1.16Zm.18.59l.33.49-.29-.2-.04-.29Zm.29-4.44c-.04.34-.08.71-.12,1.1-.04.39-.06.79-.06,1.18,0,.25,0,.49.03.73.02.24.06.45.13.65l.02-3.66Zm-.02,7.01l.26-.04h-.08l-.1-.1-.08.14Zm.14-9.31l.02-.12s-.03,0-.04,0c-.01,0-.03,0-.06,0v.04l.08.06Zm.35-.29c-.04.26-.07.53-.1.8-.03.27-.09.52-.2.76l.14.16v2.81c.01-.41.05-.81.11-1.22.06-.41.09-.82.09-1.24,0-.2,0-.39-.03-.59s-.03-.39-.03-.57c0-.14.01-.29.04-.44.03-.15.07-.32.14-.5l-.16.04Zm0,9.54c-.04-.07-.07-.14-.08-.21-.01-.07-.02-.15-.02-.23,0-.04,0-.08,0-.11,0-.03,0-.07,0-.11l-.04-.04v.6s-.05.07-.12.14l.24-.03Zm.06-2.12l-.06-.18c0,.09.02.15.06.18Zm.12-1c.01.14.04.28.07.4.03.12.07.26.11.4-.03-.5-.06-1-.09-1.51-.03-.51-.05-1.02-.05-1.51-.03.24-.04.47-.04.7s-.01.47-.04.72l.04.14c-.04.07-.07.15-.08.27-.01.11-.02.2-.02.27l.1.14Zm.39,3.03l-.04-.06c-.07-.31-.11-.62-.12-.92l-.06-.06c-.05.12-.08.26-.08.41,0,.11,0,.21.03.32.02.11.04.22.07.32l.2-.02Zm-.02-8.73c-.05.31-.09.63-.11.95-.02.32-.03.65-.03.99,0,.94.05,1.89.16,2.84.1.95.19,1.87.26,2.76v-.26c0-.5-.04-.98-.13-1.45-.09-.47-.13-.96-.13-1.47,0-.46.01-.92.04-1.38.03-.46.04-.92.04-1.38,0-.26,0-.53-.02-.81-.01-.28-.04-.54-.08-.81Zm.16-.83l.08.2s.03-.06.04-.09c.01-.03.03-.06.06-.09l-.18-.02Zm.14,9.04s0,.02,0,.03c0,0,0,.02,0,.03,0,.05.02.09.06.1l-.02.28s0,.04.02.04c.03,0,.05-.02.08-.05.03-.03.05-.06.08-.07v-.55l-.1.16-.1.04Zm.14-9.06s-.03.02-.04.02l.04-.02Zm-.02,4.5c-.01.16-.02.31-.02.47v.45c0,.49.02.96.06,1.44.03-.07.04-.15.04-.25v-.32c0-.3,0-.63-.03-.98-.02-.35-.04-.62-.05-.81Z"/>
    <path class="cls-1" d="m35.29,3.91c.1.01.17.06.2.15.03.09.04.18.04.29,0,.07,0,.13,0,.2,0,.07,0,.12,0,.18.3-.34.58-.58.83-.73.25-.14.49-.22.73-.22.21,0,.42.05.62.15.2.1.41.23.61.38.2.16.41.33.62.53.21.2.43.39.65.57.01,0,.02,0,.02,0s0,0,.02,0c.05,0,.09.02.11.07.02.05.03.1.03.15,0,.16-.04.32-.11.5-.07.18-.16.35-.27.52-.11.17-.22.33-.34.49-.12.16-.25.29-.36.41l-.33-.04c-.14-.31-.37-.59-.69-.84-.31-.24-.64-.36-.96-.36-.22,0-.43.07-.62.2-.19.13-.34.35-.44.67l-.12.14v2.63c0,.67,0,1.33,0,1.98,0,.65.03,1.31.07,1.98.03-.01.07-.02.12-.02.1,0,.16.07.16.2,0,.04,0,.07-.02.1l-.22.18v.04c0,.13-.07.2-.22.2-.05,0-.09-.02-.12-.05-.03-.03-.09-.05-.18-.05-.2,0-.41.03-.65.09-.24.06-.47.09-.69.09-.08,0-.14,0-.18-.03-.04-.02-.11-.03-.2-.03l-.04.02s-.06,0-.14,0c-.08,0-.16-.02-.26-.04-.09-.02-.18-.05-.26-.08-.08-.03-.12-.07-.12-.11,0-.05.06-.1.18-.16,0-.55.02-1.09.05-1.63.03-.54.06-1.08.09-1.63l-.06-.12c0-1.11-.04-2.22-.11-3.33-.07-1.11-.13-2.22-.17-3.33-.16-.04-.24-.09-.24-.14,0-.04.06-.08.18-.13.12-.05.27-.08.45-.11.18-.03.39-.05.61-.07.22-.02.44-.03.65-.03.28,0,.52.02.73.05.21.03.33.09.35.17Zm-2.08,10.3v-.12l.08-.06v-.59l-.14-.06v.81l.06.02Zm.2-9.75v.14s.03-.02.04-.02.02,0,.03,0c0,0,.02,0,.03,0v.49c0,.08.01.12.04.12s.05-.04.07-.12.04-.12.07-.12c.01.01.02.03.02.04.01-.09.03-.18.06-.26.03-.08.05-.16.06-.24h-.28v-.04l-.14-.02Zm.14.06l.49.08h-.53l.04-.08Zm-.02,2.83v-.32c0-.11,0-.22-.02-.32v.49c0,.05,0,.11.02.16Zm.33.26c-.01.11-.02.21-.02.32v.56c0,.08,0,.16.02.26v-1.14Zm.06,5.7v.49h.06l-.06-.49Zm.1.88l-.08-.02v.06l.08-.04Zm.26-1.99c-.04.11-.06.23-.06.37s0,.29.03.43c.02.14.04.27.07.37.07-.34.11-.69.13-1.04.02-.35.03-.71.03-1.06,0-.75-.03-1.5-.09-2.26-.06-.76-.09-1.52-.09-2.28v-.64c0-.26.01-.5.04-.74.03-.24.07-.44.14-.6.07-.16.17-.25.31-.25.08,0,.12.05.12.14,0,.05,0,.09-.02.12l-.02.02.16.06-.1-.53c-.22.12-.43.18-.63.2,0,1.27-.01,2.53-.04,3.78-.03,1.25-.04,2.51-.04,3.78l.06.12Zm.49,1.75c-.04-.13-.06-.28-.06-.45,0-.03,0-.05,0-.08,0-.03,0-.05,0-.08-.03.07-.05.14-.06.23-.01.09-.03.17-.04.27l.14.12Zm-.06-8.16c-.01.2-.02.4-.03.6,0,.2,0,.41,0,.62,0,.85.03,1.7.08,2.54.05.84.08,1.69.08,2.56v.45c.04-.34.07-.68.08-1.01.01-.33.02-.67.02-1.01,0-.79-.03-1.58-.09-2.37-.06-.79-.1-1.58-.13-2.37Zm.1,8.2v.06c0,.08-.03.12-.1.14l.16-.04-.06-.16Zm.33-.65c0,.07,0,.13,0,.21,0,.07.02.14.03.21l-.04-.41Zm1.49-8.43c-.25.03-.45.1-.6.22-.15.12-.25.31-.3.57l.37-.37s-.02-.04-.02-.08c0-.08.07-.12.2-.12h.1l.26-.22Zm-.28.77s.05,0,.07,0c.02,0,.04,0,.07,0l-.1-.08-.04.06Zm1.53-1.14c-.11-.07-.22-.12-.35-.17-.13-.05-.26-.07-.39-.07-.18,0-.35.05-.51.16h.18c.18,0,.36,0,.54.03.18.02.36.04.54.05Zm-.96.61c.26.05.53.14.81.28-.09-.07-.18-.13-.26-.21-.08-.07-.14-.16-.2-.27-.12.03-.24.09-.35.2Zm1.16,1.1c-.12-.13-.2-.23-.26-.29-.05-.07-.1-.11-.15-.15-.05-.03-.11-.06-.2-.08-.09-.02-.21-.05-.38-.09l.98.61Zm0-.61c.04.05.08.1.13.14.05.04.09.08.13.12-.03-.05-.06-.1-.11-.14-.05-.04-.1-.08-.15-.12Zm.98-.02c-.28-.25-.54-.51-.79-.79l-.18.1c.13.16.27.29.42.41.15.12.33.21.54.28Zm-.22.33s.03.08.04.12c.01.04.02.08.02.12,0,.09-.04.16-.12.22l.02.16s-.01.05-.04.08c-.01.03-.02.05-.02.06l.04.02c.1-.14.2-.3.29-.46.09-.16.17-.34.24-.52h-.08c-.04.16-.12.24-.26.24-.05,0-.1,0-.14-.02Z"/>
    <path class="cls-1" d="m48.07,5.15c-.05.09-.13.22-.24.39-.11.17-.22.34-.34.51-.12.17-.26.32-.4.45-.14.13-.29.2-.43.2-.07,0-.12-.02-.18-.06-.26-.17-.58-.32-.94-.45-.37-.13-.73-.2-1.1-.2-.2,0-.39.03-.58.09-.19.06-.36.14-.51.24-.15.1-.27.21-.36.33-.09.12-.14.25-.14.36,0,.2.13.37.4.51.27.14.61.29,1.02.43.41.14.86.29,1.33.45s.91.35,1.33.59c.41.24.75.52,1.02.87.27.34.4.75.4,1.24,0,.22-.03.46-.09.72-.06.26-.14.5-.25.75-.11.24-.24.47-.39.67-.16.2-.33.36-.53.46-.49.26-1.11.47-1.87.61-.76.14-1.53.22-2.32.22-.24,0-.51,0-.83-.03s-.61-.05-.89-.1c-.28-.05-.52-.1-.71-.17-.19-.07-.29-.14-.29-.24,0-.04,0-.07.02-.1.1-.37.2-.73.29-1.09.09-.36.13-.73.13-1.11.04-.09.1-.14.18-.14.05,0,.1,0,.14.03s.08.04.12.05l.14.2.12.08c.37.16.71.27,1.04.34.33.07.64.11.94.11.66,0,1.17-.14,1.54-.42.37-.28.56-.59.56-.93,0-.28-.13-.54-.4-.8-.27-.26-.72-.46-1.35-.6-.62-.13-1.15-.3-1.59-.52-.45-.22-.81-.46-1.09-.73-.28-.27-.49-.56-.63-.87-.14-.31-.21-.61-.21-.91,0-.37.09-.72.28-1.07.18-.35.45-.65.8-.9.35-.26.77-.46,1.27-.62.5-.16,1.06-.24,1.69-.24.35,0,.69.04,1.01.12.32.08.64.17.95.29.31.11.63.23.93.36.31.13.63.25.95.35l.06.28Zm-7.43,8.65c.07,0,.13,0,.2,0,.07,0,.13.02.2.03l.06-.14s-.11-.02-.22-.03c-.11,0-.17-.02-.2-.05l-.04.18Zm.14-.53c.1,0,.19,0,.26.02l-.22-.12-.04.1Zm.39-7.16l-.35-.06.26.06.06.22.04-.22Zm-.29,1.65c.03.05.06.1.1.14.04.04.08.08.12.12l-.1-.16-.12-.1Zm.02,5.01c.25.05.46.11.63.17.17.06.41.09.71.09-.07-.05-.14-.1-.23-.16-.09-.05-.16-.1-.23-.16-.04,0-.1,0-.19,0-.09,0-.18-.01-.28-.02-.1,0-.19-.01-.27-.02-.08,0-.13-.02-.16-.05v.16Zm.04-.49h.24l-.22-.16-.02.16Zm.69-4.56c-.09-.07-.17-.14-.25-.24-.07-.09-.14-.19-.21-.29,0,.18.05.31.15.38.1.07.2.12.3.15Zm.12-1.63c-.16.07-.28.17-.37.31-.09.14-.14.3-.14.47,0,.2.07.37.22.51-.04-.13-.06-.24-.06-.33,0-.1.02-.19.07-.25.05-.06.09-.11.14-.17.05-.05.09-.11.14-.18.05-.07.07-.15.07-.26l-.06-.12Zm3.36-1.83c-.42-.12-.87-.18-1.34-.18-.8,0-1.54.16-2.22.49l.06.1c.28-.1.58-.19.91-.26.33-.07.67-.1.99-.1.26,0,.49.02.69.06.16-.03.31-.05.46-.06.15-.01.3-.03.44-.06Zm-3.32,1.36s.04-.1.04-.18v-.18c0-.08.05-.14.14-.2l-.06-.1c-.11.03-.16.09-.16.2v.12c0,.09-.02.16-.06.22l.1.12Zm.12,2.69l.16.04-.24-.12.08.08Zm.65,5.29c.05.01.1.02.15.02h.11c.13,0,.23,0,.29-.02l.12-.18.18-.06c-.09.01-.16.03-.22.04-.05.01-.11.02-.18.02-.09,0-.16-.01-.22-.04-.08.03-.16.04-.24.04h-.53c.08.03.16.05.26.07.09.02.18.06.28.11Zm-.29-7.14c.08-.09.16-.18.24-.28.08-.09.16-.18.26-.28-.11.04-.2.09-.29.14-.09.05-.17.12-.24.2l.04.22Zm.2-.83s-.03,0-.04,0c-.01,0-.03,0-.04,0,.01-.01.04-.02.08-.02Zm1.22,3.28c-.21-.07-.42-.15-.63-.25-.21-.1-.42-.16-.63-.19.2.09.4.17.62.24.22.07.43.13.64.2Zm.26,3.85c-.09,0-.18,0-.27,0-.09,0-.16,0-.23,0-.14,0-.29,0-.43,0-.14,0-.29-.02-.43-.03l.29.22c.18-.03.36-.06.53-.09.17-.03.35-.07.53-.11Zm-1.28-6.17s.02-.02.02-.03,0-.02.02-.03c-.01.01-.02.02-.02.03s0,.02-.02.03Zm.39,1.57s.05.03.06.04c.01.01.03.03.06.04l-.12-.08Zm2.1,5.45c-.33.12-.66.21-1,.29-.34.07-.68.11-1.02.13.07.01.16.02.29.02.3,0,.6-.04.89-.13.29-.09.57-.19.84-.3Zm-.53-4.48c-.13-.04-.25-.09-.35-.15-.11-.06-.22-.11-.33-.15l-.24.1.47.22s.09-.02.22-.02h.24Zm-.69-3.74s.05,0,.06,0c.01,0,.03,0,.06,0l.04-.02-.16.04Zm.18,8.06c.5-.1.98-.24,1.44-.41.46-.17.92-.37,1.38-.59-.04-.01-.14-.04-.3-.09-.16-.05-.25-.09-.25-.15,0-.03.04-.06.13-.11.09-.05.14-.1.17-.17-.03.05-.06.09-.11.12-.05.03-.1.05-.15.08-.07.05-.11.1-.13.15-.02.05-.04.09-.05.14-.01.05-.03.09-.06.13-.03.04-.09.07-.18.08-.3.21-.61.37-.91.47-.31.11-.63.22-.97.35Zm.2-8.14c.14.05.29.09.45.1.16.01.31.05.45.12l.02.02v-.08c-.11-.07-.22-.11-.33-.13-.12-.02-.24-.03-.35-.03h-.24Zm1.06-.28l-.65-.2-.02.12c.12.01.23.03.33.06.1.03.22.06.33.1v-.08Zm.29-.63s.02.06.02.1c0,.07-.04.11-.11.13-.07.02-.14.03-.21.03.14.05.29.1.43.13.14.03.29.06.43.09v-.22c-.12-.01-.23-.02-.33-.03-.11,0-.18-.08-.24-.23Zm-.06,6.09c.13.24.2.47.2.69,0,.16-.02.28-.06.37.07-.1.12-.2.16-.29.04-.09.06-.19.06-.29,0-.18-.12-.34-.35-.47Zm1.47,2.56c-.43.24-.87.47-1.32.69.24-.09.46-.19.68-.29.22-.1.43-.23.64-.4Zm-1.1-3.52h-.18c.1.03.17.05.2.08l-.02-.08Zm-.12-.37l.22.1.1-.06-.31-.12v.08Zm.12-3.81c.13.07.26.13.38.2.12.07.26.12.4.18-.11-.09-.23-.17-.36-.23s-.28-.11-.42-.15Zm.45,6.27c.07-.07.11-.16.14-.29h-.16c-.07.17-.13.31-.2.43l.04-.06.18-.08Zm.26-.65c.04-.09.06-.18.06-.26,0-.12-.05-.21-.14-.27-.09-.06-.2-.13-.33-.23.05.07.09.13.13.19.03.06.07.12.11.19h.06s-.02.03-.02.04v.04s0,.02.02.02h.02v-.08l.1.16v.2Zm.43-1.49l-.73-.18.04.08c.08.01.18.03.31.05.13.02.23.06.29.13l.08-.08Zm-.37.18c-.12-.04-.24-.06-.35-.06.04.07.09.12.17.16.07.04.15.07.23.1l-.04-.2Zm-.16.96l-.02.02v-.04s0-.02,0-.03,0-.02,0-.03v.08Zm.33-4.4c-.07-.01-.12-.03-.18-.06-.05-.03-.11-.05-.16-.08.09.09.19.16.29.22l.14-.12-.1.04Zm.16-.08c.05-.03.08-.06.09-.09,0-.03.03-.07.07-.11l-.14-.02c-.05.14-.13.22-.24.22-.01,0-.02,0-.03,0,0,0-.02,0-.03,0l.28.02Zm-.26-.87c.09.07.21.15.34.25.14.1.21.17.21.23v.04l.18-.18-.1-.1c-.05-.12-.13-.2-.24-.26-.11-.05-.22-.09-.33-.12l-.06.14Zm.49,4.95h.04c.1,0,.18.04.22.12l.2-.02c-.07-.09-.11-.2-.15-.32-.03-.12-.1-.23-.19-.32l-.08.08-.04.47Zm.28.51c-.03.35-.09.69-.18,1.02.07-.1.13-.21.19-.32.06-.11.09-.23.09-.36,0-.09-.03-.2-.1-.33Zm.04-5.6s-.04,0-.05,0c0,0-.02,0-.05,0l.06.06.04-.04Z"/>
    <path class="cls-1" d="m52.32,4.23c.09.13.15.28.19.43.03.16.05.33.05.51,0,.42,0,.79-.03,1.12-.02.33-.03.68-.03,1.04,0,.87.02,1.73.05,2.61.03.87.08,1.74.13,2.6.07-.01.14-.02.22-.03.08,0,.15,0,.22,0,.13,0,.27.02.41.06l.22-.14.2.08c.07.26.11.53.15.82.03.28.09.55.17.82l-.08.16c-.12.03-.32.06-.62.1-.29.04-.62.08-.98.11-.36.03-.72.06-1.09.09-.37.03-.7.04-.98.04-.43,0-.7-.03-.81-.1h-.04c-.08-.04-.15-.13-.22-.27-.07-.14-.12-.29-.17-.47-.05-.18-.08-.36-.1-.54-.02-.18-.03-.34-.03-.47,0-.09,0-.16.02-.2l.2-.1.12.06c.18-.09.36-.14.54-.14s.36-.03.54-.1c-.03-.22-.05-.45-.07-.68-.02-.23-.03-.47-.03-.72v-.14c0-.05,0-.11.02-.18l-.1-.24c0-.35.01-.72.04-1.1.03-.38.04-.76.04-1.14,0-.41-.04-.77-.13-1.08-.09-.31-.13-.63-.13-.94,0-.09,0-.16.02-.22l-.2.08-.08.04-.16-.1-.14-.08h-.16c-.05-.18-.08-.38-.09-.58,0-.2-.02-.41-.03-.62l.04-.06-.04-.24h-.04c-.09,0-.14-.07-.14-.22,0-.05.04-.09.11-.13.07-.03.16-.06.26-.07.1-.01.22-.02.34-.02h1.51c.16,0,.29,0,.4-.02.11-.01.25-.02.42-.02s.25.07.25.2c0,.11-.06.16-.18.18Zm-2.85-1.61c-.09-.09-.14-.2-.14-.31,0-.13.06-.26.17-.39.11-.13.25-.25.42-.34.17-.1.36-.18.57-.24.21-.06.42-.09.63-.09.27,0,.55.08.82.23.27.15.41.41.41.78,0,.17-.06.32-.18.46-.12.14-.26.25-.44.34-.18.09-.37.16-.59.21-.22.05-.42.07-.62.07-.29,0-.53-.05-.74-.15-.21-.1-.31-.27-.31-.5v-.06Zm.57,11.54l-.1-.08-.06-.12.12-.28-.24.02-.04-.37c.12,0,.2,0,.26-.02l-.02-.1h-.29c0,.16,0,.32.02.49.01.17.05.33.12.47l.24-.02Zm.28-9.32h-.61v.04c.1-.01.21-.02.3,0,.1,0,.2,0,.3-.03Zm-.49.57c.08-.03.16-.04.25-.04s.17,0,.27-.02l-.63-.08v.02l.12.12Zm-.04-2.5c.17.13.44.2.81.2.17,0,.35-.02.53-.06.18-.04.35-.09.5-.17.15-.07.27-.16.36-.27.09-.1.14-.23.14-.37v-.1l-.2.18.04.08-.02.18c-.12.12-.31.21-.57.28-.26.07-.52.1-.77.1-.18,0-.35-.01-.49-.04-.14-.03-.26-.05-.33-.08v.08Zm1.79,11.5l-.59-.14-.43.16,1.02-.02Zm-.87-12.17l-.1.06.1.04.02-.02-.02-.08Zm.47,10.4l-.45-.06h.37v.06h.08Zm-.02-1.06v-.57c0-.33-.02-.66-.05-.99-.03-.33-.08-.65-.13-.95-.01.03-.02.12-.02.29,0,.16,0,.35.02.57.01.22.03.44.05.66.02.22.04.42.07.6.02.18.04.31.05.39Zm-.1-5.03v.18c0,.26.02.54.07.83.05.29.08.55.09.79,0-.3,0-.61.02-.91.01-.31.02-.61.02-.91l-.2.04Zm.47-2.3l.27-.02c.03.07.05.14.09.22.03.08.06.15.09.22l.17.18c.08.72.12,1.45.13,2.17,0,.73,0,1.45,0,2.17h-.14c.03.34.05.69.06,1.05.01.36.05.71.12,1.05,0-.16,0-.42,0-.8,0-.37,0-.81,0-1.31s0-1-.02-1.54c-.01-.54-.03-1.05-.06-1.5-.03-.46-.07-.85-.12-1.17-.06-.32-.13-.51-.22-.58l.02-.18-.4.04Zm.02,8.95l.02.06c.09,0,.2.01.33.04l-.04-.12-.02-.12h-.28l-.02.14Zm.26-7.43c-.03-.14-.05-.29-.07-.43-.02-.14-.04-.29-.07-.43v.1c0,.11,0,.21.02.32.01.11.02.22.02.32l-.02.16.12-.04Zm.08,5.21c-.05-.46-.08-.92-.09-1.38-.01-.46-.05-.92-.11-1.38.02.46.04.92.06,1.39.02.47.06.92.13,1.37Zm.18,1.32c0,.17-.04.32-.12.45l.16-.04-.04-.41Zm.18,1.2v.02s0,.02.02.02h.02l-.04.28c.12-.01.24-.02.35-.02h.35s-.08-.04-.12-.07c-.04-.03-.07-.06-.1-.09l.04-.14h-.53Zm1.57.57c-.08.03-.16.04-.26.05-.09,0-.18.02-.28.03l-.22.18c.12-.04.27-.09.45-.14.18-.05.34-.08.47-.08l-.06-.14-.12.1Z"/>
    <path class="cls-1" d="m54.17,4.99s.07-.09.12-.15c.05-.06.11-.1.16-.13.39.01.78.03,1.17.04.39.01.77.02,1.15.02,0-.37.02-.71.05-1.02.03-.31.09-.62.16-.9.07-.29.17-.58.29-.87.12-.29.29-.59.48-.9.07-.12.18-.24.35-.36.17-.12.36-.24.56-.35.2-.11.42-.2.64-.27.22-.07.43-.1.61-.1.13,0,.25.02.35.06h.04c.1,0,.31.06.62.17.31.11.63.24.96.38.33.14.64.29.9.43.27.14.42.26.46.33-.12.37-.22.69-.29.98-.08.29-.12.62-.12.98v.18c0,.05,0,.11.02.18-.05.05-.11.11-.16.16s-.11.08-.18.08c-.04,0-.15-.07-.34-.21-.19-.14-.42-.29-.69-.44-.27-.16-.55-.3-.86-.44-.3-.14-.58-.21-.83-.21-.28,0-.47.11-.59.31-.03.04-.06.15-.1.32-.04.18-.08.37-.12.58-.04.21-.07.41-.1.6-.03.19-.04.32-.04.38.26,0,.52,0,.78.02.26.01.52.02.8.02.3,0,.61-.02.92-.06l.1.12v-.06l.35-.04c.05.17.08.35.08.55,0,.16,0,.31-.03.45-.02.14-.04.3-.05.47.07.18.11.37.15.56.03.19.05.39.05.6l-.1.18h-.16c-.16,0-.39,0-.71,0-.31,0-.63,0-.94,0s-.59,0-.84,0c-.24,0-.37,0-.38,0l.39,6.57c.08.04.12.09.12.16,0,.12-.07.19-.2.22l-.2-.08-.2.16c-.05.01-.15.03-.29.04-.14.01-.29.02-.44.03-.16,0-.32.01-.48.02-.16,0-.3,0-.42,0-.28,0-.41-.07-.41-.22,0-.05.03-.1.08-.14-.03-.04-.05-.22-.06-.53-.01-.31-.03-.7-.05-1.16-.02-.46-.04-.96-.05-1.5-.01-.54-.03-1.06-.04-1.54-.01-.48-.02-.91-.03-1.29,0-.37,0-.62,0-.74h-1.89l-.04.12-.37-.02-.02-.1c-.1-.03-.16-.09-.16-.2,0-.13.05-.2.16-.2h.04c-.03-.08-.04-.13-.04-.16,0-.1.01-.2.04-.29.03-.09.04-.19.04-.29,0-.03,0-.05,0-.06,0-.01,0-.03,0-.06,0-.01,0-.02.02-.02-.03-.22-.06-.45-.11-.67-.05-.22-.08-.45-.09-.67Zm.43.51s.06,0,.09,0c.03,0,.06,0,.09,0v-.1h-.2l.02.12Zm.33.59h.16c.25,0,.5-.02.76-.05.26-.03.51-.07.78-.11h-.2c-.24,0-.48,0-.72-.03-.24-.02-.48-.03-.72-.03l-.06.22Zm.47-.63s.09.02.18.02c.17,0,.36-.02.56-.05.2-.03.38-.06.54-.07v-.08c-.24,0-.48,0-.72.03-.24.02-.48.04-.72.05l.16.1Zm.35,1.44c.07.01.13.02.21.02h.41c.07,0,.15,0,.23-.02v-.04l-.85.04Zm1.3-.02s-.04-.02-.08-.02v.02h.08Zm.16,4.42c-.07-.62-.11-1.23-.12-1.84-.01-.61-.02-1.23-.02-1.86h-.04c.02.63.03,1.25.03,1.86,0,.61.04,1.22.15,1.84Zm.18-6.9c.03-.22.05-.46.06-.72.01-.26.05-.48.1-.68-.11.29-.2.54-.26.76-.06.22-.09.47-.09.76,0,.09.01.17.04.24l.16-.35Zm-.14.88l.04.12.02-.02.02-.1h-.08Zm.37,8.77v-1.06c-.01-.1-.02-.22,0-.35,0-.13,0-.25-.03-.35l-.1.02.06.12c0,.08,0,.21.03.4.02.19.03.38.03.56,0,.14-.01.28-.04.39-.03.12-.09.18-.18.18v.1h.24Zm.06-8l.04.1s-.06.02-.06.06h.14l-.02-.33h-.04l.02.02-.08.16Zm.14.77v-.24h-.16l.02.12v.12h.14Zm-.14,1.49v.37c.03-.07.05-.12.07-.18.02-.05.03-.11.03-.18l-.1-.02Zm.12-1.1l-.1-.02v.02h.1Zm.14,2.3c-.03.16-.04.32-.04.48v.48c0,.5.02.99.06,1.47l.1.02v-2.48l-.12.02Zm.57-7.16c-.18.28-.33.58-.45.9l.06-.02c.28-.34.58-.61.9-.81-.07-.01-.16-.02-.28-.02s-.2-.02-.24-.06Zm-.28,1.61c.15-.3.35-.56.6-.79l-.25.08-.37.49.02.22Zm0,1.42s0-.03.02-.04l-.02.04Zm.59-4.05l-.02-.02-.04-.02s-.1.07-.19.2c-.09.13-.14.22-.17.26l.41-.41Zm-.22,7.55c0,.26,0,.53.02.81.01.28.03.54.06.81l-.07-1.61Zm.19-3.09h.45c.15,0,.3,0,.45-.02l-.89.02Zm.4.47s.07-.07.14-.1h-.54v.1h.4Zm-.37.81s.1.02.2.02c.07,0,.13,0,.18,0,.05,0,.11-.02.18-.03v-.08h-.57l.02.1Zm0,7.04h.08l-.02-.1-.06.1Zm.77-13.57l-.14.08c.07,0,.14-.03.22-.08h-.08Zm0,2.06c.05-.01.1-.02.16-.02h.14l-.2-.06-.1.08Zm.37-1.28c.12-.03.24-.04.36-.04h.34c-.18-.04-.36-.06-.53-.06h-.12l-.06.1Zm1.26,1.77c-.16-.01-.25-.07-.29-.18-.03-.1-.07-.21-.1-.31-.03-.1-.1-.2-.2-.29-.1-.09-.29-.14-.58-.14.12,0,.22.04.31.12.09.08.18.17.28.29.09.11.18.22.28.31.09.1.19.17.29.21Zm-.81-.83l.37.1c-.13-.07-.26-.1-.37-.1Zm1.04,4.54c-.07,0-.12,0-.18.02-.05.01-.11.02-.16.02l-.18.1h-.53c.17.04.36.06.57.06.09,0,.18,0,.28,0,.09,0,.16-.07.2-.19Zm-.96-.31c.12,0,.24,0,.35,0,.12,0,.23-.02.33-.03l-.69-.12v.16Zm1.12-4.29c-.16-.09-.31-.16-.47-.22-.16-.05-.33-.1-.51-.14.17.07.33.12.49.18.16.05.32.11.49.18Zm-.29,3.87l-.04-.14-.16-.02v.04s-.02.06-.06.05c-.04,0-.08,0-.12,0l.37.06Zm1-3.79c-.03-.07-.05-.13-.07-.19-.02-.06-.05-.11-.09-.17l-.41-.04c.09.07.19.13.29.19.1.06.19.13.29.21Zm-.14.79l.08-.14-.06-.02s-.09.02-.16.02h-.16l.29.14Zm.22.35l.08.04.02-.24s-.03.01-.06.04l-.04.16Zm.1-.94l.12.2.08-.31-.2.12Zm.22-.35h-.06l.04.18.02-.18Z"/>
    <path class="cls-1" d="m65.18,19.27s-.05,0-.07,0c-.02,0-1.2,0-1.23,0-.11,0-.16-.03-.16-.1,0-.11.02-.23.07-.36.05-.14.07-.28.07-.42,0-.22-.02-.45-.06-.68-.04-.23-.06-.42-.06-.58,0-.11.05-.17.16-.2-.07-.04-.11-.1-.13-.18s-.03-.15-.03-.22c0-.08,0-.15,0-.21,0-.06.04-.09.13-.09.1,0,1.38.02,1.51.06.13.04.26.06.39.06.22,0,.46-.04.7-.11.24-.07.49-.11.74-.11.17-.41.34-.81.52-1.2.18-.39.36-.79.54-1.2l-.14-.18-.04-.22c-.47-.79-.9-1.61-1.29-2.47-.39-.86-.84-1.67-1.35-2.45-.2-.3-.36-.62-.5-.95-.14-.33-.28-.67-.41-.99-.14-.33-.29-.65-.46-.96-.17-.31-.39-.6-.67-.87.03-.03.04-.06.04-.1,0-.05-.01-.11-.04-.18-.03-.07-.05-.12-.06-.18l.02-.24s.13-.02.35-.02c.17,0,.38,0,.62,0,.24,0,.48.02.71.04.23.02.43.04.6.06.17.02.27.04.29.05.71.94,1.33,1.96,1.88,3.06.54,1.09,1.08,2.16,1.6,3.19.26-1.06.59-2.1.99-3.13.4-1.02.79-2.05,1.17-3.09.03-.01.09-.04.18-.08.09-.04.17-.06.24-.06.04,0,.06.01.06.04.25-.03.49-.05.74-.06.24-.01.49-.02.76-.02h.47l.18.14c.13,0,.2.07.2.2,0,.01,0,.03,0,.04,0,.01,0,.03,0,.04v.2c-.11.12-.2.29-.29.5-.09.22-.16.44-.23.68-.07.24-.13.47-.2.71-.07.24-.14.43-.22.59-.14.3-.3.61-.46.92-.16.31-.31.62-.44.92-.17.42-.31.87-.43,1.34s-.27.92-.45,1.36c-.16.42-.32.84-.48,1.25-.16.41-.32.83-.46,1.25-.01,0-.02,0-.02,0s0,0-.02,0c-.03,0-.04.02-.04.06,0,.01,0,.02.02.02-.18.37-.34.75-.48,1.14-.14.39-.27.79-.4,1.19-.13.4-.27.79-.42,1.17-.15.38-.33.75-.54,1.1l-.06.37-.22-.02-.18.06-.1-.04-.26.02-.14.08c-.07,0-.18,0-.34,0-.16,0-.35.01-.55.02-.2,0-.41.01-.63.02-.22,0-.41,0-.58,0h-.39c-.11,0-.17-.01-.2-.04Zm-1.55-15l-.02.02.16.06.33.49c-.08-.17-.14-.36-.18-.57h-.29Zm.73.24v-.2h-.06l.06.2Zm.28.53c.47.94.97,1.87,1.5,2.79.53.92,1.11,1.8,1.74,2.63-.45-.75-.87-1.52-1.29-2.33-.41-.81-.87-1.57-1.39-2.29-.11-.13-.21-.26-.3-.39-.1-.13-.19-.27-.27-.41Zm.08-.65c.04.14.1.29.2.43.09.14.18.28.28.41-.03-.04-.06-.09-.09-.17-.03-.07-.06-.15-.09-.24-.03-.09-.05-.17-.08-.25-.03-.08-.04-.14-.04-.18l-.18-.02Zm.41,12.56c.16.04.33.06.53.06s.4-.02.62-.06.4-.09.54-.16l.06-.1c-.07-.01-.12-.02-.18-.03-.05,0-.11,0-.16,0-.22,0-.44.03-.65.09-.21.06-.43.09-.65.11l-.12.1Zm.08-9.38c.13.24.27.47.4.7.14.23.28.46.42.7-.14-.24-.28-.47-.41-.71-.13-.24-.27-.47-.41-.69Zm.16,11.34l-.02.08-.04.12.22.04.04-.12h-.04l-.16-.12Zm.02-.2v-.04.04Zm.02-.41c.1,0,.21,0,.31.02.1.01.21.03.31.04l.14-.18c-.12,0-.23,0-.34,0-.11,0-.23.02-.34.03l-.08-.04v.12Zm.02-.43c.05-.03.13-.04.24-.05.1,0,.19-.02.26-.03-.07-.01-.13-.02-.19-.02h-.19l-.08-.06-.04.16Zm.47-13.33c.08.24.18.49.3.76.12.27.26.53.41.79.15.26.31.5.48.74.17.24.33.45.49.65-.07-.12-.17-.33-.31-.63-.14-.3-.3-.61-.46-.93-.16-.32-.33-.62-.5-.88-.17-.27-.31-.43-.41-.48Zm1.38,14.41c.05-.01.1-.02.16-.03.05,0,.1-.02.16-.05l-.04-.12c-.24.03-.47.06-.69.09-.22.03-.45.07-.69.11l-.1.16c.14,0,.32-.03.52-.09.2-.06.38-.09.54-.09.07,0,.11,0,.14.02Zm-1.1-1.57c.07.03.12.05.18.06.05.01.11.02.18.02l.1-.22-.45.14Zm.59-8.14l-.53-.69.39.75.14-.06Zm-.18,9.18h.12c.18,0,.33-.02.44-.05.11-.03.2-.08.28-.15.07-.07.13-.14.19-.24.05-.09.11-.19.18-.29l-.35.35c-.11.05-.23.08-.38.09-.15,0-.29.02-.42.03l-.04.26Zm.24-8.26l.14.02.08.06-.31-.31.1.24Zm.37,7.59l.02-.02-.02.02Zm1.12-5.27c-.18-.28-.36-.55-.52-.84-.16-.28-.36-.54-.58-.78.12.26.28.54.47.85.2.3.41.56.63.77Zm.16-2.91c-.2-.28-.37-.56-.53-.85-.16-.29-.35-.56-.57-.83.33.51.64,1.03.93,1.55.29.52.63,1.02.99,1.49h.02s0-.02,0-.03c0,0,0-.02,0-.03l-.18-.35c-.11-.18-.2-.39-.28-.62-.08-.23-.18-.43-.29-.6l-.08.26Zm-.37,6.51c-.08.12-.15.23-.22.33-.07.1-.13.22-.2.33l.41-.67Zm-.28-5.03c.18.24.34.49.48.75.14.26.29.52.46.77,0-.08-.03-.19-.1-.32-.07-.14-.15-.28-.25-.42-.1-.14-.2-.29-.3-.42-.11-.14-.2-.25-.29-.34Zm.22,5.19v-.02s-.02,0-.02,0,0,0,.02,0Zm.14,2.12s-.02.02-.02.03,0,.02-.02.03c.01,0,.03,0,.04.02v-.08Zm.53-3.26c-.07.08-.12.16-.16.24-.04.08-.08.16-.12.26l.28-.49Zm.02-.65c0-.05-.03-.08-.08-.08l-.16.33.24-.26Zm-.22-5.21s.01.05.04.08c0-.03-.01-.05-.04-.08Zm.28,8.53c-.07.12-.12.23-.18.34-.05.11-.08.24-.08.38.08-.11.14-.21.2-.31.05-.11.11-.21.18-.31l-.12-.1Zm-.04-.69l-.14.31.24-.33-.1.02Zm.04-5.37c.04.05.08.11.11.16.03.05.06.11.09.18l.22-.73-.1-.04-.14-.18.16.24c.03.08.04.12.04.14,0,.09-.07.14-.2.14-.07,0-.11-.01-.14-.04l-.04.14Zm.29,4.88s-.05.03-.08.08l-.04.14.12-.22Zm-.04-3.68c.07-.08.12-.19.17-.32.05-.14.07-.26.07-.36-.04.12-.08.24-.11.35-.03.12-.08.23-.13.33Zm.59,1.47l-.08.16.16-.2-.08.04Zm.12-.1l.14-.18-.14.02v.16Zm.14-4.23c.35-.93.68-1.86.99-2.78.31-.92.63-1.86.95-2.8h-.04c-.13.29-.29.69-.47,1.19-.18.5-.37,1.03-.56,1.58-.19.55-.36,1.08-.52,1.59s-.28.92-.35,1.22Zm.29,3.66h-.06c-.08,0-.12-.03-.14-.1l-.08.16.28-.06Zm1.36-5.47c-.22.55-.45,1.1-.67,1.65-.22.55-.43,1.11-.61,1.69.26-.55.49-1.1.7-1.65.2-.55.4-1.11.58-1.69Zm-1.16,5.01s-.02.09-.02.16l.08-.16-.02-.04-.04.04Zm.26-.49c.05-.18.1-.37.15-.56.05-.19.09-.38.13-.58l-.43.88.16.26Zm.81-5.45c-.11.25-.21.5-.3.76s-.18.51-.25.78c.25-.62.49-1.23.73-1.83.24-.6.47-1.22.69-1.85-.18.3-.33.63-.43.97-.11.35-.22.69-.35,1.01l.02-.08s-.02.05-.05.12c-.03.07-.05.11-.05.12Zm-.16,4.58c.18-.34.33-.7.44-1.09.11-.39.2-.77.27-1.15l-.16.31.08-.2c-.14.34-.26.69-.35,1.04-.09.35-.18.71-.28,1.08Zm.22-4.7s-.02.03-.03.05c0,.02-.02.04-.03.05l.06-.1Zm.73-2.75c-.03.07-.05.13-.07.21-.02.07-.04.14-.07.21.09-.17.2-.32.33-.45l-.2.04Zm1.42.02c-.22.33-.41.7-.56,1.11-.15.41-.3.81-.46,1.19.14-.24.27-.52.37-.85.1-.33.24-.59.41-.79l.29-.77h-.04l-.02.1Zm-.57-.1c-.07.14-.12.29-.17.44-.05.15-.09.3-.13.44.07-.14.14-.29.22-.44.08-.15.16-.3.26-.44h-.18Zm.24,2.06c-.08.28-.18.51-.31.71.08-.12.14-.23.2-.33.05-.1.09-.23.12-.37Z"/>
    <path class="cls-1" d="m44.18,33.72l-14.34-8.44,30.16-7.71-15.83,16.15Zm14.13-16.47l-34.83,3.99,1.44,12.62,4.24-9,29.16-7.61Zm-3.26-.17l-41.67,1.14,9.99,2.59,31.68-3.74Zm-19.44,12.27l-6.19-3.63-3.94,8.59,10.13-4.96Z"/>
  </g>
</svg>